<svg width="34" height="34" viewBox="0 0 34 34" fill="none" xmlns="http://www.w3.org/2000/svg">
<path fill-rule="evenodd" clip-rule="evenodd" d="M17 34C26.3888 34 34 26.3888 34 17C34 7.61116 26.3888 0 17 0C7.61116 0 0 7.61116 0 17C0 26.3888 7.61116 34 17 34ZM20.1729 8.85416H24.1818L26.2083 12.8973L24.1165 12.0697V18.6255C24.1165 24.0041 21.3916 26.5625 16.8254 26.5625C12.4125 26.5625 9.81813 24.1324 9.81813 18.5746V12.0961L7.79163 12.8973L9.81813 8.85416H13.7882V18.8838C13.7882 21.8833 14.9311 23.4084 16.9541 23.4084C19.03 23.4084 20.1729 21.9606 20.1729 18.8838V8.85416Z" fill="#2B1A4F"/>
</svg>
