<svg width="169" height="43" viewBox="0 0 169 43" fill="none" xmlns="http://www.w3.org/2000/svg">
<path d="M64.0698 31.773C61.5836 31.773 59.6444 31.0852 58.2521 29.7095C56.8764 28.3338 56.1886 26.3697 56.1886 23.8172V14.0714H60.2162V23.6681C60.2162 26.7841 61.509 28.3421 64.0947 28.3421C65.3543 28.3421 66.3156 27.9692 66.9786 27.2233C67.6416 26.4609 67.9731 25.2758 67.9731 23.6681V14.0714H71.951V23.8172C71.951 26.3697 71.2549 28.3338 69.8626 29.7095C68.4869 31.0852 66.556 31.773 64.0698 31.773Z" fill="#7036B6"/>
<path d="M83.7874 17.9001C85.4448 17.9001 86.7791 18.3974 87.7901 19.3918C88.8177 20.3863 89.3316 21.8614 89.3316 23.8172V31.4747H85.4531V24.4139C85.4531 23.3531 85.2211 22.5659 84.757 22.052C84.2929 21.5217 83.6216 21.2565 82.7432 21.2565C81.7653 21.2565 80.9863 21.5631 80.4062 22.1764C79.826 22.773 79.536 23.6681 79.536 24.8614V31.4747H75.6575V18.099H79.362V19.6653C79.8758 19.1018 80.5139 18.6708 81.2763 18.3725C82.0387 18.0576 82.8758 17.9001 83.7874 17.9001Z" fill="#7036B6"/>
<path d="M92.8472 18.099H96.7256V31.4747H92.8472V18.099ZM94.7864 16.2344C94.0737 16.2344 93.4936 16.0272 93.0461 15.6128C92.5986 15.1985 92.3748 14.6847 92.3748 14.0714C92.3748 13.4581 92.5986 12.9443 93.0461 12.53C93.4936 12.1156 94.0737 11.9084 94.7864 11.9084C95.4991 11.9084 96.0792 12.1073 96.5267 12.5051C96.9742 12.9029 97.198 13.4001 97.198 13.9968C97.198 14.6432 96.9742 15.1819 96.5267 15.6128C96.0792 16.0272 95.4991 16.2344 94.7864 16.2344Z" fill="#7036B6"/>
<path d="M106.789 31.6736C105.364 31.6736 104.079 31.3835 102.936 30.8034C101.809 30.2067 100.922 29.3863 100.275 28.3421C99.6456 27.2979 99.3307 26.1128 99.3307 24.7868C99.3307 23.4609 99.6456 22.2758 100.275 21.2316C100.922 20.1874 101.809 19.3753 102.936 18.7951C104.079 18.1985 105.364 17.9001 106.789 17.9001C108.198 17.9001 109.425 18.1985 110.469 18.7951C111.53 19.3753 112.3 20.2123 112.781 21.3062L109.773 22.9222C109.076 21.6957 108.074 21.0824 106.764 21.0824C105.753 21.0824 104.916 21.4139 104.253 22.0769C103.59 22.7399 103.259 23.6432 103.259 24.7868C103.259 25.9305 103.59 26.8338 104.253 27.4968C104.916 28.1598 105.753 28.4913 106.764 28.4913C108.09 28.4913 109.093 27.878 109.773 26.6515L112.781 28.2924C112.3 29.3531 111.53 30.1819 110.469 30.7785C109.425 31.3752 108.198 31.6736 106.789 31.6736Z" fill="#7036B6"/>
<path d="M123.047 17.9001C124.704 17.9001 126.038 18.3974 127.049 19.3918C128.077 20.3863 128.591 21.8614 128.591 23.8172V31.4747H124.712V24.4139C124.712 23.3531 124.48 22.5659 124.016 22.052C123.552 21.5217 122.881 21.2565 122.003 21.2565C121.025 21.2565 120.246 21.5631 119.666 22.1764C119.085 22.773 118.795 23.6681 118.795 24.8614V31.4747H114.917V13.0272H118.795V19.4913C119.309 18.9775 119.931 18.588 120.66 18.3228C121.389 18.041 122.185 17.9001 123.047 17.9001Z" fill="#7036B6"/>
<path d="M137.502 17.9001C139.573 17.9001 141.165 18.3974 142.275 19.3918C143.385 20.3697 143.941 21.8531 143.941 23.8421V31.4747H140.311V29.8089C139.582 31.052 138.223 31.6736 136.234 31.6736C135.206 31.6736 134.311 31.4995 133.549 31.1515C132.803 30.8034 132.231 30.3227 131.833 29.7095C131.435 29.0962 131.236 28.4001 131.236 27.6211C131.236 26.378 131.7 25.4001 132.629 24.6874C133.573 23.9747 135.024 23.6183 136.979 23.6183H140.062C140.062 22.773 139.805 22.1266 139.292 21.6791C138.778 21.215 138.007 20.983 136.979 20.983C136.267 20.983 135.562 21.099 134.866 21.331C134.187 21.5465 133.607 21.8449 133.126 22.2261L131.734 19.5161C132.463 19.0023 133.333 18.6045 134.344 18.3228C135.372 18.041 136.424 17.9001 137.502 17.9001ZM137.203 29.0631C137.866 29.0631 138.455 28.9139 138.968 28.6156C139.482 28.3006 139.847 27.8448 140.062 27.2482V25.8808H137.402C135.811 25.8808 135.015 26.4029 135.015 27.4471C135.015 27.9443 135.206 28.3421 135.587 28.6404C135.985 28.9222 136.524 29.0631 137.203 29.0631Z" fill="#7036B6"/>
<path d="M147.451 18.099H151.329V31.4747H147.451V18.099ZM149.39 16.2344C148.677 16.2344 148.097 16.0272 147.65 15.6128C147.202 15.1985 146.979 14.6847 146.979 14.0714C146.979 13.4581 147.202 12.9443 147.65 12.53C148.097 12.1156 148.677 11.9084 149.39 11.9084C150.103 11.9084 150.683 12.1073 151.13 12.5051C151.578 12.9029 151.802 13.4001 151.802 13.9968C151.802 14.6432 151.578 15.1819 151.13 15.6128C150.683 16.0272 150.103 16.2344 149.39 16.2344Z" fill="#7036B6"/>
<path d="M163.059 17.9001C164.716 17.9001 166.05 18.3974 167.061 19.3918C168.089 20.3863 168.603 21.8614 168.603 23.8172V31.4747H164.724V24.4139C164.724 23.3531 164.492 22.5659 164.028 22.052C163.564 21.5217 162.893 21.2565 162.015 21.2565C161.037 21.2565 160.258 21.5631 159.678 22.1764C159.097 22.773 158.807 23.6681 158.807 24.8614V31.4747H154.929V18.099H158.633V19.6653C159.147 19.1018 159.785 18.6708 160.548 18.3725C161.31 18.0576 162.147 17.9001 163.059 17.9001Z" fill="#7036B6"/>
<path fill-rule="evenodd" clip-rule="evenodd" d="M21.897 43C33.7712 43 43.397 33.3741 43.397 21.5C43.397 9.62588 33.7712 0 21.897 0C10.0229 0 0.397034 9.62588 0.397034 21.5C0.397034 33.3741 10.0229 43 21.897 43ZM25.9098 11.1979H30.9799L33.5428 16.3113L30.8974 15.2646V23.5558C30.8974 30.3581 27.4511 33.5937 21.6762 33.5937C16.0953 33.5937 12.8141 30.5204 12.8141 23.4914V15.298L10.2511 16.3113L12.8141 11.1979H17.8351V23.8825C17.8351 27.6759 19.2805 29.6048 21.839 29.6048C24.4644 29.6048 25.9098 27.7737 25.9098 23.8825V11.1979Z" fill="url(#paint0_linear)"/>
<defs>
<linearGradient id="paint0_linear" x1="21.7367" y1="44.4916" x2="22.4722" y2="-2.34039" gradientUnits="userSpaceOnUse">
<stop stop-color="#361075"/>
<stop offset="0.3759" stop-color="#552498"/>
<stop offset="0.7758" stop-color="#7036B6"/>
<stop offset="1" stop-color="#7A3DC2"/>
</linearGradient>
</defs>
</svg>
