<svg width="34" height="34" viewBox="0 0 34 34" fill="none" xmlns="http://www.w3.org/2000/svg">
<path fill-rule="evenodd" clip-rule="evenodd" d="M17 34C26.3888 34 34 26.3888 34 17C34 7.61116 26.3888 0 17 0C7.61116 0 0 7.61116 0 17C0 26.3888 7.61116 34 17 34ZM20.1729 8.85416H24.1818L26.2083 12.8973L24.1165 12.0697V18.6255C24.1165 24.0041 21.3916 26.5625 16.8254 26.5625C12.4125 26.5625 9.81813 24.1324 9.81813 18.5746V12.0961L7.79163 12.8973L9.81813 8.85416H13.7882V18.8838C13.7882 21.8833 14.9311 23.4084 16.9541 23.4084C19.03 23.4084 20.1729 21.9606 20.1729 18.8838V8.85416Z" fill="url(#paint0_linear)"/>
<path d="M20.1729 8.35416H19.6729V8.85416V18.8838C19.6729 20.3744 19.3936 21.3815 18.9382 22.005C18.5034 22.6004 17.8622 22.9084 16.9541 22.9084C16.0855 22.9084 15.4542 22.5907 15.0198 21.9809C14.5664 21.3442 14.2882 20.3326 14.2882 18.8838V8.85416V8.35416H13.7882H9.81813H9.50945L9.37113 8.63011L7.34463 12.6733L6.75801 13.8436L7.97547 13.3623L9.31813 12.8314V18.5746C9.31813 21.4225 9.98215 23.5625 11.2993 24.9916C12.6233 26.4281 14.529 27.0625 16.8254 27.0625C19.2002 27.0625 21.1716 26.3953 22.545 24.9562C23.915 23.5207 24.6165 21.3938 24.6165 18.6255V12.8052L26.0243 13.3622L27.2421 13.8441L26.6553 12.6733L24.6288 8.63011L24.4905 8.35416H24.1818H20.1729ZM33.5 17C33.5 26.1127 26.1127 33.5 17 33.5C7.8873 33.5 0.5 26.1127 0.5 17C0.5 7.8873 7.8873 0.5 17 0.5C26.1127 0.5 33.5 7.8873 33.5 17Z" stroke="url(#paint1_linear)" stroke-opacity="0.4"/>
<defs>
<linearGradient id="paint0_linear" x1="0" y1="0" x2="36.6419" y2="3.13658" gradientUnits="userSpaceOnUse">
<stop stop-color="#800CE7"/>
<stop offset="1" stop-color="#CD2576"/>
</linearGradient>
<linearGradient id="paint1_linear" x1="17" y1="0" x2="17" y2="34" gradientUnits="userSpaceOnUse">
<stop stop-color="#F6D115"/>
<stop offset="1" stop-color="#F6D115" stop-opacity="0"/>
</linearGradient>
</defs>
</svg>
