<svg width="80" height="80" viewBox="0 0 80 80" fill="none" xmlns="http://www.w3.org/2000/svg">
<path fill-rule="evenodd" clip-rule="evenodd" d="M40 0C17.9086 0 0 17.9086 0 40C0 62.0914 17.9086 80 40 80C62.0914 80 80 62.0914 80 40C80 17.9086 62.0914 0 40 0ZM31.2053 18.7956C33.4804 18.6921 34.2077 18.6668 39.9985 18.6668C45.791 18.6668 46.5156 18.6921 48.7908 18.7956C51.0619 18.8996 52.6131 19.2592 53.9731 19.7868C55.3775 20.3312 56.5642 21.0601 57.7509 22.2468C58.9376 23.4326 59.6665 24.6228 60.2131 26.0259C60.7376 27.3824 61.0976 28.9326 61.2043 31.2038C61.3065 33.4794 61.3331 34.2065 61.3331 40.0003C61.3331 45.7942 61.3065 46.5195 61.2043 48.7951C61.0976 51.0653 60.7376 52.616 60.2131 53.9729C59.6665 55.3756 58.9376 56.5658 57.7509 57.7516C56.5655 58.9383 55.3771 59.669 53.9744 60.2139C52.6171 60.7414 51.065 61.101 48.7939 61.205C46.5183 61.3085 45.7934 61.3339 39.9991 61.3339C34.2058 61.3339 33.4791 61.3085 31.2035 61.205C28.9328 61.101 27.3821 60.7414 26.0248 60.2139C24.6225 59.669 23.4323 58.9383 22.247 57.7516C21.0607 56.5658 20.3318 55.3756 19.7865 53.9725C19.2594 52.616 18.8998 51.0658 18.7954 48.7946C18.6923 46.519 18.6665 45.7942 18.6665 40.0003C18.6665 34.2065 18.6932 33.4789 18.7949 31.2033C18.8972 28.9331 19.2572 27.3824 19.7861 26.0255C20.3327 24.6228 21.0616 23.4326 22.2483 22.2468C23.4341 21.0606 24.6243 20.3317 26.0274 19.7868C27.3839 19.2592 28.9341 18.8996 31.2053 18.7956ZM39.9985 18.6668C39.9996 18.6668 40.0007 18.6668 40.0018 18.6668H39.9951C39.9963 18.6668 39.9974 18.6668 39.9985 18.6668Z" fill="#FB5734"/>
<path fill-rule="evenodd" clip-rule="evenodd" d="M38.088 22.5113C38.4596 22.5107 38.8593 22.5109 39.2907 22.511L40.0018 22.5113C45.6978 22.5113 46.3729 22.5317 48.6223 22.6339C50.7023 22.729 51.8312 23.0766 52.5832 23.3686C53.5788 23.7553 54.2886 24.2175 55.0348 24.9642C55.7815 25.7108 56.2437 26.422 56.6313 27.4175C56.9233 28.1686 57.2713 29.2975 57.3659 31.3776C57.4682 33.6265 57.4904 34.302 57.4904 39.9954C57.4904 45.6888 57.4682 46.3644 57.3659 48.6133C57.2708 50.6933 56.9233 51.8222 56.6313 52.5734C56.2446 53.5689 55.7815 54.2778 55.0348 55.024C54.2881 55.7707 53.5792 56.2329 52.5832 56.6196C51.8321 56.913 50.7023 57.2596 48.6223 57.3547C46.3734 57.457 45.6978 57.4792 40.0018 57.4792C34.3053 57.4792 33.6301 57.457 31.3812 57.3547C29.3012 57.2587 28.1723 56.9112 27.4199 56.6192C26.4243 56.2325 25.7132 55.7703 24.9665 55.0236C24.2198 54.2769 23.7576 53.5676 23.37 52.5716C23.078 51.8205 22.73 50.6916 22.6354 48.6115C22.5331 46.3626 22.5127 45.6871 22.5127 39.9901C22.5127 34.2932 22.5331 33.6212 22.6354 31.3722C22.7305 29.2922 23.078 28.1633 23.37 27.4113C23.7567 26.4157 24.2198 25.7046 24.9665 24.9579C25.7132 24.2113 26.4243 23.749 27.4199 23.3615C28.1719 23.0681 29.3012 22.7215 31.3812 22.6259C33.3493 22.537 34.1119 22.5104 38.088 22.5059V22.5113ZM51.3896 26.0536C49.9762 26.0536 48.8295 27.1989 48.8295 28.6127C48.8295 30.0261 49.9762 31.1728 51.3896 31.1728C52.8029 31.1728 53.9496 30.0261 53.9496 28.6127C53.9496 27.1994 52.8029 26.0527 51.3896 26.0527V26.0536ZM29.0462 40.0003C29.0462 33.9501 33.9514 29.0448 40.0014 29.0446C46.0517 29.0446 50.9558 33.95 50.9558 40.0003C50.9558 46.0506 46.0522 50.9537 40.0019 50.9537C33.9516 50.9537 29.0462 46.0506 29.0462 40.0003Z" fill="#FB5734"/>
<path d="M40.0018 32.889C43.929 32.889 47.113 36.0726 47.113 40.0002C47.113 43.9274 43.929 47.1114 40.0018 47.1114C36.0742 47.1114 32.8906 43.9274 32.8906 40.0002C32.8906 36.0726 36.0742 32.889 40.0018 32.889Z" fill="#FB5734"/>
</svg>
