<svg width="24" height="25" viewBox="0 0 24 25" fill="none" xmlns="http://www.w3.org/2000/svg">
<path d="M10 13.3979C10.4295 13.972 10.9774 14.4471 11.6066 14.7909C12.2357 15.1346 12.9315 15.339 13.6467 15.3902C14.3618 15.4415 15.0796 15.3383 15.7513 15.0877C16.4231 14.8371 17.0331 14.445 17.54 13.9379L20.54 10.9379C21.4508 9.9949 21.9548 8.73189 21.9434 7.42091C21.932 6.10992 21.4061 4.85586 20.4791 3.92882C19.5521 3.00178 18.298 2.47594 16.987 2.46454C15.676 2.45315 14.413 2.95712 13.47 3.86791L11.75 5.57791" stroke="black" stroke-width="2" stroke-linecap="round" stroke-linejoin="round"/>
<path d="M14.0002 11.3981C13.5707 10.8239 13.0228 10.3489 12.3936 10.0051C11.7645 9.66136 11.0687 9.45694 10.3535 9.40572C9.63841 9.3545 8.92061 9.45769 8.24885 9.70827C7.5771 9.95886 6.96709 10.351 6.4602 10.8581L3.4602 13.8581C2.54941 14.8011 2.04544 16.0641 2.05683 17.3751C2.06822 18.686 2.59407 19.9401 3.52111 20.8671C4.44815 21.7942 5.70221 22.32 7.01319 22.3314C8.32418 22.3428 9.58719 21.8388 10.5302 20.9281L12.2402 19.2181" stroke="black" stroke-width="2" stroke-linecap="round" stroke-linejoin="round"/>
</svg>
