<svg width="12" height="12" viewBox="0 0 12 12" fill="none" xmlns="http://www.w3.org/2000/svg">
<path d="M2 6.5C2.89155 6.60595 3.72152 7.00877 4.35638 7.64362C4.99123 8.27848 5.39405 9.10845 5.5 10C5.94196 9.7452 6.31164 9.38191 6.57411 8.94447C6.83658 8.50702 6.98316 8.00987 7 7.5C7.83955 7.20466 8.57268 6.667 9.10667 5.95501C9.64067 5.24301 9.95155 4.38867 10 3.5C10 3.10218 9.84196 2.72064 9.56066 2.43934C9.27935 2.15804 8.89782 2 8.5 2C7.61133 2.04845 6.75698 2.35933 6.04499 2.89333C5.333 3.42732 4.79534 4.16044 4.5 5C3.99013 5.01684 3.49298 5.16342 3.05553 5.42589C2.61809 5.68835 2.2548 6.05804 2 6.5" stroke="#7036B6" stroke-width="0.75" stroke-linecap="round" stroke-linejoin="round"/>
<path d="M3.49975 7C2.97937 7.29379 2.55858 7.73629 2.29133 8.27079C2.02408 8.80529 1.92255 9.40742 1.99975 10C2.59233 10.0772 3.19447 9.97567 3.72896 9.70842C4.26346 9.44117 4.70597 9.02039 4.99975 8.5" stroke="#7036B6" stroke-width="0.75" stroke-linecap="round" stroke-linejoin="round"/>
<path d="M7.5 5C7.77614 5 8 4.77614 8 4.5C8 4.22386 7.77614 4 7.5 4C7.22386 4 7 4.22386 7 4.5C7 4.77614 7.22386 5 7.5 5Z" stroke="#7036B6" stroke-width="0.75" stroke-linecap="round" stroke-linejoin="round"/>
</svg>
