<svg width="6" height="23" viewBox="0 0 6 23" fill="none" xmlns="http://www.w3.org/2000/svg">
<path d="M3.125 12.5C3.81536 12.5 4.375 11.9404 4.375 11.25C4.375 10.5596 3.81536 10 3.125 10C2.43464 10 1.875 10.5596 1.875 11.25C1.875 11.9404 2.43464 12.5 3.125 12.5Z" stroke="white" stroke-width="2" stroke-linecap="round" stroke-linejoin="round"/>
<path d="M3.125 3.75C3.81536 3.75 4.375 3.19036 4.375 2.5C4.375 1.80964 3.81536 1.25 3.125 1.25C2.43464 1.25 1.875 1.80964 1.875 2.5C1.875 3.19036 2.43464 3.75 3.125 3.75Z" stroke="white" stroke-width="2" stroke-linecap="round" stroke-linejoin="round"/>
<path d="M3.125 21.25C3.81536 21.25 4.375 20.6904 4.375 20C4.375 19.3096 3.81536 18.75 3.125 18.75C2.43464 18.75 1.875 19.3096 1.875 20C1.875 20.6904 2.43464 21.25 3.125 21.25Z" stroke="white" stroke-width="2" stroke-linecap="round" stroke-linejoin="round"/>
</svg>
