<svg width="25" height="25" viewBox="0 0 25 25" fill="none" xmlns="http://www.w3.org/2000/svg">
<path d="M18.499 8.25C18.499 6.6587 17.8669 5.13258 16.7417 4.00736C15.6164 2.88214 14.0903 2.25 12.499 2.25C10.9077 2.25 9.3816 2.88214 8.25638 4.00736C7.13116 5.13258 6.49902 6.6587 6.49902 8.25C6.49902 15.25 3.49902 17.25 3.49902 17.25H21.499C21.499 17.25 18.499 15.25 18.499 8.25Z" stroke="black" stroke-opacity="0.8" stroke-width="2" stroke-linecap="round" stroke-linejoin="round"/>
<path d="M14.2286 21.25C14.0527 21.5531 13.8004 21.8047 13.4968 21.9795C13.1932 22.1544 12.8489 22.2465 12.4986 22.2465C12.1482 22.2465 11.8039 22.1544 11.5003 21.9795C11.1967 21.8047 10.9444 21.5531 10.7686 21.25" stroke="black" stroke-opacity="0.8" stroke-width="2" stroke-linecap="round" stroke-linejoin="round"/>
</svg>
