<svg width="41" height="41" viewBox="0 0 41 41" fill="none" xmlns="http://www.w3.org/2000/svg">
<path d="M38.9274 32.0807C38.9274 32.9648 38.5762 33.8126 37.9511 34.4378C37.326 35.0629 36.4781 35.4141 35.5941 35.4141H5.59408C4.71002 35.4141 3.86217 35.0629 3.23705 34.4378C2.61193 33.8126 2.26074 32.9648 2.26074 32.0807V13.7474C2.26074 12.8633 2.61193 12.0155 3.23705 11.3904C3.86217 10.7653 4.71002 10.4141 5.59408 10.4141H12.2607L15.5941 5.41406H25.5941L28.9274 10.4141H35.5941C36.4781 10.4141 37.326 10.7653 37.9511 11.3904C38.5762 12.0155 38.9274 12.8633 38.9274 13.7474V32.0807Z" stroke="white" stroke-opacity="0.6" stroke-width="2" stroke-linecap="round" stroke-linejoin="round"/>
<path d="M20.5934 28.7474C24.2753 28.7474 27.2601 25.7626 27.2601 22.0807C27.2601 18.3988 24.2753 15.4141 20.5934 15.4141C16.9115 15.4141 13.9268 18.3988 13.9268 22.0807C13.9268 25.7626 16.9115 28.7474 20.5934 28.7474Z" stroke="white" stroke-opacity="0.6" stroke-width="2" stroke-linecap="round" stroke-linejoin="round"/>
</svg>
