<svg width="41" height="41" viewBox="0 0 41 41" fill="none" xmlns="http://www.w3.org/2000/svg">
<g clip-path="url(#clip0)">
<path d="M38.4274 32.0807C38.4274 32.9648 38.0762 33.8126 37.4511 34.4378C36.826 35.0629 35.9781 35.4141 35.0941 35.4141H5.09408C4.21002 35.4141 3.36217 35.0629 2.73705 34.4378C2.11193 33.8126 1.76074 32.9648 1.76074 32.0807V13.7474C1.76074 12.8633 2.11193 12.0155 2.73705 11.3904C3.36217 10.7653 4.21002 10.4141 5.09408 10.4141H11.7607L15.0941 5.41406H25.0941L28.4274 10.4141H35.0941C35.9781 10.4141 36.826 10.7653 37.4511 11.3904C38.0762 12.0155 38.4274 12.8633 38.4274 13.7474V32.0807Z" stroke="white" stroke-width="2" stroke-linecap="round" stroke-linejoin="round"/>
<path d="M20.0934 28.7474C23.7753 28.7474 26.7601 25.7626 26.7601 22.0807C26.7601 18.3988 23.7753 15.4141 20.0934 15.4141C16.4115 15.4141 13.4268 18.3988 13.4268 22.0807C13.4268 25.7626 16.4115 28.7474 20.0934 28.7474Z" stroke="white" stroke-width="2" stroke-linecap="round" stroke-linejoin="round"/>
</g>
<defs>
<clipPath id="clip0">
<rect width="40" height="40" fill="white" transform="translate(0.09375 0.414062)"/>
</clipPath>
</defs>
</svg>
