<svg width="41" height="40" viewBox="0 0 41 40" fill="none" xmlns="http://www.w3.org/2000/svg">
<path fill-rule="evenodd" clip-rule="evenodd" d="M38.5098 31.6667C38.5098 32.5507 38.1586 33.3986 37.5335 34.0237C36.9084 34.6488 36.0605 35 35.1765 35H5.17647C4.29242 35 3.44457 34.6488 2.81945 34.0237C2.19433 33.3986 1.84314 32.5507 1.84314 31.6667V13.3333C1.84314 12.4493 2.19433 11.6014 2.81945 10.9763C3.44457 10.3512 4.29242 10 5.17647 10H11.8431L15.1765 5H25.1765L28.5098 10H35.1765C36.0605 10 36.9084 10.3512 37.5335 10.9763C38.1586 11.6014 38.5098 12.4493 38.5098 13.3333V31.6667ZM18.9997 17.584C19.7459 17.4151 20.5227 17.4381 21.2576 17.6507C21.9926 17.8632 22.6617 18.2585 23.2025 18.7997C23.2084 18.8056 23.2144 18.8114 23.2205 18.8171L24.4963 20.0159H22.9631C22.5213 20.0159 22.1631 20.374 22.1631 20.8159C22.1631 21.2577 22.5213 21.6159 22.9631 21.6159H26.5159C26.9577 21.6159 27.3159 21.2577 27.3159 20.8159V17.2631C27.3159 16.8213 26.9577 16.4631 26.5159 16.4631C26.074 16.4631 25.7159 16.8213 25.7159 17.2631V18.9663L24.325 17.6594C23.5947 16.9318 22.6926 16.4002 21.7022 16.1137C20.7076 15.826 19.6564 15.7949 18.6466 16.0234C17.6368 16.2519 16.7013 16.7325 15.9274 17.4203C15.1536 18.1081 14.5666 18.9807 14.2212 19.9568C14.0738 20.3733 14.292 20.8304 14.7085 20.9778C15.125 21.1252 15.5821 20.907 15.7295 20.4905C15.9847 19.7693 16.4185 19.1244 16.9904 18.6162C17.5622 18.1079 18.2535 17.7528 18.9997 17.584ZM19.0954 26.9177C19.8304 27.1303 20.6072 27.1533 21.3534 26.9844C22.0996 26.8156 22.7909 26.4605 23.3627 25.9522C23.9345 25.4439 24.3683 24.7991 24.6235 24.0779C24.7709 23.6614 25.2281 23.4432 25.6446 23.5906C26.0611 23.738 26.2793 24.1951 26.1319 24.6116C25.7865 25.5877 25.1995 26.4603 24.4256 27.1481C23.6518 27.8359 22.7163 28.3165 21.7065 28.545C20.6967 28.7735 19.6454 28.7424 18.6508 28.4547C17.6604 28.1682 16.7583 27.6366 16.028 26.909L14.6372 25.6021V27.3053C14.6372 27.7471 14.279 28.1053 13.8372 28.1053C13.3953 28.1053 13.0372 27.7471 13.0372 27.3053V23.7525C13.0372 23.3107 13.3953 22.9525 13.8372 22.9525H17.3899C17.8317 22.9525 18.1899 23.3107 18.1899 23.7525C18.1899 24.1944 17.8317 24.5525 17.3899 24.5525H15.8568L17.1325 25.7513C17.1386 25.757 17.1446 25.7628 17.1505 25.7687C17.6914 26.3099 18.3605 26.7051 19.0954 26.9177Z" fill="white"/>
</svg>
