<svg width="21" height="21" viewBox="0 0 21 21" fill="none" xmlns="http://www.w3.org/2000/svg">
<path d="M19.5884 10C19.5918 11.3199 19.2834 12.6219 18.6884 13.8C17.9828 15.2118 16.8981 16.3992 15.5558 17.2293C14.2135 18.0594 12.6666 18.4994 11.0884 18.5C9.76851 18.5035 8.46649 18.1951 7.28838 17.6L1.58838 19.5L3.48838 13.8C2.89331 12.6219 2.58494 11.3199 2.58838 10C2.58899 8.42179 3.02899 6.87488 3.8591 5.53258C4.68921 4.19028 5.87663 3.1056 7.28838 2.40003C8.46649 1.80496 9.76851 1.49659 11.0884 1.50003H11.5884C13.6727 1.61502 15.6414 2.49479 17.1175 3.97089C18.5936 5.44699 19.4734 7.41568 19.5884 9.50003V10Z" stroke="black" stroke-opacity="0.6" stroke-width="1.6" stroke-linecap="round" stroke-linejoin="round"/>
</svg>
