<svg width="31" height="31" viewBox="0 0 31 31" fill="none" xmlns="http://www.w3.org/2000/svg">
<path d="M25.498 12H14.248C12.8673 12 11.748 13.1193 11.748 14.5V25.75C11.748 27.1307 12.8673 28.25 14.248 28.25H25.498C26.8788 28.25 27.998 27.1307 27.998 25.75V14.5C27.998 13.1193 26.8788 12 25.498 12Z" stroke="black" stroke-width="2" stroke-linecap="round" stroke-linejoin="round"/>
<path d="M6.74805 19.5H5.49805C4.83501 19.5 4.19912 19.2366 3.73028 18.7678C3.26144 18.2989 2.99805 17.663 2.99805 17V5.75C2.99805 5.08696 3.26144 4.45107 3.73028 3.98223C4.19912 3.51339 4.83501 3.25 5.49805 3.25H16.748C17.4111 3.25 18.047 3.51339 18.5158 3.98223C18.9847 4.45107 19.248 5.08696 19.248 5.75V7" stroke="black" stroke-width="2" stroke-linecap="round" stroke-linejoin="round"/>
</svg>
