<svg width="24" height="25" viewBox="0 0 24 25" fill="none" xmlns="http://www.w3.org/2000/svg">
<g clip-path="url(#clip0)">
<path d="M10.999 4.0376H3.99902C3.46859 4.0376 2.95988 4.24831 2.58481 4.62338C2.20974 4.99846 1.99902 5.50716 1.99902 6.0376V20.0376C1.99902 20.568 2.20974 21.0767 2.58481 21.4518C2.95988 21.8269 3.46859 22.0376 3.99902 22.0376H17.999C18.5295 22.0376 19.0382 21.8269 19.4132 21.4518C19.7883 21.0767 19.999 20.568 19.999 20.0376V13.0376" stroke="black" stroke-width="2" stroke-linecap="round" stroke-linejoin="round"/>
<path d="M18.499 2.53782C18.8968 2.14 19.4364 1.9165 19.999 1.9165C20.5616 1.9165 21.1012 2.14 21.499 2.53782C21.8968 2.93565 22.1203 3.47522 22.1203 4.03782C22.1203 4.60043 21.8968 5.14 21.499 5.53782L11.999 15.0378L7.99902 16.0378L8.99902 12.0378L18.499 2.53782Z" stroke="black" stroke-width="2" stroke-linecap="round" stroke-linejoin="round"/>
</g>
<defs>
<clipPath id="clip0">
<rect width="24" height="24" fill="white" transform="translate(-0.000976562 0.0375977)"/>
</clipPath>
</defs>
</svg>
