<svg width="41" height="41" viewBox="0 0 41 41" fill="none" xmlns="http://www.w3.org/2000/svg">
<g clip-path="url(#clip0)">
<path d="M40.998 20.75C40.998 9.70312 32.0449 0.75 20.998 0.75C9.95117 0.75 0.998047 9.70312 0.998047 20.75C0.998047 30.7344 8.31055 39.0078 17.873 40.5078V26.5312H12.7949V20.75H17.873V16.3438C17.873 11.332 20.8574 8.5625 25.4277 8.5625C27.6152 8.5625 29.9043 8.95312 29.9043 8.95312V13.875H27.3809C24.8965 13.875 24.123 15.418 24.123 17V20.75H29.6699L28.7832 26.5312H24.123V40.5078C33.6855 39.0078 40.998 30.7344 40.998 20.75Z" fill="#1877F2"/>
<path d="M28.7832 26.5312L29.6699 20.75H24.123V17C24.123 15.418 24.8965 13.875 27.3809 13.875H29.9043V8.95312C29.9043 8.95312 27.6152 8.5625 25.4277 8.5625C20.8574 8.5625 17.873 11.332 17.873 16.3438V20.75H12.7949V26.5312H17.873V40.5078C18.8926 40.668 19.9355 40.75 20.998 40.75C22.0605 40.75 23.1035 40.668 24.123 40.5078V26.5312H28.7832Z" fill="white"/>
</g>
<defs>
<clipPath id="clip0">
<rect width="40" height="40" fill="white" transform="translate(0.998047 0.75)"/>
</clipPath>
</defs>
</svg>
