<svg width="43" height="43" viewBox="0 0 43 43" fill="none" xmlns="http://www.w3.org/2000/svg">
<path fill-rule="evenodd" clip-rule="evenodd" d="M0.226074 21.8281C0.226074 10.2301 9.62809 0.828125 21.2261 0.828125C32.8241 0.828125 42.2261 10.2301 42.2261 21.8281C42.2261 33.4261 32.8241 42.8281 21.2261 42.8281C9.62809 42.8281 0.226074 33.4261 0.226074 21.8281ZM21.1958 16.2467C22.9021 16.2467 24.0531 16.9849 24.7094 17.6016L27.2739 15.0941C25.6988 13.628 23.6492 12.7281 21.1958 12.7281C17.6418 12.7281 14.5724 14.7705 13.0782 17.7432L16.0162 20.0283C16.7533 17.8342 18.7928 16.2467 21.1958 16.2467ZM29.7273 20.1699C29.8586 20.7361 29.9192 21.2821 29.9192 22.0303C29.9192 24.8008 28.9297 27.1364 27.2133 28.7239L24.3459 26.4994C25.5575 25.6501 26.1027 24.3862 26.2036 23.547H21.1958V20.1699H29.7273ZM16.0264 23.6279C15.8345 23.0617 15.7235 22.455 15.7235 21.8281C15.7235 21.2013 15.8345 20.5946 16.0163 20.0284L13.0782 17.7433C12.4623 18.9768 12.1089 20.362 12.1089 21.8281C12.1089 23.2943 12.4623 24.6795 13.0782 25.913L16.0261 23.6281L13.0883 25.913C14.5825 28.8857 17.6418 30.9281 21.1958 30.9281C23.6492 30.9281 25.7089 30.1193 27.2133 28.7239L24.3459 26.4995C23.5785 27.0354 22.5487 27.4095 21.1958 27.4095C18.7928 27.4095 16.7533 25.822 16.0264 23.6279Z" fill="#FB5734"/>
</svg>
