<svg width="23" height="21" viewBox="0 0 23 21" fill="none" xmlns="http://www.w3.org/2000/svg">
<path d="M20.4283 3.10999C19.9175 2.599 19.3111 2.19364 18.6436 1.91708C17.9762 1.64052 17.2607 1.49817 16.5383 1.49817C15.8158 1.49817 15.1004 1.64052 14.4329 1.91708C13.7654 2.19364 13.159 2.599 12.6483 3.10999L11.5883 4.16999L10.5283 3.10999C9.49656 2.0783 8.09729 1.4987 6.63825 1.4987C5.17922 1.4987 3.77995 2.0783 2.74825 3.10999C1.71656 4.14169 1.13696 5.54096 1.13696 6.99999C1.13696 8.45903 1.71656 9.8583 2.74825 10.89L3.80825 11.95L11.5883 19.73L19.3683 11.95L20.4283 10.89C20.9393 10.3792 21.3446 9.77281 21.6212 9.10535C21.8977 8.43789 22.0401 7.72248 22.0401 6.99999C22.0401 6.27751 21.8977 5.5621 21.6212 4.89464C21.3446 4.22718 20.9393 3.62075 20.4283 3.10999V3.10999Z" stroke="black" stroke-opacity="0.6" stroke-width="1.6" stroke-linecap="round" stroke-linejoin="round"/>
</svg>
