<svg width="30" height="31" viewBox="0 0 30 31" fill="none" xmlns="http://www.w3.org/2000/svg">
<g clip-path="url(#clip0)">
<path d="M26.0506 5.90504C25.4122 5.2663 24.6542 4.7596 23.8198 4.4139C22.9855 4.06819 22.0912 3.89026 21.1881 3.89026C20.285 3.89026 19.3908 4.06819 18.5564 4.4139C17.7221 4.7596 16.9641 5.2663 16.3256 5.90504L15.0006 7.23004L13.6756 5.90504C12.386 4.61543 10.6369 3.89093 8.81314 3.89093C6.98935 3.89093 5.24025 4.61543 3.95064 5.90504C2.66102 7.19466 1.93652 8.94375 1.93652 10.7675C1.93652 12.5913 2.66102 14.3404 3.95064 15.63L5.27564 16.955L15.0006 26.68L24.7256 16.955L26.0506 15.63C26.6894 14.9916 27.1961 14.2336 27.5418 13.3992C27.8875 12.5649 28.0654 11.6706 28.0654 10.7675C28.0654 9.86443 27.8875 8.97017 27.5418 8.13585C27.1961 7.30152 26.6894 6.54349 26.0506 5.90504V5.90504Z" stroke="white" stroke-width="2" stroke-linecap="round" stroke-linejoin="round"/>
</g>
<defs>
<clipPath id="clip0">
<rect width="30" height="30" fill="white" transform="translate(0.000488281 0.142578)"/>
</clipPath>
</defs>
</svg>
