<svg width="30" height="30" viewBox="0 0 30 30" fill="none" xmlns="http://www.w3.org/2000/svg">
<path d="M26.05 5.76246C25.4116 5.12372 24.6535 4.61702 23.8192 4.27132C22.9849 3.92561 22.0906 3.74768 21.1875 3.74768C20.2844 3.74768 19.3902 3.92561 18.5558 4.27132C17.7215 4.61702 16.9635 5.12372 16.325 5.76246L15 7.08746L13.675 5.76246C12.3854 4.47285 10.6363 3.74835 8.81253 3.74835C6.98874 3.74835 5.23964 4.47285 3.95003 5.76246C2.66041 7.05208 1.93591 8.80117 1.93591 10.625C1.93591 12.4488 2.66041 14.1978 3.95003 15.4875L5.27503 16.8125L15 26.5375L24.725 16.8125L26.05 15.4875C26.6888 14.849 27.1955 14.091 27.5412 13.2567C27.8869 12.4223 28.0648 11.5281 28.0648 10.625C28.0648 9.72185 27.8869 8.82759 27.5412 7.99327C27.1955 7.15894 26.6888 6.40091 26.05 5.76246V5.76246Z" stroke="black" stroke-width="2" stroke-linecap="round" stroke-linejoin="round"/>
</svg>
