<svg width="31" height="30" viewBox="0 0 31 30" fill="none" xmlns="http://www.w3.org/2000/svg">
<path d="M28.4628 14.9999H20.9628L18.4628 18.7499H13.4628L10.9628 14.9999H3.46277" stroke="black" stroke-width="2" stroke-linecap="round" stroke-linejoin="round"/>
<path d="M7.77527 6.38744L3.46277 14.9999V22.4999C3.46277 23.163 3.72616 23.7989 4.195 24.2677C4.66384 24.7365 5.29973 24.9999 5.96277 24.9999H25.9628C26.6258 24.9999 27.2617 24.7365 27.7305 24.2677C28.1994 23.7989 28.4628 23.163 28.4628 22.4999V14.9999L24.1503 6.38744C23.9433 5.97092 23.6242 5.6204 23.229 5.37529C22.8337 5.13017 22.3779 5.00019 21.9128 4.99994H10.0128C9.54766 5.00019 9.09185 5.13017 8.69657 5.37529C8.3013 5.6204 7.98224 5.97092 7.77527 6.38744V6.38744Z" stroke="black" stroke-width="2" stroke-linecap="round" stroke-linejoin="round"/>
</svg>
