<svg width="22" height="19" viewBox="0 0 22 19" fill="none" xmlns="http://www.w3.org/2000/svg">
<path d="M19.4283 2.10999C18.9175 1.599 18.3111 1.19364 17.6436 0.917079C16.9762 0.640516 16.2607 0.498169 15.5383 0.498169C14.8158 0.498169 14.1004 0.640516 13.4329 0.917079C12.7654 1.19364 12.159 1.599 11.6483 2.10999L10.5883 3.16999L9.52825 2.10999C8.49656 1.0783 7.09729 0.498704 5.63825 0.498704C4.17922 0.498704 2.77995 1.0783 1.74825 2.10999C0.716562 3.14169 0.136963 4.54096 0.136963 5.99999C0.136963 7.45903 0.716562 8.8583 1.74825 9.89L2.80825 10.95L10.5883 18.73L18.3683 10.95L19.4283 9.89C19.9393 9.37924 20.3446 8.77281 20.6212 8.10535C20.8977 7.43789 21.0401 6.72248 21.0401 5.99999C21.0401 5.27751 20.8977 4.5621 20.6212 3.89464C20.3446 3.22718 19.9393 2.62075 19.4283 2.10999V2.10999Z" fill="#FB5734"/>
</svg>
