<svg width="24" height="25" viewBox="0 0 24 25" fill="none" xmlns="http://www.w3.org/2000/svg">
<path d="M9.99902 13.0376C10.4285 13.6117 10.9764 14.0867 11.6056 14.4305C12.2348 14.7743 12.9305 14.9787 13.6457 15.0299C14.3608 15.0811 15.0786 14.9779 15.7504 14.7273C16.4221 14.4768 17.0321 14.0846 17.539 13.5776L20.539 10.5776C21.4498 9.63455 21.9538 8.37154 21.9424 7.06056C21.931 5.74957 21.4052 4.49551 20.4781 3.56847C19.5511 2.64143 18.297 2.11559 16.986 2.10419C15.675 2.0928 14.412 2.59677 13.469 3.50756L11.749 5.21756" stroke="black" stroke-width="2" stroke-linecap="round" stroke-linejoin="round"/>
<path d="M13.9992 11.0378C13.5698 10.4637 13.0219 9.98864 12.3927 9.64488C11.7635 9.30113 11.0677 9.09671 10.3526 9.04549C9.63743 8.99427 8.91964 9.09746 8.24788 9.34804C7.57612 9.59863 6.96611 9.99075 6.45922 10.4978L3.45922 13.4978C2.54843 14.4408 2.04446 15.7038 2.05585 17.0148C2.06725 18.3258 2.59309 19.5799 3.52013 20.5069C4.44717 21.434 5.70123 21.9598 7.01222 21.9712C8.3232 21.9826 9.58621 21.4786 10.5292 20.5678L12.2392 18.8578" stroke="black" stroke-width="2" stroke-linecap="round" stroke-linejoin="round"/>
</svg>
