<svg width="25" height="25" viewBox="0 0 25 25" fill="none" xmlns="http://www.w3.org/2000/svg">
<path d="M19.2559 3.12988H5.25586C4.15129 3.12988 3.25586 4.02531 3.25586 5.12988V19.1299C3.25586 20.2345 4.15129 21.1299 5.25586 21.1299H19.2559C20.3604 21.1299 21.2559 20.2345 21.2559 19.1299V5.12988C21.2559 4.02531 20.3604 3.12988 19.2559 3.12988Z" stroke="black" stroke-opacity="0.6" stroke-linecap="round" stroke-linejoin="round"/>
<path d="M8.75586 10.1299C9.58429 10.1299 10.2559 9.45831 10.2559 8.62988C10.2559 7.80146 9.58429 7.12988 8.75586 7.12988C7.92743 7.12988 7.25586 7.80146 7.25586 8.62988C7.25586 9.45831 7.92743 10.1299 8.75586 10.1299Z" stroke="black" stroke-opacity="0.6" stroke-linecap="round" stroke-linejoin="round"/>
<path d="M21.2559 15.1299L16.2559 10.1299L5.25586 21.1299" stroke="#5C5C5C" stroke-linecap="round" stroke-linejoin="round"/>
</svg>
