<svg width="27" height="29" viewBox="0 0 27 29" fill="none" xmlns="http://www.w3.org/2000/svg">
<path d="M25.5557 13.9425L14.0682 25.43C12.6609 26.8373 10.7522 27.6279 8.76198 27.6279C6.77175 27.6279 4.86304 26.8373 3.45573 25.43C2.04843 24.0227 1.25781 22.114 1.25781 20.1238C1.25781 18.1335 2.04843 16.2248 3.45573 14.8175L14.9432 3.33003C15.8814 2.39182 17.1539 1.86475 18.4807 1.86475C19.8076 1.86475 21.08 2.39182 22.0182 3.33003C22.9564 4.26823 23.4835 5.54071 23.4835 6.86753C23.4835 8.19435 22.9564 9.46682 22.0182 10.405L10.5182 21.8925C10.0491 22.3616 9.41289 22.6252 8.74948 22.6252C8.08607 22.6252 7.44984 22.3616 6.98073 21.8925C6.51163 21.4234 6.24809 20.7872 6.24809 20.1238C6.24809 19.4604 6.51163 18.8241 6.98073 18.355L17.5932 7.75503" stroke="#FB5734" stroke-width="2" stroke-linecap="round" stroke-linejoin="round"/>
</svg>
