<svg width="25" height="25" viewBox="0 0 25 25" fill="none" xmlns="http://www.w3.org/2000/svg">
<path d="M8.99805 3.75H5.99805C5.46761 3.75 4.95891 3.96071 4.58383 4.33579C4.20876 4.71086 3.99805 5.21957 3.99805 5.75V8.75M21.998 8.75V5.75C21.998 5.21957 21.7873 4.71086 21.4123 4.33579C21.0372 3.96071 20.5285 3.75 19.998 3.75H16.998M16.998 21.75H19.998C20.5285 21.75 21.0372 21.5393 21.4123 21.1642C21.7873 20.7891 21.998 20.2804 21.998 19.75V16.75M3.99805 16.75V19.75C3.99805 20.2804 4.20876 20.7891 4.58383 21.1642C4.95891 21.5393 5.46761 21.75 5.99805 21.75H8.99805" stroke="black" stroke-opacity="0.6" stroke-width="2" stroke-linecap="round" stroke-linejoin="round"/>
</svg>
