<svg width="25" height="25" viewBox="0 0 25 25" fill="none" xmlns="http://www.w3.org/2000/svg">
<g clip-path="url(#clip0)">
<path d="M14.8461 14.3797C14.5714 14.6744 14.2402 14.9108 13.8722 15.0748C13.5042 15.2388 13.107 15.3269 12.7042 15.334C12.3014 15.3411 11.9012 15.267 11.5277 15.1162C11.1541 14.9653 10.8148 14.7407 10.5299 14.4558C10.245 14.1709 10.0205 13.8316 9.86958 13.4581C9.7187 13.0845 9.6446 12.6844 9.65171 12.2816C9.65881 11.8788 9.74698 11.4815 9.91095 11.1135C10.0749 10.7455 10.3113 10.4143 10.6061 10.1397M18.6661 18.1997C16.9567 19.5027 14.8752 20.2245 12.7261 20.2597C5.72607 20.2597 1.72607 12.2597 1.72607 12.2597C2.96996 9.94156 4.69521 7.91628 6.78607 6.31967L18.6661 18.1997ZM10.6261 4.49967C11.3144 4.33855 12.0191 4.25801 12.7261 4.25967C19.7261 4.25967 23.7261 12.2597 23.7261 12.2597C23.1191 13.3953 22.3951 14.4644 21.5661 15.4497L10.6261 4.49967Z" stroke="black" stroke-width="1.6" stroke-linecap="round" stroke-linejoin="round"/>
<path d="M1.72607 1.25964L23.7261 23.2596" stroke="black" stroke-width="1.6" stroke-linecap="round" stroke-linejoin="round"/>
</g>
<defs>
<clipPath id="clip0">
<rect width="24" height="24" fill="white" transform="translate(0.726074 0.259644)"/>
</clipPath>
</defs>
</svg>
