<svg width="27" height="29" viewBox="0 0 27 29" fill="none" xmlns="http://www.w3.org/2000/svg">
<path d="M25.7628 13.8125L14.2753 25.3C12.868 26.7073 10.9592 27.4979 8.96901 27.4979C6.97879 27.4979 5.07007 26.7073 3.66276 25.3C2.25546 23.8927 1.46484 21.984 1.46484 19.9938C1.46484 18.0035 2.25546 16.0948 3.66276 14.6875L15.1503 3.20002C16.0885 2.26182 17.3609 1.73474 18.6878 1.73474C20.0146 1.73474 21.2871 2.26182 22.2253 3.20002C23.1635 4.13822 23.6905 5.4107 23.6905 6.73752C23.6905 8.06434 23.1635 9.33682 22.2253 10.275L10.7253 21.7625C10.2562 22.2316 9.61992 22.4952 8.95651 22.4952C8.2931 22.4952 7.65687 22.2316 7.18776 21.7625C6.71866 21.2934 6.45512 20.6572 6.45512 19.9938C6.45512 19.3304 6.71866 18.6941 7.18776 18.225L17.8003 7.62502" stroke="white" stroke-width="2" stroke-linecap="round" stroke-linejoin="round"/>
</svg>
