<svg width="41" height="41" viewBox="0 0 41 41" fill="none" xmlns="http://www.w3.org/2000/svg">
<path d="M20.998 40.75C32.0437 40.75 40.998 31.7957 40.998 20.75C40.998 9.70431 32.0437 0.75 20.998 0.75C9.95235 0.75 0.998047 9.70431 0.998047 20.75C0.998047 31.7957 9.95235 40.75 20.998 40.75Z" fill="#37AEE2"/>
<path d="M8.44673 21.7284C10.7847 20.4406 13.3946 19.3658 15.8331 18.2854C20.0282 16.5159 24.2401 14.7771 28.4944 13.1583C29.3221 12.8825 30.8094 12.6128 30.9552 13.8394C30.8753 15.5757 30.5468 17.3019 30.3215 19.028C29.7497 22.824 29.0886 26.607 28.444 30.3905C28.2219 31.6508 26.6432 32.3032 25.633 31.4967C23.2054 29.8569 20.759 28.233 18.3624 26.5552C17.5773 25.7575 18.3053 24.6119 19.0065 24.0422C21.006 22.0717 23.1265 20.3975 25.0215 18.3252C25.5326 17.0908 24.0223 18.1311 23.5241 18.4499C20.7868 20.3362 18.1164 22.3377 15.2304 23.9956C13.7563 24.807 12.0381 24.1136 10.5646 23.6608C9.24345 23.1137 7.30743 22.5626 8.4466 21.7286L8.44673 21.7284Z" fill="white"/>
</svg>
