<svg width="30" height="30" viewBox="0 0 30 30" fill="none" xmlns="http://www.w3.org/2000/svg">
<path d="M15 6.82837V9.61063M15 23.1717V21.1287V20.3848" stroke="black" stroke-width="2" stroke-linecap="round" stroke-linejoin="round"/>
<path d="M18.7144 9.79993H13.1428C12.4532 9.79993 11.7919 10.0739 11.3043 10.5615C10.8167 11.0491 10.5427 11.7104 10.5427 12.4C10.5427 13.0896 10.8167 13.7509 11.3043 14.2385C11.7919 14.7261 12.4532 15.0001 13.1428 15.0001H16.8572C17.5468 15.0001 18.2081 15.274 18.6957 15.7616C19.1833 16.2492 19.4572 16.9106 19.4572 17.6001C19.4572 18.2897 19.1833 18.9511 18.6957 19.4387C18.2081 19.9263 17.5468 20.2002 16.8572 20.2002H10.5427" stroke="black" stroke-width="2" stroke-linecap="round" stroke-linejoin="round"/>
<circle cx="15" cy="15" r="12.5" stroke="black" stroke-width="2"/>
</svg>
