<svg width="30" height="31" viewBox="0 0 30 31" fill="none" xmlns="http://www.w3.org/2000/svg">
<path d="M15.001 6.97095V9.75321M15.001 23.3142V21.2713V20.5274" stroke="white" stroke-width="2" stroke-linecap="round" stroke-linejoin="round"/>
<path d="M18.7151 9.9425H13.1435C12.4539 9.9425 11.7926 10.2164 11.305 10.704C10.8174 11.1917 10.5435 11.853 10.5435 12.5426C10.5435 13.2322 10.8174 13.8935 11.305 14.3811C11.7926 14.8687 12.4539 15.1426 13.1435 15.1426H16.8579C17.5475 15.1426 18.2088 15.4166 18.6964 15.9042C19.184 16.3918 19.458 17.0531 19.458 17.7427C19.458 18.4323 19.184 19.0936 18.6964 19.5812C18.2088 20.0688 17.5475 20.3428 16.8579 20.3428H10.5435" stroke="white" stroke-width="2" stroke-linecap="round" stroke-linejoin="round"/>
<circle cx="15.0005" cy="15.1426" r="12.5" stroke="white" stroke-width="2"/>
</svg>
