<svg width="28" height="28" viewBox="0 0 28 28" fill="none" xmlns="http://www.w3.org/2000/svg">
<path d="M14 7.19824V9.51418M14 20.8023V19.1018V18.4825" stroke="#FB5734" stroke-width="2" stroke-linecap="round" stroke-linejoin="round"/>
<path d="M17.0911 9.67139H12.4533C11.8793 9.67139 11.3288 9.89941 10.923 10.3053C10.5171 10.7112 10.2891 11.2617 10.2891 11.8357C10.2891 12.4097 10.5171 12.9602 10.923 13.366C11.3288 13.7719 11.8793 13.9999 12.4533 13.9999H15.5452C16.1192 13.9999 16.6697 14.228 17.0755 14.6338C17.4814 15.0397 17.7094 15.5902 17.7094 16.1642C17.7094 16.7382 17.4814 17.2887 17.0755 17.6946C16.6697 18.1005 16.1192 18.3285 15.5452 18.3285H10.2891" stroke="#FB5734" stroke-width="2" stroke-linecap="round" stroke-linejoin="round"/>
<circle cx="14" cy="14" r="12.5" stroke="#FB5734" stroke-width="2"/>
</svg>
