<svg width="31" height="31" viewBox="0 0 31 31" fill="none" xmlns="http://www.w3.org/2000/svg">
<g clip-path="url(#clip0)">
<path d="M21.416 26.3799V23.8799C21.416 22.5538 20.8892 21.282 19.9515 20.3443C19.0139 19.4067 17.7421 18.8799 16.416 18.8799H6.41602C5.08993 18.8799 3.81816 19.4067 2.88048 20.3443C1.9428 21.282 1.41602 22.5538 1.41602 23.8799V26.3799" stroke="black" stroke-width="3" stroke-linecap="round" stroke-linejoin="round"/>
<path d="M11.416 13.8799C14.1774 13.8799 16.416 11.6413 16.416 8.87988C16.416 6.11846 14.1774 3.87988 11.416 3.87988C8.65459 3.87988 6.41602 6.11846 6.41602 8.87988C6.41602 11.6413 8.65459 13.8799 11.416 13.8799Z" stroke="black" stroke-width="3" stroke-linecap="round" stroke-linejoin="round"/>
<path d="M28.916 26.3797V23.8797C28.9152 22.7719 28.5465 21.6957 27.8677 20.8201C27.189 19.9446 26.2387 19.3192 25.166 19.0422" stroke="black" stroke-width="3" stroke-linecap="round" stroke-linejoin="round"/>
<path d="M20.166 4.04224C21.2415 4.31761 22.1948 4.94311 22.8756 5.82012C23.5563 6.69714 23.9258 7.77577 23.9258 8.88599C23.9258 9.9962 23.5563 11.0748 22.8756 11.9518C22.1948 12.8289 21.2415 13.4544 20.166 13.7297" stroke="black" stroke-width="3" stroke-linecap="round" stroke-linejoin="round"/>
</g>
<defs>
<clipPath id="clip0">
<rect width="30" height="30" fill="white" transform="translate(0.166016 0.129883)"/>
</clipPath>
</defs>
</svg>
