<svg width="41" height="41" viewBox="0 0 41 41" fill="none" xmlns="http://www.w3.org/2000/svg">
<path d="M20.998 0.75C32.0437 0.75 40.998 9.70431 40.998 20.75C40.998 31.7957 32.0437 40.75 20.998 40.75C9.95235 40.75 0.998047 31.7957 0.998047 20.75C0.998047 9.70431 9.95235 0.75 20.998 0.75Z" fill="#7F4DA0"/>
<path d="M26.3268 18.2154C26.2295 17.4251 25.9866 16.8046 25.5553 16.255C24.9951 15.5473 24.2793 15.1235 23.2196 14.8721C22.529 14.7045 22.25 14.7237 22.0002 14.9519C21.7675 15.1657 21.7221 15.5942 21.8999 15.8717C22.0249 16.0731 22.1692 16.1453 22.5704 16.224C23.1046 16.3223 23.4738 16.4499 23.8097 16.6419C24.5226 17.0536 24.8545 17.6977 24.8901 18.7405C24.9067 19.2301 24.949 19.3806 25.12 19.5543C25.437 19.8717 26.001 19.81 26.2403 19.4301C26.3281 19.2869 26.3415 19.2246 26.3508 18.8921C26.3569 18.6863 26.3481 18.3799 26.3268 18.2154Z" fill="white"/>
<path d="M29.1185 19.1066C28.9777 16.6855 28.0307 14.7375 26.3359 13.367C25.381 12.5969 24.2267 12.0674 22.9615 11.8099C22.498 11.7177 21.6447 11.6431 21.4983 11.6858C21.3602 11.7253 21.1648 11.8749 21.0777 12.0102C20.9856 12.1569 20.9649 12.4844 21.0434 12.6738C21.1702 12.9905 21.4061 13.1024 22.0667 13.1602C23.0852 13.2493 24.1356 13.6071 24.9293 14.1368C25.8354 14.7399 26.5556 15.5648 27.0216 16.5342C27.4242 17.367 27.6719 18.5673 27.665 19.6421C27.6627 20.0308 27.7227 20.2504 27.8791 20.4109C28.115 20.6577 28.459 20.7116 28.7626 20.5477C29.099 20.3708 29.1777 20.0602 29.1185 19.1066Z" fill="white"/>
<path d="M32.2085 28.4302C32.1611 28.2918 32.0506 28.0784 31.9716 27.9558C31.4743 27.2048 28.802 25.1135 27.4678 24.4295C26.706 24.0382 26.1416 23.9078 25.7232 24.0303C25.2732 24.1568 25.0363 24.3663 24.2824 25.3032C23.9785 25.6788 23.6667 26.0306 23.5838 26.0859C23.3785 26.2283 22.9759 26.343 22.6917 26.343C22.0325 26.3389 20.8365 25.912 19.9168 25.3506C19.2023 24.9158 18.2866 24.1371 17.584 23.3662C16.755 22.4609 16.1906 21.6623 15.7445 20.761C15.1683 19.6027 15.0222 18.8951 15.263 18.3772C15.3222 18.2467 15.4012 18.1084 15.4366 18.0649C15.4722 18.0254 15.8432 17.721 16.2537 17.3889C17.059 16.7485 17.1892 16.6022 17.3392 16.1634C17.5287 15.606 17.4774 15.0367 17.1853 14.4635C16.9603 14.0286 16.3722 13.0799 15.9459 12.4671C15.3814 11.6607 13.9762 9.93712 13.6959 9.70381C13.1907 9.29272 12.5434 9.22152 11.8288 9.4983C11.075 9.79084 9.66184 10.9294 9.0579 11.724C8.51318 12.4434 8.30404 12.9534 8.27243 13.6254C8.24482 14.1789 8.29217 14.4081 8.58427 15.1158C10.8697 20.6661 14.2801 25.0976 18.9655 28.6161C21.4128 30.4543 23.9508 31.8537 26.5837 32.8104C28.1191 33.3678 28.7862 33.3955 29.5717 32.9369C29.9033 32.7392 30.7243 31.8972 31.1822 31.2845C31.9401 30.2645 32.2203 29.7941 32.2992 29.4185C32.3545 29.1616 32.3111 28.7149 32.2085 28.4302Z" fill="white"/>
<path d="M31.9613 19.6623C31.9107 18.2927 31.6801 17.1694 31.1993 15.9169C30.7246 14.6849 30.2442 13.881 29.3369 12.7937C28.4791 11.7741 27.8128 11.192 26.7561 10.544C25.2819 9.64119 23.4877 9.04374 21.477 8.79247C20.7913 8.70466 20.6362 8.71093 20.4258 8.85129C20.0182 9.1172 20.0236 9.78043 20.4326 10.0423C20.5679 10.1257 20.6881 10.156 21.2365 10.2278C22.0785 10.3412 22.6199 10.448 23.2624 10.6233C25.7815 11.3119 27.7188 12.7195 29.0139 14.8091C30.0978 16.5508 30.5477 18.2926 30.4838 20.5171C30.4616 21.2692 30.4777 21.4015 30.5927 21.5822C30.8129 21.919 31.3934 21.9856 31.6913 21.7061C31.8766 21.5358 31.9116 21.4079 31.9481 20.7643C31.9655 20.4285 31.9693 19.9328 31.9613 19.6623Z" fill="white"/>
</svg>
