<svg width="38" height="11" viewBox="0 0 38 11" fill="none" xmlns="http://www.w3.org/2000/svg">
<path d="M4.35352 10.75L0.771484 0.660156H2.94531L5.61133 8.81543L8.19531 0.660156H10.3691L6.81445 10.75H4.35352ZM11.7227 10.75V9.23242H13.5615V2.1709H11.7227V0.660156H17.4102V2.1709H15.585V9.23242H17.4102V10.75H11.7227ZM23.0977 10.9277C22.4733 10.9277 21.8125 10.8457 21.1152 10.6816C20.418 10.5176 19.8164 10.2943 19.3105 10.0117L20.0078 8.52832C21.0195 9.06608 22.0654 9.33496 23.1455 9.33496C23.6878 9.33496 24.0706 9.22331 24.2939 9C24.5173 8.77669 24.6289 8.44173 24.6289 7.99512C24.6289 7.90853 24.6198 7.77865 24.6016 7.60547C24.5605 7.19531 24.1048 6.86035 23.2344 6.60059L21.5117 6.09473C20.9831 5.93978 20.5592 5.71875 20.2402 5.43164C19.9212 5.13997 19.7048 4.82324 19.5908 4.48145C19.4769 4.13509 19.4199 3.73177 19.4199 3.27148C19.4199 2.34635 19.748 1.65137 20.4043 1.18652C21.0651 0.72168 21.9059 0.489258 22.9268 0.489258C24.2757 0.489258 25.4014 0.751302 26.3037 1.27539L25.7295 2.7041C24.8499 2.28939 23.9749 2.08203 23.1045 2.08203C22.0107 2.08203 21.4479 2.41699 21.416 3.08691C21.416 3.12337 21.416 3.15755 21.416 3.18945C21.416 3.53125 21.5003 3.79785 21.6689 3.98926C21.8421 4.18066 22.193 4.35612 22.7217 4.51562L24.4375 5.02832C25.1302 5.23796 25.6429 5.56836 25.9756 6.01953C26.3128 6.4707 26.4814 7.11328 26.4814 7.94727C26.4814 8.77669 26.2148 9.48079 25.6816 10.0596C25.153 10.6383 24.2917 10.9277 23.0977 10.9277ZM30.8428 7.47559H34.001L32.4492 2.1709L30.8428 7.47559ZM27.7324 10.75L31.0547 0.660156H33.748L37.1113 10.75H34.958L34.3906 8.8291H30.4395L29.8516 10.75H27.7324Z" fill="white"/>
</svg>
