<svg width="5" height="17" viewBox="0 0 5 17" fill="none" xmlns="http://www.w3.org/2000/svg">
<path d="M2.58838 9.40472C3.14066 9.40472 3.58838 8.99968 3.58838 8.50003C3.58838 8.00038 3.14066 7.59534 2.58838 7.59534C2.03609 7.59534 1.58838 8.00038 1.58838 8.50003C1.58838 8.99968 2.03609 9.40472 2.58838 9.40472Z" stroke="white" stroke-opacity="1" stroke-width="2" stroke-linecap="round" stroke-linejoin="round"/>
<path d="M2.58838 3.07193C3.14066 3.07193 3.58838 2.66688 3.58838 2.16722C3.58838 1.66756 3.14066 1.26251 2.58838 1.26251C2.03609 1.26251 1.58838 1.66756 1.58838 2.16722C1.58838 2.66688 2.03609 3.07193 2.58838 3.07193Z" stroke="white" stroke-opacity="1" stroke-width="2" stroke-linecap="round" stroke-linejoin="round"/>
<path d="M2.58838 15.7376C3.14066 15.7376 3.58838 15.3325 3.58838 14.8329C3.58838 14.3333 3.14066 13.9282 2.58838 13.9282C2.03609 13.9282 1.58838 14.3333 1.58838 14.8329C1.58838 15.3325 2.03609 15.7376 2.58838 15.7376Z" stroke="white" stroke-opacity="1" stroke-width="2" stroke-linecap="round" stroke-linejoin="round"/>
</svg>
