<svg width="41" height="40" viewBox="0 0 41 40" fill="none" xmlns="http://www.w3.org/2000/svg">
<path d="M30.3003 13.3335C30.3003 10.6813 29.2467 8.13779 27.3714 6.26243C25.496 4.38706 22.9525 3.3335 20.3003 3.3335C17.6481 3.3335 15.1046 4.38706 13.2292 6.26243C11.3539 8.13779 10.3003 10.6813 10.3003 13.3335C10.3003 25.0002 5.30029 28.3335 5.30029 28.3335H35.3003C35.3003 28.3335 30.3003 25.0002 30.3003 13.3335Z" stroke="black" stroke-opacity="0.5" stroke-width="4" stroke-linecap="round" stroke-linejoin="round"/>
<path d="M23.1837 35C22.8906 35.5051 22.4701 35.9244 21.964 36.2159C21.458 36.5073 20.8843 36.6608 20.3003 36.6608C19.7164 36.6608 19.1426 36.5073 18.6366 36.2159C18.1306 35.9244 17.71 35.5051 17.417 35" stroke="black" stroke-opacity="0.5" stroke-width="4" stroke-linecap="round" stroke-linejoin="round"/>
</svg>
