<svg width="80" height="80" viewBox="0 0 80 80" fill="none" xmlns="http://www.w3.org/2000/svg">
<path fill-rule="evenodd" clip-rule="evenodd" d="M0 40C0 17.9086 17.9086 0 40 0C62.0914 0 80 17.9086 80 40C80 62.0914 62.0914 80 40 80C17.9086 80 0 62.0914 0 40ZM39.9422 29.3688C43.1924 29.3688 45.3847 30.7747 46.6348 31.9496L51.5196 27.1733C48.5195 24.3807 44.6155 22.6666 39.9422 22.6666C33.1728 22.6666 27.3264 26.557 24.4801 32.2192L24.4802 32.2193C23.3071 34.5689 22.6339 37.2074 22.6339 40C22.6339 42.7926 23.3071 45.4311 24.4802 47.7807L30.0958 43.4282C29.7304 42.3496 29.5188 41.1941 29.5188 40C29.5188 38.8059 29.7304 37.6504 30.0765 36.5719L30.0765 36.5718C31.4804 32.3925 35.3651 29.3688 39.9422 29.3688ZM56.1929 36.8414C56.4429 37.9199 56.5583 38.9599 56.5583 40.3851C56.5583 45.6622 54.6736 50.111 51.4043 53.1348L51.4043 53.1349C48.5389 55.7926 44.6156 57.3334 39.9424 57.3334C33.1729 57.3334 27.3458 53.443 24.4995 47.7808L30.0959 43.4282C31.4805 47.6075 35.3653 50.6312 39.9424 50.6312C42.5194 50.6312 44.481 49.9186 45.9426 48.8978L45.9425 48.8977C48.2503 47.2799 49.2888 44.8725 49.4811 43.274H39.9423V36.8414H56.1929Z" fill="#FB5734"/>
</svg>
