<svg width="45" height="45" viewBox="0 0 45 45" fill="none" xmlns="http://www.w3.org/2000/svg">
<path fill-rule="evenodd" clip-rule="evenodd" d="M22.5 45C34.9264 45 45 34.9264 45 22.5C45 10.0736 34.9264 0 22.5 0C10.0736 0 0 10.0736 0 22.5C0 34.9264 10.0736 45 22.5 45ZM26.6994 11.7187H32.0053L34.6874 17.07L31.9189 15.9746V24.6515C31.9189 31.7701 28.3124 35.1562 22.2689 35.1562C16.4284 35.1562 12.9946 31.9399 12.9946 24.584V16.0095L10.3124 17.07L12.9946 11.7187H18.2491V24.9933C18.2491 28.9631 19.7618 30.9818 22.4393 30.9818C25.1868 30.9818 26.6994 29.0655 26.6994 24.9933V11.7187Z" fill="#F8F5FB"/>
</svg>
