<svg width="18" height="18" viewBox="0 0 18 18" fill="none" xmlns="http://www.w3.org/2000/svg">
<path fill-rule="evenodd" clip-rule="evenodd" d="M9 18C13.9706 18 18 13.9706 18 9C18 4.02944 13.9706 0 9 0C4.02944 0 0 4.02944 0 9C0 13.9706 4.02944 18 9 18ZM10.6798 4.68749H12.8021L13.875 6.82799L12.7676 6.38984V9.86058C12.7676 12.7081 11.325 14.0625 8.90754 14.0625C6.57135 14.0625 5.19783 12.776 5.19783 9.83361V6.4038L4.12498 6.82799L5.19783 4.68749H7.29966V9.99733C7.29966 11.5853 7.90471 12.3927 8.9757 12.3927C10.0747 12.3927 10.6798 11.6262 10.6798 9.99733V4.68749Z" fill="#2B1A4F"/>
</svg>
