<svg width="34" height="34" viewBox="0 0 34 34" fill="none" xmlns="http://www.w3.org/2000/svg">
<path d="M34 17C34 26.3889 26.3889 34.0002 17.0001 34.0002C7.61116 34.0002 0 26.3889 0 17C0 7.61116 7.61116 0 17.0001 0C26.3888 0 34 7.61116 34 17Z" fill="white"/>
<path d="M15.2567 16.7023V13.7282H11.2229V11.1213H22.4949V13.7649H18.4611V16.7023H15.2567Z" fill="#00A478"/>
<path fill-rule="evenodd" clip-rule="evenodd" d="M9.48877 17.0327C9.48877 16.0414 12.7309 15.2336 16.7646 15.2336C20.7984 15.2336 24.0405 16.0414 24.0405 17.0327C24.0405 18.0241 20.7984 18.8319 16.7646 18.8319C12.7309 18.8319 9.48877 18.0241 9.48877 17.0327ZM23.4373 17.0327C23.1735 16.6656 20.9869 15.5273 16.7646 15.5273C12.5424 15.5273 10.3558 16.6288 10.092 17.0327C10.3558 17.3999 12.5424 17.9507 16.7646 17.9507C21.0246 17.9507 23.1735 17.3999 23.4373 17.0327Z" fill="#00A478"/>
<path d="M18.4611 17.6202V15.564C17.9333 15.5273 17.3678 15.4906 16.8023 15.4906C16.2746 15.4906 15.7845 15.4906 15.2944 15.5273V17.5835C15.7468 17.5835 16.2746 17.6202 16.8023 17.6202C17.3678 17.6569 17.9333 17.6569 18.4611 17.6202Z" fill="#00A478"/>
<path d="M16.7646 18.8319C16.2369 18.8319 15.7468 18.8319 15.2567 18.7952V24.266H18.4234V18.7584C17.8956 18.7952 17.3301 18.8319 16.7646 18.8319Z" fill="#00A478"/>
</svg>
