<svg width="30" height="30" viewBox="0 0 30 30" fill="none" xmlns="http://www.w3.org/2000/svg">
<circle cx="15" cy="15" r="15" fill="#00A478"/>
<path d="M12.9456 13.9441V10.7765H8.78756V8H20.4067V10.8156H16.2487V13.9441H12.9456Z" fill="white"/>
<path fill-rule="evenodd" clip-rule="evenodd" d="M7 14.2961C7 13.2402 10.342 12.3799 14.5 12.3799C18.658 12.3799 22 13.2402 22 14.2961C22 15.352 18.658 16.2123 14.5 16.2123C10.342 16.2123 7 15.352 7 14.2961ZM21.3782 14.2961C21.1062 13.905 18.8523 12.6927 14.5 12.6927C10.1477 12.6927 7.89378 13.8659 7.62176 14.2961C7.89378 14.6872 10.1477 15.2737 14.5 15.2737C18.8912 15.2737 21.1062 14.6872 21.3782 14.2961Z" fill="white"/>
<path d="M16.2487 14.9218V12.7318C15.7047 12.6927 15.1218 12.6536 14.5389 12.6536C13.9948 12.6536 13.4508 12.6536 12.9456 12.6927V14.9218C13.4119 14.9218 13.9948 14.9218 14.5389 14.9218C15.1094 14.9218 15.7047 14.9609 16.2487 14.9218Z" fill="white"/>
<path d="M14.5 16.2123C13.956 16.2123 13.4508 16.2123 12.9456 16.1732V22H16.2098V16.1341C15.6658 16.1732 15.0829 16.2123 14.5 16.2123Z" fill="white"/>
</svg>
