<svg width="64" height="64" viewBox="0 0 64 64" fill="none" xmlns="http://www.w3.org/2000/svg">
<rect width="64" height="64" rx="10" fill="#2B1A4F"/>
<path d="M32.211 12.3281L31.9629 13.1712V37.6357L32.211 37.8833L43.5671 31.1707L32.211 12.3281Z" fill="white"/>
<path d="M32.211 12.3281L20.8557 31.1707L32.211 37.8833L32.2118 26.009L32.211 12.3281Z" fill="white"/>
<path d="M32.2119 41.5779L32.0721 41.7483V50.463L32.2119 50.8713L43.5749 34.8687L32.2119 41.5779Z" fill="white"/>
<path d="M32.2119 50.8713V41.5779L20.8557 34.8687L32.2119 50.8713Z" fill="white"/>
<path d="M32.211 37.8833L43.5671 31.1707L32.2118 26.009L32.211 37.8833Z" fill="white"/>
<path d="M20.8557 31.1707L32.211 37.8833L32.2118 26.009L20.8557 31.1707Z" fill="white"/>
</svg>
