<svg width="16" height="16" viewBox="0 0 16 16" fill="none" xmlns="http://www.w3.org/2000/svg">
<path d="M2.66675 8.66699C3.85548 8.80826 4.96211 9.34535 5.80859 10.1918C6.65506 11.0383 7.19214 12.1449 7.33341 13.3337C7.92269 12.9939 8.41561 12.5095 8.76557 11.9263C9.11552 11.343 9.31096 10.6801 9.33341 10.0003C10.4528 9.60653 11.4303 8.88965 12.1423 7.94033C12.8543 6.99101 13.2688 5.85188 13.3334 4.66699C13.3334 4.13656 13.1227 3.62785 12.7476 3.25278C12.3726 2.87771 11.8638 2.66699 11.3334 2.66699C10.1485 2.7316 9.00939 3.1461 8.06007 3.85809C7.11075 4.57008 6.39387 5.54759 6.00008 6.66699C5.32026 6.68944 4.65739 6.88488 4.07412 7.23484C3.49086 7.5848 3.00647 8.07771 2.66675 8.66699" stroke="#FAE9F1" stroke-linecap="round" stroke-linejoin="round"/>
<path d="M4.66683 9.33301C3.97298 9.72472 3.41193 10.3147 3.0556 11.0274C2.69926 11.7401 2.56389 12.5429 2.66682 13.333C3.45693 13.4359 4.25978 13.3006 4.97244 12.9442C5.6851 12.5879 6.27511 12.0269 6.66683 11.333" stroke="#FAE9F1" stroke-linecap="round" stroke-linejoin="round"/>
<path d="M9.99992 6.66634C10.3681 6.66634 10.6666 6.36786 10.6666 5.99967C10.6666 5.63148 10.3681 5.33301 9.99992 5.33301C9.63173 5.33301 9.33325 5.63148 9.33325 5.99967C9.33325 6.36786 9.63173 6.66634 9.99992 6.66634Z" stroke="#FAE9F1" stroke-linecap="round" stroke-linejoin="round"/>
</svg>
