<svg width="112" height="89" viewBox="0 0 112 89" fill="none" xmlns="http://www.w3.org/2000/svg">
<g opacity="0.1">
<path opacity="0.1" d="M57.4129 59.7541L72.9805 67.5091L71.9194 50.142L56.3395 42.3799L41.833 51.992L42.9038 69.3565L57.4129 59.7541Z" fill="#42E8E0"/>
<path opacity="0.1" d="M56.3395 42.3799L71.9194 50.142L72.9805 67.5091L57.4129 59.7541L56.3395 42.3799Z" fill="#42E8E0"/>
<path opacity="0.1" d="M41.833 51.992L56.3395 42.3799L57.4129 59.7541L42.9038 69.3565L41.833 51.992Z" fill="#2FD3C7"/>
<path opacity="0.1" d="M57.4129 59.7539L72.9805 67.509L58.4836 77.1184L42.9038 69.3563L57.4129 59.7539Z" fill="#42E8E0"/>
<path opacity="0.1" d="M57.4129 59.7537L72.9805 67.5088L72.9338 66.7552L57.3636 58.9905L42.8571 68.6026L42.9038 69.3562L57.4129 59.7537Z" fill="white"/>
</g>
<path opacity="0.4" d="M62.1841 67.2445C52.5924 69.8145 42.4366 70.2789 33.9961 68.0267C25.7965 65.8238 20.4274 61.4339 18.8745 55.6383C17.3215 49.8428 19.7531 43.2695 25.7449 37.233C38.1463 24.9031 61.8694 18.5466 78.7259 23.0368C86.9043 25.2764 92.3172 29.6753 93.8882 35.5385C95.4593 41.4016 92.9477 47.8307 86.9771 53.8305C80.8031 59.9986 71.7757 64.6744 62.1841 67.2445ZM50.633 24.1352C41.0896 26.6923 32.1279 31.3816 25.9868 37.4788C20.0586 43.405 17.6436 49.8083 19.1836 55.5555C20.7235 61.3028 25.9933 65.5537 34.0878 67.7122C50.8232 72.2142 74.4884 65.8731 86.7597 53.5988C92.6712 47.6874 95.0958 41.2816 93.5792 35.6213C92.0625 29.9609 86.7494 25.587 78.662 23.4162C70.2723 21.1608 60.1667 21.5806 50.633 24.1352Z" fill="#42E8E0"/>
<path opacity="0.2" d="M63.7422 73.0591C51.5715 76.3202 38.6742 76.9083 27.9772 74.0392C17.5823 71.2547 10.7617 65.6593 8.79984 58.3376C6.83799 51.0159 9.93418 42.7116 17.5442 35.1027C33.2126 19.4335 63.3688 11.3532 84.7629 17.0915C95.1571 19.8347 101.965 25.423 103.953 32.8413C105.941 40.2596 102.829 48.4648 95.2185 56.0736L95.114 55.9153L95.2249 56.0202C87.3666 63.8612 75.9128 69.798 63.7422 73.0591ZM49.0775 18.3297C36.9551 21.5779 25.5541 27.4798 17.7453 35.2351C10.2293 42.8085 7.15227 50.9524 9.10894 58.2548C11.0656 65.5572 17.7791 70.9845 28.0618 73.7369C49.358 79.4187 79.379 71.3746 94.9812 55.806C102.51 48.2809 105.587 40.137 103.654 32.9216C101.72 25.7061 94.9733 20.1532 84.6905 17.4007C74.0243 14.4923 61.1902 15.0841 49.0775 18.3297Z" fill="#42E8E0"/>
<path d="M60.9573 62.6656C53.3941 64.6921 45.3857 65.0573 38.7385 63.277C32.269 61.5423 28.0238 58.0625 26.7918 53.4647C25.5598 48.8669 27.4868 43.7333 32.2317 38.9937C41.9649 29.263 60.6942 24.2445 73.9887 27.8049C80.4581 29.5396 84.706 33.0291 85.9354 37.6172C87.1648 42.2054 85.2308 47.3513 80.4954 52.0883C75.6392 56.9923 68.5205 60.639 60.9573 62.6656ZM51.8598 28.7133C44.3545 30.7243 37.2919 34.387 32.4588 39.2227C27.8174 43.9242 25.9412 48.8993 27.1524 53.4199C28.3637 57.9404 32.5148 61.3005 38.8747 63.0128C52.0693 66.5482 70.6634 61.566 80.3226 51.9069L80.4361 52.0214L80.3226 51.9069C84.9768 47.2537 86.8788 42.2199 85.6779 37.738C84.477 33.2561 80.3155 29.8574 73.9582 28.1547C67.3129 26.343 59.3361 26.71 51.8598 28.7133Z" fill="#42E8E0"/>
<path d="M50.381 29.9167L44.2394 13.6417L33.2179 27.103L39.3594 43.378L56.5348 46.1988L67.5563 32.7375L50.381 29.9167Z" fill="#42E8E0"/>
<path d="M39.3594 43.378L33.2179 27.103L44.2394 13.6417L50.381 29.9167L39.3594 43.378Z" fill="#3FE6E4"/>
<path d="M39.3594 43.378L33.2179 27.103L44.2394 13.6417L50.381 29.9167L39.3594 43.378Z" fill="url(#paint0_linear)"/>
<path d="M56.5348 46.1992L39.3594 43.3784L50.381 29.9171L67.5563 32.7379L56.5348 46.1992Z" fill="#3FE6E4"/>
<path d="M56.5348 46.1992L39.3594 43.3784L50.381 29.9171L67.5563 32.7379L56.5348 46.1992Z" fill="url(#paint1_linear)"/>
<path d="M50.381 29.9176L44.2394 13.6426L61.4025 16.4563L67.5563 32.7384L50.381 29.9176Z" fill="#3FE6E4"/>
<path d="M50.381 29.9176L44.2394 13.6426L61.4025 16.4563L67.5563 32.7384L50.381 29.9176Z" fill="url(#paint2_linear)"/>
<path d="M50.381 29.9173L44.2394 13.6423L43.7544 14.2277L49.9056 30.5002L67.0687 33.3139L67.5563 32.7381L50.381 29.9173Z" fill="white"/>
<defs>
<linearGradient id="paint0_linear" x1="34.1445" y1="30.561" x2="49.4544" y2="26.4587" gradientUnits="userSpaceOnUse">
<stop stop-color="#46BEEC"/>
<stop offset="0.0625" stop-color="#46BEEC"/>
<stop offset="0.125" stop-color="#46BFEC"/>
<stop offset="0.1875" stop-color="#46BFEC"/>
<stop offset="0.25" stop-color="#46C1EC"/>
<stop offset="0.3125" stop-color="#45C2EB"/>
<stop offset="0.375" stop-color="#45C4EB"/>
<stop offset="0.4375" stop-color="#45C6EB"/>
<stop offset="0.5" stop-color="#44C8EB"/>
<stop offset="0.5625" stop-color="#44CBEA"/>
<stop offset="0.625" stop-color="#43CEEA"/>
<stop offset="0.6875" stop-color="#43D2E9"/>
<stop offset="0.75" stop-color="#42D6E9"/>
<stop offset="0.8125" stop-color="#41DAE8"/>
<stop offset="0.875" stop-color="#41DEE7"/>
<stop offset="0.9375" stop-color="#40E3E7"/>
<stop offset="1" stop-color="#3FE6E4"/>
</linearGradient>
<linearGradient id="paint1_linear" x1="38.9738" y1="41.9391" x2="67.9419" y2="34.1772" gradientUnits="userSpaceOnUse">
<stop stop-color="#46BEEC"/>
<stop offset="0.0625" stop-color="#46BEEC"/>
<stop offset="0.125" stop-color="#46BFEC"/>
<stop offset="0.1875" stop-color="#46BFEC"/>
<stop offset="0.25" stop-color="#46C1EC"/>
<stop offset="0.3125" stop-color="#45C2EB"/>
<stop offset="0.375" stop-color="#45C4EB"/>
<stop offset="0.4375" stop-color="#45C6EB"/>
<stop offset="0.5" stop-color="#44C8EB"/>
<stop offset="0.5625" stop-color="#44CBEA"/>
<stop offset="0.625" stop-color="#43CEEA"/>
<stop offset="0.6875" stop-color="#43D2E9"/>
<stop offset="0.75" stop-color="#42D6E9"/>
<stop offset="0.8125" stop-color="#41DAE8"/>
<stop offset="0.875" stop-color="#41DEE7"/>
<stop offset="0.9375" stop-color="#40E3E7"/>
<stop offset="1" stop-color="#3FE6E4"/>
</linearGradient>
<linearGradient id="paint2_linear" x1="47.4074" y1="25.4655" x2="64.3883" y2="20.9155" gradientUnits="userSpaceOnUse">
<stop stop-color="#46BEEC"/>
<stop offset="0.0625" stop-color="#46BEEC"/>
<stop offset="0.125" stop-color="#46BFEC"/>
<stop offset="0.1875" stop-color="#46BFEC"/>
<stop offset="0.25" stop-color="#46C1EC"/>
<stop offset="0.3125" stop-color="#45C2EB"/>
<stop offset="0.375" stop-color="#45C4EB"/>
<stop offset="0.4375" stop-color="#45C6EB"/>
<stop offset="0.5" stop-color="#44C8EB"/>
<stop offset="0.5625" stop-color="#44CBEA"/>
<stop offset="0.625" stop-color="#43CEEA"/>
<stop offset="0.6875" stop-color="#43D2E9"/>
<stop offset="0.75" stop-color="#42D6E9"/>
<stop offset="0.8125" stop-color="#41DAE8"/>
<stop offset="0.875" stop-color="#41DEE7"/>
<stop offset="0.9375" stop-color="#40E3E7"/>
<stop offset="1" stop-color="#3FE6E4"/>
</linearGradient>
</defs>
</svg>
