<svg width="307" height="232" viewBox="0 0 307 232" fill="none" xmlns="http://www.w3.org/2000/svg">
<path style="mix-blend-mode:multiply" opacity="0.5" d="M175.31 196.61C247.987 177.137 299.969 135.47 291.415 103.545C282.861 71.6194 217.01 61.5256 144.333 80.9994C71.6554 100.473 19.6736 142.14 28.228 174.065C36.7823 205.99 102.633 216.084 175.31 196.61Z" fill="url(#paint0_radial)"/>
<path d="M259.015 74.6365L256.562 75.2936C248.588 63.7155 234.41 54.3998 214.534 49.0584C160.72 34.6009 85.3809 54.6495 46.2467 93.8275C31.6308 108.519 24.126 123.706 23.2766 137.802L21.1398 138.375L26.7427 159.285C31.7901 176.574 48.0836 190.802 74.7113 197.936C128.521 212.38 203.864 192.345 243.013 153.163C262.484 133.646 269.316 113.083 264.618 95.547L259.015 74.6365Z" fill="url(#paint1_linear)"/>
<g style="mix-blend-mode:multiply">
<path d="M241.874 148.913C202.739 188.091 127.382 208.129 73.5722 193.686C46.9291 186.494 30.6356 172.266 25.6025 154.974L26.757 159.282C31.79 176.574 48.0836 190.803 74.7112 197.937C128.521 212.38 203.864 192.346 243.013 153.164C262.484 133.647 269.316 113.083 264.618 95.5475L263.463 91.2391C268.162 108.775 261.329 129.338 241.874 148.913Z" fill="#BCBCD6"/>
</g>
<path d="M259.508 76.4464C249.537 38.4149 188.125 21.5648 122.339 38.8106C56.5532 56.0563 11.306 100.867 21.2766 138.899C31.2472 176.93 92.6598 193.78 158.446 176.535C224.231 159.289 269.478 114.478 259.508 76.4464Z" fill="url(#paint2_linear)"/>
<path d="M253.104 78.5881C243.679 42.6378 185.628 26.7095 123.443 43.0112C61.2581 59.313 18.4878 101.672 27.9128 137.622C37.3378 173.572 95.389 189.501 157.574 173.199C219.758 156.897 262.529 114.538 253.104 78.5881Z" fill="url(#paint3_linear)"/>
<path d="M49.1944 86.3576C86.1933 49.3064 157.417 30.3606 208.285 44.0373C233.117 50.6674 248.41 63.8558 253.4 79.8972C249.456 62.4826 233.787 48.1175 207.484 41.0501C156.62 27.3878 85.3967 46.3336 48.394 83.3704C29.4136 102.31 23.1752 122.452 28.417 139.319C24.7419 123.079 31.3305 104.243 49.1944 86.3576Z" fill="url(#paint4_linear)"/>
<path style="mix-blend-mode:color-dodge" d="M48.4939 83.7432C85.4966 46.7064 156.72 27.7606 207.584 41.4229C233.323 48.395 248.846 62.3839 253.197 79.1967C249.253 61.7821 233.584 47.417 207.285 40.364C156.447 26.7409 85.2234 45.6867 48.2245 82.7379C29.2442 101.677 23.0058 121.82 28.2438 138.672C23.6029 121.983 29.9588 102.394 48.4939 83.7432Z" fill="url(#paint5_radial)"/>
<path style="mix-blend-mode:color-dodge" d="M237.64 133.115C198.51 172.307 123.152 192.345 69.3391 177.888C42.6845 170.653 26.2818 156.361 21.3156 138.975C25.8551 156.891 42.3781 171.69 69.6431 179.022C123.456 193.48 198.796 173.431 237.944 134.249C257.664 114.512 264.42 93.6609 259.376 75.9868C263.781 93.401 256.909 113.76 237.64 133.115Z" fill="url(#paint6_radial)"/>
<path d="M239.841 83.4714C231.555 51.8659 180.523 37.8619 125.857 52.1924C71.1919 66.523 33.5938 103.762 41.8797 135.367C50.1656 166.972 101.198 180.977 155.863 166.646C210.529 152.315 248.127 115.077 239.841 83.4714Z" fill="url(#paint7_linear)"/>
<path d="M129.312 108.867L52.4517 100.923C50.379 104.056 48.6308 107.392 47.2343 110.88L129.312 108.867Z" fill="url(#paint8_radial)"/>
<path d="M134.428 104.094L96.5992 65.0812C92.0057 67.2923 87.5322 69.7447 83.1971 72.4281L134.428 104.094Z" fill="url(#paint9_radial)"/>
<path d="M128.802 110.174L47.1172 111.189C45.8644 114.385 44.9931 117.718 44.5214 121.12L128.802 110.174Z" fill="url(#paint10_radial)"/>
<path d="M132.728 105.15L82.7193 72.7103C78.6288 75.2637 74.6979 78.0647 70.9486 81.0978L132.728 105.15Z" fill="url(#paint11_radial)"/>
<path d="M130.162 107.562L60.3327 90.8697C57.5115 93.9026 54.9461 97.1642 52.6626 100.621L130.162 107.562Z" fill="url(#paint12_linear)"/>
<path d="M131.442 115.669L61.3236 156.176C64.5057 158.395 67.8898 160.307 71.4309 161.888L131.442 115.669Z" fill="url(#paint13_radial)"/>
<path d="M130.261 114.816L53.1749 148.939C55.5163 151.581 58.1554 153.942 61.0394 155.975L130.261 114.816Z" fill="url(#paint14_radial)"/>
<path d="M128.656 111.521L44.4979 121.434C44.0941 124.601 44.1261 127.809 44.5931 130.967L128.656 111.521Z" fill="url(#paint15_radial)"/>
<path d="M129.379 113.821L47.5675 140.576C48.999 143.522 50.8144 146.266 52.966 148.734L129.379 113.821Z" fill="url(#paint16_radial)"/>
<path d="M138.283 102.476L127.713 53.8508C122.474 55.1777 117.285 56.7526 112.22 58.5563L138.283 102.476Z" fill="url(#paint17_radial)"/>
<path d="M70.5215 81.3968C67.7959 83.6102 65.1832 85.9594 62.6933 88.4355C61.978 89.1505 61.2952 89.8722 60.6114 90.5326L131.318 106.313L70.5215 81.3968Z" fill="url(#paint18_radial)"/>
<path d="M132.909 116.323L71.7792 162.041C75.68 163.764 79.7083 165.18 83.8277 166.278L132.909 116.323Z" fill="url(#paint19_radial)"/>
<path d="M44.657 131.32C45.1525 134.431 46.0872 137.456 47.4332 140.304L128.831 112.691L44.657 131.32Z" fill="url(#paint20_radial)"/>
<path d="M140.37 101.948L144.055 50.5339C138.752 51.3389 133.458 52.4035 128.215 53.7161L140.37 101.948Z" fill="url(#paint21_radial)"/>
<path d="M142.66 116.404L146.188 166.855C151.492 165.772 156.771 164.419 162.017 162.829L142.66 116.404Z" fill="url(#paint22_radial)"/>
<path d="M142.461 101.665L160.304 48.9356C155.033 49.1797 149.777 49.6888 144.558 50.4609L142.461 101.665Z" fill="url(#paint23_radial)"/>
<path d="M144.505 101.549L175.995 49.0415C170.936 48.7238 165.864 48.675 160.8 48.8953L144.505 101.549Z" fill="url(#paint24_radial)"/>
<path d="M190.653 50.916C185.965 50.0138 181.226 49.3971 176.463 49.0691L146.479 101.742L190.653 50.916Z" fill="url(#paint25_radial)"/>
<path d="M136.293 103.194L111.744 58.7297C106.715 60.5544 101.79 62.5974 97.0494 64.8682L136.293 103.194Z" fill="url(#paint26_radial)"/>
<path d="M237.5 92.2072C237.436 89.0593 236.925 85.9362 235.983 82.9316L153.277 106.463L237.5 92.2072Z" fill="url(#paint27_radial)"/>
<path d="M140.56 116.828L129.712 169.33C135.009 168.788 140.351 168.018 145.634 166.911L140.56 116.828Z" fill="url(#paint28_radial)"/>
<path d="M84.2258 166.388C88.705 167.57 93.256 168.458 97.8501 169.048L134.57 116.787L84.2258 166.388Z" fill="url(#paint29_radial)"/>
<path d="M144.706 115.779L162.388 162.669C167.555 161.069 172.641 159.229 177.562 157.171L144.706 115.779Z" fill="url(#paint30_radial)"/>
<path d="M136.476 117.014L98.3123 169.109C103.23 169.719 108.178 170.048 113.132 170.094L136.476 117.014Z" fill="url(#paint31_radial)"/>
<path d="M148.259 102.02L203.903 54.4164C201.912 53.7184 199.84 53.0782 197.686 52.4958C195.533 51.9182 193.324 51.4173 191.126 50.9595L148.259 102.02Z" fill="url(#paint32_radial)"/>
<path d="M146.641 114.968L178.034 156.983C182.908 154.922 187.63 152.641 192.151 150.122L146.641 114.968Z" fill="url(#paint33_radial)"/>
<path d="M149.973 112.89L205.646 141.688C209.457 138.968 213.089 136.005 216.518 132.817L149.973 112.89Z" fill="url(#paint34_radial)"/>
<path d="M148.411 114.001L192.579 149.884C196.951 147.456 201.181 144.781 205.249 141.871L148.411 114.001Z" fill="url(#paint35_radial)"/>
<path d="M138.493 117.028L113.612 170.104C118.822 170.124 124.031 169.88 129.216 169.371L138.493 117.028Z" fill="url(#paint36_radial)"/>
<path d="M149.839 102.581L215.372 59.5314C211.826 57.5707 208.122 55.9116 204.298 54.5714L149.839 102.581Z" fill="url(#paint37_radial)"/>
<path d="M152.965 109.087L232.407 112.552C234.051 109.387 235.337 106.048 236.242 102.597L152.965 109.087Z" fill="url(#paint38_radial)"/>
<path d="M152.285 110.393L225.84 122.747C228.265 119.653 230.41 116.348 232.247 112.872L152.285 110.393Z" fill="url(#paint39_radial)"/>
<path d="M216.827 132.535C217.575 131.827 218.308 131.122 219.023 130.407C221.353 128.08 223.547 125.621 225.596 123.043L151.262 111.621L216.827 132.535Z" fill="url(#paint40_radial)"/>
<path d="M153.307 107.779L236.369 102.27C237.183 99.0796 237.58 95.7963 237.549 92.5029L153.307 107.779Z" fill="url(#paint41_radial)"/>
<path d="M152.912 105.329L235.978 82.6254C234.991 79.6043 233.6 76.7305 231.844 74.0818L152.912 105.329Z" fill="url(#paint42_radial)"/>
<path d="M151.163 103.335L224.687 66.0716C221.923 63.6385 218.909 61.5051 215.696 59.7069L151.163 103.335Z" fill="url(#paint43_radial)"/>
<path d="M152.209 104.256L231.667 73.8221C229.772 71.038 227.543 68.4974 225.029 66.2574L152.209 104.256Z" fill="url(#paint44_radial)"/>
<path d="M186.158 64.0817C151.753 54.829 103.61 67.7289 78.5496 92.7151C53.4888 117.701 61.1484 145.542 95.5487 154.78C129.949 164.018 178.081 151.137 203.161 126.161C228.24 101.185 220.544 73.3239 186.158 64.0817ZM96.3357 154.046C62.5143 144.96 55.0219 117.629 79.628 93.011C104.234 68.3929 151.579 55.7839 185.4 64.8695C219.222 73.9552 226.714 101.286 202.112 125.919C177.51 150.551 130.149 163.103 96.3357 154.046Z" fill="url(#paint45_linear)"/>
<path d="M201.768 93.4524C196.668 73.9998 165.265 65.379 131.626 74.1974C97.9878 83.0157 74.8527 105.934 79.9525 125.386C85.0523 144.839 116.456 153.46 150.094 144.641C183.733 135.823 206.868 112.905 201.768 93.4524Z" fill="url(#paint46_linear)"/>
<path d="M200.504 93.784C195.511 74.7366 164.759 66.2959 131.819 74.9312C98.8781 83.5666 76.2227 106.008 81.2163 125.055C86.2099 144.103 116.962 152.544 149.902 143.908C182.843 135.273 205.498 112.832 200.504 93.784Z" fill="url(#paint47_radial)"/>
<path style="mix-blend-mode:screen" opacity="0.7" d="M149.745 142.212C181.719 133.645 203.529 111.358 198.458 92.4325C193.387 73.5074 163.356 65.111 131.381 73.6785C99.4067 82.2461 77.5971 104.533 82.6681 123.458C87.7391 142.383 117.77 150.78 149.745 142.212Z" fill="url(#paint48_radial)"/>
<path style="mix-blend-mode:multiply" opacity="0.5" d="M144.067 112.933C151.314 110.992 156.532 106.968 155.722 103.946C154.913 100.924 148.381 100.048 141.134 101.99C133.887 103.932 128.669 107.956 129.478 110.978C130.288 114 136.819 114.875 144.067 112.933Z" fill="url(#paint49_radial)"/>
<path d="M107.569 62.0806C107.785 62.8758 107.761 63.7171 107.499 64.4981C107.237 65.279 106.75 65.9644 106.098 66.4675C105.447 66.9706 104.661 67.2688 103.84 67.3242C103.019 67.3796 102.2 67.1899 101.486 66.7789C100.773 66.368 100.197 65.7543 99.8318 65.0157C99.4666 64.2771 99.3284 63.4467 99.4348 62.6298C99.5412 61.8129 99.8874 61.0461 100.429 60.4265C100.972 59.807 101.685 59.3626 102.48 59.1497C103.006 59.0067 103.555 58.9691 104.096 59.0391C104.637 59.1091 105.159 59.2853 105.632 59.5576C106.104 59.8299 106.519 60.1929 106.851 60.6259C107.184 61.0589 107.428 61.5532 107.569 62.0806Z" fill="url(#paint50_radial)"/>
<path d="M154.063 49.6224C154.275 50.4149 154.248 51.2525 153.985 52.0292C153.722 52.806 153.235 53.487 152.585 53.9862C151.935 54.4853 151.152 54.7802 150.334 54.8336C149.516 54.887 148.701 54.6964 147.992 54.2859C147.282 53.8755 146.709 53.2637 146.347 52.5278C145.984 51.7919 145.848 50.965 145.954 50.1517C146.061 49.3384 146.406 48.5752 146.946 47.9586C147.486 47.342 148.197 46.8997 148.988 46.6877C150.049 46.4033 151.18 46.5528 152.132 47.1032C153.083 47.6535 153.778 48.5597 154.063 49.6224Z" fill="url(#paint51_radial)"/>
<path d="M137.887 64.5165L138.491 66.7713L135.079 65.8538L134.467 63.5703L137.887 64.5165Z" fill="url(#paint52_linear)"/>
<path d="M137.873 64.5203L138.477 66.7751L150.727 53.349L150.349 51.9415L137.873 64.5203Z" fill="url(#paint53_linear)"/>
<path d="M150.349 51.9416L137.873 64.5204L134.467 63.5704L146.948 51.006L150.349 51.9416Z" fill="url(#paint54_linear)"/>
<path d="M121.008 69.0395L121.612 71.2943L124.108 68.7937L123.496 66.5102L121.008 69.0395Z" fill="url(#paint55_linear)"/>
<path d="M121.022 69.0351L121.626 71.2898L104.305 65.7873L103.928 64.3799L121.022 69.0351Z" fill="url(#paint56_linear)"/>
<path d="M103.928 64.3806L121.022 69.0358L123.496 66.5103L106.406 61.8695L103.928 64.3806Z" fill="url(#paint57_linear)"/>
<path d="M148.008 101.025L130.497 105.717L131.671 110.097C132.441 112.969 136.956 114.161 141.803 112.862C146.651 111.563 149.936 108.22 149.182 105.405L149.162 105.333L148.008 101.025Z" fill="url(#paint58_linear)"/>
<path d="M130.505 105.746C131.275 108.619 135.79 109.81 140.637 108.511C145.485 107.212 148.774 103.884 148.015 101.054C147.257 98.2251 142.727 96.9763 137.894 98.2713C133.061 99.5662 129.751 102.931 130.505 105.746Z" fill="url(#paint59_linear)"/>
<path style="mix-blend-mode:color-dodge" d="M140.634 108.496C135.844 109.78 131.429 108.561 130.524 105.817L130.551 105.918C131.321 108.79 135.832 109.967 140.68 108.668C145.527 107.37 148.816 104.041 148.062 101.226L148.035 101.125C148.695 103.935 145.409 107.216 140.634 108.496Z" fill="url(#paint60_radial)"/>
<path d="M137.852 75.9165L126.738 78.8945L133.626 104.602C134.107 106.397 136.991 107.179 140.06 106.357C143.129 105.534 145.225 103.433 144.74 101.624L137.852 75.9165Z" fill="url(#paint61_linear)"/>
<path d="M140.958 65.8794L119.03 71.7549L120.5 77.241C121.447 80.774 127.132 82.3139 133.183 80.6923C139.235 79.0707 143.37 74.8842 142.428 71.3656C142.428 71.3656 142.428 71.3656 142.405 71.2794L140.958 65.8794Z" fill="url(#paint62_linear)"/>
<path d="M131.725 75.2494C137.776 73.628 141.915 69.4522 140.969 65.9226C140.023 62.393 134.351 60.8461 128.3 62.4675C122.249 64.0889 118.11 68.2646 119.056 71.7942C120.002 75.3238 125.674 76.8708 131.725 75.2494Z" fill="url(#paint63_linear)"/>
<path d="M133.506 65.89L125.489 68.0381L126.024 70.0344C126.37 71.3269 128.444 71.895 130.667 71.2993C132.89 70.7037 134.387 69.1788 134.041 67.8863L133.506 65.89Z" fill="url(#paint64_linear)"/>
<path d="M125.493 68.0529C125.839 69.3454 127.913 69.9135 130.136 69.3179C132.359 68.7222 133.856 67.1973 133.51 65.9048C133.163 64.6123 131.09 64.0442 128.881 64.636C126.673 65.2277 125.147 66.7603 125.493 68.0529Z" fill="url(#paint65_linear)"/>
<path style="mix-blend-mode:color-dodge" d="M131.736 75.2924C125.742 76.8986 120.111 75.329 119.098 71.9521C119.098 71.9521 119.118 72.024 119.129 72.067C120.072 75.5856 125.76 77.1399 131.812 75.5183C137.864 73.8967 141.999 69.7102 141.057 66.1916C141.057 66.1916 141.033 66.1054 141.026 66.0767C141.809 69.515 137.717 73.69 131.736 75.2924Z" fill="url(#paint66_radial)"/>
<path d="M155.056 78.1098L155.425 79.4885L157.918 76.9736L157.544 75.5805L155.056 78.1098Z" fill="url(#paint67_linear)"/>
<path d="M155.056 78.1107L155.425 79.4894L138.184 76.3513L137.341 73.2061L155.056 78.1107Z" fill="url(#paint68_linear)"/>
<path d="M137.341 73.2055L155.056 78.1101L157.544 75.5808L139.815 70.68L137.341 73.2055Z" fill="url(#paint69_linear)"/>
<path d="M112.936 89.3964L113.306 90.7751L109.89 89.8433L109.516 88.4502L112.936 89.3964Z" fill="url(#paint70_linear)"/>
<path d="M112.936 89.3963L113.306 90.7751L126.682 79.4328L125.84 76.2876L112.936 89.3963Z" fill="url(#paint71_linear)"/>
<path d="M125.84 76.2875L112.936 89.3962L109.516 88.45L122.42 75.3413L125.84 76.2875Z" fill="url(#paint72_linear)"/>
<path d="M114.263 89.7027C114.48 90.4985 114.455 91.3405 114.193 92.1219C113.93 92.9033 113.442 93.589 112.79 94.0919C112.137 94.5948 111.35 94.8922 110.529 94.9466C109.707 95.001 108.888 94.8098 108.174 94.3972C107.461 93.9847 106.886 93.3694 106.522 92.6294C106.158 91.8894 106.022 91.0581 106.13 90.2408C106.239 89.4235 106.588 88.6571 107.132 88.0388C107.677 87.4205 108.392 86.9782 109.189 86.7679C109.714 86.6271 110.262 86.5913 110.801 86.6626C111.341 86.7339 111.861 86.9109 112.332 87.1834C112.803 87.4559 113.217 87.8187 113.548 88.2509C113.879 88.6832 114.122 89.1765 114.263 89.7027Z" fill="url(#paint73_radial)"/>
<path d="M159.149 81.97C161.359 81.3779 162.669 79.1039 162.076 76.891C161.483 74.6781 159.211 73.3641 157.002 73.9562C154.792 74.5483 153.481 76.8223 154.074 79.0352C154.667 81.2482 156.939 82.5621 159.149 81.97Z" fill="url(#paint74_radial)"/>
<path d="M133.45 62.8733C133.701 63.8084 133.669 64.7967 133.358 65.7131C133.047 66.6296 132.472 67.4328 131.704 68.0213C130.937 68.6097 130.013 68.9568 129.048 69.0187C128.083 69.0805 127.121 68.8544 126.285 68.3688C125.448 67.8832 124.774 67.16 124.348 66.2909C123.921 65.4217 123.762 64.4457 123.89 63.4863C124.018 62.5269 124.428 61.6273 125.067 60.9014C125.706 60.1756 126.546 59.6561 127.48 59.4087C128.099 59.2429 128.745 59.201 129.38 59.2854C130.016 59.3699 130.628 59.579 131.183 59.9009C131.737 60.2227 132.223 60.651 132.612 61.161C133.001 61.6711 133.286 62.253 133.45 62.8733Z" fill="url(#paint75_radial)"/>
<path style="mix-blend-mode:multiply" opacity="0.7" d="M201.155 130.838C207.048 129.259 211.291 125.986 210.632 123.527C209.973 121.068 204.662 120.355 198.769 121.934C192.877 123.513 188.634 126.786 189.293 129.245C189.952 131.704 195.263 132.417 201.155 130.838Z" fill="url(#paint76_radial)"/>
<path d="M203.217 113.524C203.598 114.944 203.549 116.445 203.078 117.837C202.606 119.229 201.733 120.449 200.568 121.344C199.404 122.239 198 122.767 196.535 122.863C195.07 122.958 193.609 122.617 192.337 121.881C191.065 121.146 190.039 120.049 189.389 118.73C188.739 117.412 188.495 115.93 188.686 114.472C188.877 113.015 189.495 111.647 190.463 110.542C191.431 109.437 192.704 108.644 194.123 108.264C196.024 107.755 198.051 108.022 199.757 109.009C201.462 109.995 202.707 111.619 203.217 113.524Z" fill="url(#paint77_radial)"/>
<path style="mix-blend-mode:color-dodge" d="M200.005 109.566C200.476 110.261 200.828 111.031 201.045 111.842C201.374 113.058 201.402 114.336 201.126 115.565C200.849 116.794 200.278 117.937 199.461 118.894C198.644 119.852 197.606 120.595 196.437 121.059C195.268 121.524 194.003 121.696 192.752 121.561C193.958 122.14 195.303 122.363 196.631 122.204C197.959 122.044 199.213 121.508 200.246 120.659C201.279 119.81 202.049 118.682 202.464 117.41C202.879 116.138 202.923 114.773 202.59 113.476C202.205 111.913 201.291 110.532 200.005 109.566Z" fill="url(#paint78_radial)"/>
<defs>
<radialGradient id="paint0_radial" cx="0" cy="0" r="1" gradientUnits="userSpaceOnUse" gradientTransform="translate(161.838 159.11) rotate(-15) scale(135.604 59.4117)">
<stop offset="0.19" stop-color="#5F5C5D"/>
<stop offset="0.29" stop-color="#666364"/>
<stop offset="0.43" stop-color="#7B7879"/>
<stop offset="0.6" stop-color="#9C9A9A"/>
<stop offset="0.8" stop-color="#CAC9C9"/>
<stop offset="1" stop-color="white"/>
</radialGradient>
<linearGradient id="paint1_linear" x1="25.6922" y1="155.365" x2="263.567" y2="91.6263" gradientUnits="userSpaceOnUse">
<stop offset="0.01" stop-color="#6B24D6"/>
<stop offset="0.06" stop-color="#7733DC"/>
<stop offset="0.16" stop-color="#975CED"/>
<stop offset="0.2" stop-color="#A56EF4"/>
<stop offset="0.24" stop-color="#9D64F0"/>
<stop offset="0.38" stop-color="#8241E2"/>
<stop offset="0.5" stop-color="#712CD9"/>
<stop offset="0.58" stop-color="#6B24D6"/>
<stop offset="0.73" stop-color="#6E27D7"/>
<stop offset="0.85" stop-color="#7531DB"/>
<stop offset="0.92" stop-color="#7D3BDF"/>
<stop offset="1" stop-color="#742FDB"/>
</linearGradient>
<linearGradient id="paint2_linear" x1="130.635" y1="-80.0108" x2="144.362" y2="186.866" gradientUnits="userSpaceOnUse">
<stop offset="0.04" stop-color="#6B24D6"/>
<stop offset="0.29" stop-color="#7733DC"/>
<stop offset="0.79" stop-color="#975CED"/>
<stop offset="1" stop-color="#A56EF4"/>
</linearGradient>
<linearGradient id="paint3_linear" x1="17699.7" y1="20381.3" x2="5122.35" y2="-11259.6" gradientUnits="userSpaceOnUse">
<stop offset="0.04" stop-color="#6B24D6"/>
<stop offset="0.29" stop-color="#7733DC"/>
<stop offset="0.79" stop-color="#975CED"/>
<stop offset="1" stop-color="#A56EF4"/>
</linearGradient>
<linearGradient id="paint4_linear" x1="239.332" y1="47.8169" x2="25.9945" y2="104.981" gradientUnits="userSpaceOnUse">
<stop offset="0.01" stop-color="#6B24D6"/>
<stop offset="0.58" stop-color="#6B24D6"/>
<stop offset="0.73" stop-color="#6E27D7"/>
<stop offset="0.85" stop-color="#7531DB"/>
<stop offset="0.92" stop-color="#7D3BDF"/>
<stop offset="1" stop-color="#742FDB"/>
</linearGradient>
<radialGradient id="paint5_radial" cx="0" cy="0" r="1" gradientUnits="userSpaceOnUse" gradientTransform="translate(167.871 24.8035) rotate(-15) scale(66.2768 66.3718)">
<stop stop-color="white"/>
<stop offset="1"/>
</radialGradient>
<radialGradient id="paint6_radial" cx="0" cy="0" r="1" gradientUnits="userSpaceOnUse" gradientTransform="translate(-75885.9 1186.73) rotate(-15) scale(15108.7 4429.68)">
<stop stop-color="white"/>
<stop offset="1"/>
</radialGradient>
<linearGradient id="paint7_linear" x1="49.1498" y1="81.5981" x2="151.972" y2="184.999" gradientUnits="userSpaceOnUse">
<stop stop-color="#9F79C8"/>
<stop offset="0.14" stop-color="#A580CB"/>
<stop offset="0.33" stop-color="#B492D3"/>
<stop offset="0.55" stop-color="#CDB0E1"/>
<stop offset="0.58" stop-color="#D1B4E3"/>
<stop offset="0.76" stop-color="#DBC4E9"/>
<stop offset="1" stop-color="#EBDEF3"/>
</linearGradient>
<radialGradient id="paint8_radial" cx="0" cy="0" r="1" gradientUnits="userSpaceOnUse" gradientTransform="translate(92.5642 116.8) rotate(15.0405) scale(26.3755 22.6995)">
<stop offset="0.13" stop-color="#9F19AB"/>
<stop offset="0.31" stop-color="#AE25B1"/>
<stop offset="0.67" stop-color="#D744BF"/>
<stop offset="0.99" stop-color="#FF63CE"/>
</radialGradient>
<radialGradient id="paint9_radial" cx="0" cy="0" r="1" gradientUnits="userSpaceOnUse" gradientTransform="translate(119.101 91.2232) rotate(15.0405) scale(26.6312 22.9196)">
<stop offset="0.12" stop-color="#25054D"/>
<stop offset="1" stop-color="#45108A"/>
</radialGradient>
<radialGradient id="paint10_radial" cx="0" cy="0" r="1" gradientUnits="userSpaceOnUse" gradientTransform="translate(-53811.7 50485.6) rotate(-15) scale(1862.58 445.767)">
<stop offset="0.12" stop-color="#25054D"/>
<stop offset="1" stop-color="#45108A"/>
</radialGradient>
<radialGradient id="paint11_radial" cx="0" cy="0" r="1" gradientUnits="userSpaceOnUse" gradientTransform="translate(-20537.4 83162.1) rotate(-15) scale(1141.67 945.77)">
<stop offset="0.13" stop-color="#9F19AB"/>
<stop offset="0.31" stop-color="#AE25B1"/>
<stop offset="0.67" stop-color="#D744BF"/>
<stop offset="0.99" stop-color="#FF63CE"/>
</radialGradient>
<linearGradient id="paint12_linear" x1="137.417" y1="111.282" x2="81.4192" y2="69.2427" gradientUnits="userSpaceOnUse">
<stop offset="0.04" stop-color="#138BBD"/>
<stop offset="0.23" stop-color="#169AC7"/>
<stop offset="0.59" stop-color="#1FC3DF"/>
<stop offset="1" stop-color="#2AF6FF"/>
</linearGradient>
<radialGradient id="paint13_radial" cx="0" cy="0" r="1" gradientUnits="userSpaceOnUse" gradientTransform="translate(-43469.2 64232.1) rotate(-15) scale(1687.07 627.946)">
<stop offset="0.13" stop-color="#9F19AB"/>
<stop offset="0.31" stop-color="#AE25B1"/>
<stop offset="0.67" stop-color="#D744BF"/>
<stop offset="0.99" stop-color="#FF63CE"/>
</radialGradient>
<radialGradient id="paint14_radial" cx="0" cy="0" r="1" gradientUnits="userSpaceOnUse" gradientTransform="translate(-50906.7 53090.8) rotate(-15) scale(1836.57 481.604)">
<stop offset="0.12" stop-color="#25054D"/>
<stop offset="1" stop-color="#45108A"/>
</radialGradient>
<radialGradient id="paint15_radial" cx="0" cy="0" r="1" gradientUnits="userSpaceOnUse" gradientTransform="translate(-58580.6 37657.4) rotate(-15) scale(1930.71 273.311)">
<stop offset="0.13" stop-color="#9F19AB"/>
<stop offset="0.31" stop-color="#AE25B1"/>
<stop offset="0.67" stop-color="#D744BF"/>
<stop offset="0.99" stop-color="#FF63CE"/>
</radialGradient>
<radialGradient id="paint16_radial" cx="0" cy="0" r="1" gradientUnits="userSpaceOnUse" gradientTransform="translate(-56852.5 40437.6) rotate(-15) scale(1921.82 311.842)">
<stop offset="0.13" stop-color="#9F19AB"/>
<stop offset="0.31" stop-color="#AE25B1"/>
<stop offset="0.67" stop-color="#D744BF"/>
<stop offset="0.99" stop-color="#FF63CE"/>
</radialGradient>
<radialGradient id="paint17_radial" cx="0" cy="0" r="1" gradientUnits="userSpaceOnUse" gradientTransform="translate(9681.99 83758.5) rotate(-15) scale(362.179 1112.75)">
<stop offset="0.12" stop-color="#25054D"/>
<stop offset="1" stop-color="#45108A"/>
</radialGradient>
<radialGradient id="paint18_radial" cx="0" cy="0" r="1" gradientUnits="userSpaceOnUse" gradientTransform="translate(-30506.9 78318.4) rotate(-15) scale(1344.62 833.46)">
<stop offset="0.12" stop-color="#25054D"/>
<stop offset="1" stop-color="#45108A"/>
</radialGradient>
<radialGradient id="paint19_radial" cx="0" cy="0" r="1" gradientUnits="userSpaceOnUse" gradientTransform="translate(-34801.7 73528.9) rotate(-15) scale(1488.47 746.549)">
<stop offset="0.12" stop-color="#25054D"/>
<stop offset="1" stop-color="#45108A"/>
</radialGradient>
<radialGradient id="paint20_radial" cx="0" cy="0" r="1" gradientUnits="userSpaceOnUse" gradientTransform="translate(-59557.9 32948) rotate(-15) scale(1939.31 211.144)">
<stop offset="0.12" stop-color="#25054D"/>
<stop offset="1" stop-color="#45108A"/>
</radialGradient>
<radialGradient id="paint21_radial" cx="0" cy="0" r="1" gradientUnits="userSpaceOnUse" gradientTransform="translate(9214.21 83697.9) rotate(-15) scale(376.959 1111.56)">
<stop offset="0.13" stop-color="#9F19AB"/>
<stop offset="0.31" stop-color="#AE25B1"/>
<stop offset="0.67" stop-color="#D744BF"/>
<stop offset="0.99" stop-color="#FF63CE"/>
</radialGradient>
<radialGradient id="paint22_radial" cx="0" cy="0" r="1" gradientUnits="userSpaceOnUse" gradientTransform="translate(11328.8 86672.1) rotate(-15) scale(367.135 1122.92)">
<stop offset="0.13" stop-color="#9F19AB"/>
<stop offset="0.31" stop-color="#AE25B1"/>
<stop offset="0.67" stop-color="#D744BF"/>
<stop offset="0.99" stop-color="#FF63CE"/>
</radialGradient>
<radialGradient id="paint23_radial" cx="0" cy="0" r="1" gradientUnits="userSpaceOnUse" gradientTransform="translate(-1359.61 84956.4) rotate(-15) scale(683.102 1082.03)">
<stop offset="0.12" stop-color="#25054D"/>
<stop offset="1" stop-color="#45108A"/>
</radialGradient>
<radialGradient id="paint24_radial" cx="0" cy="0" r="1" gradientUnits="userSpaceOnUse" gradientTransform="translate(-11739.2 83704.9) rotate(-15) scale(955.818 1013.06)">
<stop offset="0.13" stop-color="#9F19AB"/>
<stop offset="0.31" stop-color="#AE25B1"/>
<stop offset="0.67" stop-color="#D744BF"/>
<stop offset="0.99" stop-color="#FF63CE"/>
</radialGradient>
<radialGradient id="paint25_radial" cx="0" cy="0" r="1" gradientUnits="userSpaceOnUse" gradientTransform="translate(-21534.5 80203.8) rotate(-15) scale(1181.81 912.806)">
<stop offset="0.12" stop-color="#25054D"/>
<stop offset="1" stop-color="#45108A"/>
</radialGradient>
<radialGradient id="paint26_radial" cx="0" cy="0" r="1" gradientUnits="userSpaceOnUse" gradientTransform="translate(704.642 85685.6) rotate(-15) scale(621.86 1095.51)">
<stop offset="0.13" stop-color="#9F19AB"/>
<stop offset="0.31" stop-color="#AE25B1"/>
<stop offset="0.67" stop-color="#D744BF"/>
<stop offset="0.99" stop-color="#FF63CE"/>
</radialGradient>
<radialGradient id="paint27_radial" cx="0" cy="0" r="1" gradientUnits="userSpaceOnUse" gradientTransform="translate(-54572.9 30994.7) rotate(-15) scale(1924.86 209.301)">
<stop offset="0.12" stop-color="#25054D"/>
<stop offset="1" stop-color="#45108A"/>
</radialGradient>
<radialGradient id="paint28_radial" cx="0" cy="0" r="1" gradientUnits="userSpaceOnUse" gradientTransform="translate(5832.46 87862) rotate(-15) scale(538.136 1111.06)">
<stop offset="0.12" stop-color="#25054D"/>
<stop offset="1" stop-color="#45108A"/>
</radialGradient>
<radialGradient id="paint29_radial" cx="0" cy="0" r="1" gradientUnits="userSpaceOnUse" gradientTransform="translate(-24918.7 80659.6) rotate(-15) scale(1290.79 860.514)">
<stop offset="0.13" stop-color="#9F19AB"/>
<stop offset="0.31" stop-color="#AE25B1"/>
<stop offset="0.67" stop-color="#D744BF"/>
<stop offset="0.99" stop-color="#FF63CE"/>
</radialGradient>
<radialGradient id="paint30_radial" cx="0" cy="0" r="1" gradientUnits="userSpaceOnUse" gradientTransform="translate(8107.5 87153.2) rotate(-15) scale(470.711 1116.55)">
<stop offset="0.12" stop-color="#25054D"/>
<stop offset="1" stop-color="#45108A"/>
</radialGradient>
<radialGradient id="paint31_radial" cx="0" cy="0" r="1" gradientUnits="userSpaceOnUse" gradientTransform="translate(-14821.7 85587.4) rotate(-15) scale(1085.96 975.594)">
<stop offset="0.12" stop-color="#25054D"/>
<stop offset="1" stop-color="#45108A"/>
</radialGradient>
<radialGradient id="paint32_radial" cx="0" cy="0" r="1" gradientUnits="userSpaceOnUse" gradientTransform="translate(-30452.5 74158.2) rotate(-15) scale(1379.52 798.164)">
<stop offset="0.13" stop-color="#9F19AB"/>
<stop offset="0.31" stop-color="#AE25B1"/>
<stop offset="0.67" stop-color="#D744BF"/>
<stop offset="0.99" stop-color="#FF63CE"/>
</radialGradient>
<radialGradient id="paint33_radial" cx="0" cy="0" r="1" gradientUnits="userSpaceOnUse" gradientTransform="translate(-1807.34 87474.1) rotate(-15) scale(770.769 1076.94)">
<stop offset="0.13" stop-color="#9F19AB"/>
<stop offset="0.31" stop-color="#AE25B1"/>
<stop offset="0.67" stop-color="#D744BF"/>
<stop offset="0.99" stop-color="#FF63CE"/>
</radialGradient>
<radialGradient id="paint34_radial" cx="0" cy="0" r="1" gradientUnits="userSpaceOnUse" gradientTransform="translate(-21130.9 80575) rotate(-15) scale(1245.67 889.698)">
<stop offset="0.13" stop-color="#9F19AB"/>
<stop offset="0.31" stop-color="#AE25B1"/>
<stop offset="0.67" stop-color="#D744BF"/>
<stop offset="0.99" stop-color="#FF63CE"/>
</radialGradient>
<radialGradient id="paint35_radial" cx="0" cy="0" r="1" gradientUnits="userSpaceOnUse" gradientTransform="translate(-11659.2 85174.4) rotate(-15) scale(1032.93 998.343)">
<stop offset="0.12" stop-color="#25054D"/>
<stop offset="1" stop-color="#45108A"/>
</radialGradient>
<radialGradient id="paint36_radial" cx="0" cy="0" r="1" gradientUnits="userSpaceOnUse" gradientTransform="translate(-4484.8 88009.9) rotate(-15) scale(832.843 1061.89)">
<stop offset="0.13" stop-color="#9F19AB"/>
<stop offset="0.31" stop-color="#AE25B1"/>
<stop offset="0.67" stop-color="#D744BF"/>
<stop offset="0.99" stop-color="#FF63CE"/>
</radialGradient>
<radialGradient id="paint37_radial" cx="0" cy="0" r="1" gradientUnits="userSpaceOnUse" gradientTransform="translate(-38327.3 66029.5) rotate(-15) scale(1575.95 683.346)">
<stop offset="0.12" stop-color="#25054D"/>
<stop offset="1" stop-color="#45108A"/>
</radialGradient>
<radialGradient id="paint38_radial" cx="0" cy="0" r="1" gradientUnits="userSpaceOnUse" gradientTransform="translate(-45070.9 53961.3) rotate(-15) scale(1795.93 522.871)">
<stop offset="0.12" stop-color="#25054D"/>
<stop offset="1" stop-color="#45108A"/>
</radialGradient>
<radialGradient id="paint39_radial" cx="0" cy="0" r="1" gradientUnits="userSpaceOnUse" gradientTransform="translate(-38093.5 64611.6) rotate(-15) scale(1636.08 661.531)">
<stop offset="0.13" stop-color="#9F19AB"/>
<stop offset="0.31" stop-color="#AE25B1"/>
<stop offset="0.67" stop-color="#D744BF"/>
<stop offset="0.99" stop-color="#FF63CE"/>
</radialGradient>
<radialGradient id="paint40_radial" cx="0" cy="0" r="1" gradientUnits="userSpaceOnUse" gradientTransform="translate(-30036.5 73613.4) rotate(-15) scale(1441.62 778.353)">
<stop offset="0.12" stop-color="#25054D"/>
<stop offset="1" stop-color="#45108A"/>
</radialGradient>
<radialGradient id="paint41_radial" cx="0" cy="0" r="1" gradientUnits="userSpaceOnUse" gradientTransform="translate(-50843.7 41919.4) rotate(-15) scale(1895.93 359.445)">
<stop offset="0.13" stop-color="#9F19AB"/>
<stop offset="0.31" stop-color="#AE25B1"/>
<stop offset="0.67" stop-color="#D744BF"/>
<stop offset="0.99" stop-color="#FF63CE"/>
</radialGradient>
<radialGradient id="paint42_radial" cx="0" cy="0" r="1" gradientUnits="userSpaceOnUse" gradientTransform="translate(-54838.8 31711.5) rotate(-15) scale(1924.61 217.992)">
<stop offset="0.13" stop-color="#9F19AB"/>
<stop offset="0.31" stop-color="#AE25B1"/>
<stop offset="0.67" stop-color="#D744BF"/>
<stop offset="0.99" stop-color="#FF63CE"/>
</radialGradient>
<radialGradient id="paint43_radial" cx="0" cy="0" r="1" gradientUnits="userSpaceOnUse" gradientTransform="translate(-45172 56110.3) rotate(-15) scale(1752.01 552.547)">
<stop offset="0.13" stop-color="#9F19AB"/>
<stop offset="0.31" stop-color="#AE25B1"/>
<stop offset="0.67" stop-color="#D744BF"/>
<stop offset="0.99" stop-color="#FF63CE"/>
</radialGradient>
<radialGradient id="paint44_radial" cx="0" cy="0" r="1" gradientUnits="userSpaceOnUse" gradientTransform="translate(-50737.9 44569.2) rotate(-15) scale(1871.96 394.992)">
<stop offset="0.12" stop-color="#25054D"/>
<stop offset="1" stop-color="#45108A"/>
</radialGradient>
<linearGradient id="paint45_linear" x1="-151775" y1="130031" x2="-143340" y2="138422" gradientUnits="userSpaceOnUse">
<stop stop-color="#9F79C8"/>
<stop offset="0.14" stop-color="#A580CB"/>
<stop offset="0.33" stop-color="#B492D3"/>
<stop offset="0.55" stop-color="#CDB0E1"/>
<stop offset="0.58" stop-color="#D1B4E3"/>
<stop offset="0.76" stop-color="#DBC4E9"/>
<stop offset="1" stop-color="#EBDEF3"/>
</linearGradient>
<linearGradient id="paint46_linear" x1="226040" y1="-50815.8" x2="224757" y2="-55709.6" gradientUnits="userSpaceOnUse">
<stop stop-color="#9F79C8"/>
<stop offset="0.14" stop-color="#A580CB"/>
<stop offset="0.33" stop-color="#B492D3"/>
<stop offset="0.55" stop-color="#CDB0E1"/>
<stop offset="0.58" stop-color="#D1B4E3"/>
<stop offset="0.76" stop-color="#DBC4E9"/>
<stop offset="1" stop-color="#EBDEF3"/>
</linearGradient>
<radialGradient id="paint47_radial" cx="0" cy="0" r="1" gradientUnits="userSpaceOnUse" gradientTransform="translate(140.86 109.438) rotate(-15) scale(50.346 50.4182)">
<stop stop-color="#A56EF4"/>
<stop offset="1" stop-color="#6B24D6"/>
</radialGradient>
<radialGradient id="paint48_radial" cx="0" cy="0" r="1" gradientUnits="userSpaceOnUse" gradientTransform="translate(140.812 110.134) rotate(-15) scale(59.8629 35.3983)">
<stop stop-color="#B086CC"/>
<stop offset="0.15" stop-color="#906DA7"/>
<stop offset="0.45" stop-color="#533F60"/>
<stop offset="0.71" stop-color="#261D2C"/>
<stop offset="0.9" stop-color="#0A080C"/>
<stop offset="1"/>
</radialGradient>
<radialGradient id="paint49_radial" cx="0" cy="0" r="1" gradientUnits="userSpaceOnUse" gradientTransform="translate(141.921 117.544) rotate(-15) scale(13.5119 5.63804)">
<stop offset="0.19" stop-color="#5F5C5D"/>
<stop offset="1" stop-color="white"/>
</radialGradient>
<radialGradient id="paint50_radial" cx="0" cy="0" r="1" gradientUnits="userSpaceOnUse" gradientTransform="translate(99.9435 60.9268) rotate(-15) scale(5.40547 5.41323)">
<stop offset="0.01" stop-color="white"/>
<stop offset="0.1" stop-color="#EBDFF3"/>
<stop offset="0.19" stop-color="#DDC7EA"/>
<stop offset="0.27" stop-color="#D4B9E5"/>
<stop offset="0.34" stop-color="#D1B4E3"/>
<stop offset="0.44" stop-color="#BF9FD9"/>
<stop offset="0.6" stop-color="#A883CD"/>
<stop offset="0.69" stop-color="#9F79C8"/>
<stop offset="0.8" stop-color="#A27DCA"/>
<stop offset="0.89" stop-color="#A985CD"/>
<stop offset="1" stop-color="#A07AC8"/>
</radialGradient>
<radialGradient id="paint51_radial" cx="0" cy="0" r="1" gradientUnits="userSpaceOnUse" gradientTransform="translate(-3241.13 -2560.9) rotate(-15) scale(36.7837 36.8364)">
<stop offset="0.01" stop-color="white"/>
<stop offset="0.1" stop-color="#EBDFF3"/>
<stop offset="0.19" stop-color="#DDC7EA"/>
<stop offset="0.27" stop-color="#D4B9E5"/>
<stop offset="0.34" stop-color="#D1B4E3"/>
<stop offset="0.44" stop-color="#BF9FD9"/>
<stop offset="0.6" stop-color="#A883CD"/>
<stop offset="0.69" stop-color="#9F79C8"/>
<stop offset="0.8" stop-color="#A27DCA"/>
<stop offset="0.89" stop-color="#A985CD"/>
<stop offset="1" stop-color="#A07AC8"/>
</radialGradient>
<linearGradient id="paint52_linear" x1="-11503.7" y1="3307.69" x2="-11520.2" y2="3308.4" gradientUnits="userSpaceOnUse">
<stop stop-color="#9F79C8"/>
<stop offset="0.14" stop-color="#A580CB"/>
<stop offset="0.33" stop-color="#B492D3"/>
<stop offset="0.55" stop-color="#CDB0E1"/>
<stop offset="0.58" stop-color="#D1B4E3"/>
<stop offset="0.76" stop-color="#DBC4E9"/>
<stop offset="1" stop-color="#EBDEF3"/>
</linearGradient>
<linearGradient id="paint53_linear" x1="-101016" y1="27508.6" x2="-101456" y2="27493.8" gradientUnits="userSpaceOnUse">
<stop stop-color="#9F79C8"/>
<stop offset="0.14" stop-color="#A580CB"/>
<stop offset="0.33" stop-color="#B492D3"/>
<stop offset="0.55" stop-color="#CDB0E1"/>
<stop offset="0.58" stop-color="#D1B4E3"/>
<stop offset="0.76" stop-color="#DBC4E9"/>
<stop offset="1" stop-color="#EBDEF3"/>
</linearGradient>
<linearGradient id="paint54_linear" x1="-123624" y1="33443.3" x2="-123587" y2="33501.6" gradientUnits="userSpaceOnUse">
<stop stop-color="#9F79C8"/>
<stop offset="0.14" stop-color="#A580CB"/>
<stop offset="0.33" stop-color="#B492D3"/>
<stop offset="0.55" stop-color="#CDB0E1"/>
<stop offset="0.58" stop-color="#D1B4E3"/>
<stop offset="0.76" stop-color="#DBC4E9"/>
<stop offset="1" stop-color="#EBDEF3"/>
</linearGradient>
<linearGradient id="paint55_linear" x1="-133.295" y1="260.997" x2="-118.603" y2="253.336" gradientUnits="userSpaceOnUse">
<stop stop-color="#9F79C8"/>
<stop offset="0.14" stop-color="#A580CB"/>
<stop offset="0.33" stop-color="#B492D3"/>
<stop offset="0.55" stop-color="#CDB0E1"/>
<stop offset="0.58" stop-color="#D1B4E3"/>
<stop offset="0.76" stop-color="#DBC4E9"/>
<stop offset="1" stop-color="#EBDEF3"/>
</linearGradient>
<linearGradient id="paint56_linear" x1="-3491.36" y1="1377.07" x2="-3117.74" y2="1144.19" gradientUnits="userSpaceOnUse">
<stop stop-color="#9F79C8"/>
<stop offset="0.14" stop-color="#A580CB"/>
<stop offset="0.33" stop-color="#B492D3"/>
<stop offset="0.55" stop-color="#CDB0E1"/>
<stop offset="0.58" stop-color="#D1B4E3"/>
<stop offset="0.76" stop-color="#DBC4E9"/>
<stop offset="1" stop-color="#EBDEF3"/>
</linearGradient>
<linearGradient id="paint57_linear" x1="-4041.11" y1="1401.28" x2="-4043.53" y2="1469.9" gradientUnits="userSpaceOnUse">
<stop stop-color="#9F79C8"/>
<stop offset="0.14" stop-color="#A580CB"/>
<stop offset="0.33" stop-color="#B492D3"/>
<stop offset="0.55" stop-color="#CDB0E1"/>
<stop offset="0.58" stop-color="#D1B4E3"/>
<stop offset="0.76" stop-color="#DBC4E9"/>
<stop offset="1" stop-color="#EBDEF3"/>
</linearGradient>
<linearGradient id="paint58_linear" x1="131.853" y1="110.433" x2="149.091" y2="105.814" gradientUnits="userSpaceOnUse">
<stop offset="0.01" stop-color="#C1A1D5"/>
<stop offset="0.05" stop-color="#C8ABDA"/>
<stop offset="0.11" stop-color="#DAC6E6"/>
<stop offset="0.2" stop-color="#F7F2F9"/>
<stop offset="0.22" stop-color="white"/>
<stop offset="0.25" stop-color="#F9F5FB"/>
<stop offset="0.3" stop-color="#E9DBF2"/>
<stop offset="0.36" stop-color="#D1B4E3"/>
<stop offset="0.43" stop-color="#B395D6"/>
<stop offset="0.49" stop-color="#9C7DCB"/>
<stop offset="0.56" stop-color="#8E6EC5"/>
<stop offset="0.61" stop-color="#8969C3"/>
<stop offset="0.76" stop-color="#9471C6"/>
<stop offset="1" stop-color="#B086CC"/>
</linearGradient>
<linearGradient id="paint59_linear" x1="-71264.1" y1="19744.9" x2="-71306.5" y2="19920.3" gradientUnits="userSpaceOnUse">
<stop stop-color="#9F79C8"/>
<stop offset="0.14" stop-color="#A580CB"/>
<stop offset="0.33" stop-color="#B492D3"/>
<stop offset="0.55" stop-color="#CDB0E1"/>
<stop offset="0.58" stop-color="#D1B4E3"/>
<stop offset="0.76" stop-color="#DBC4E9"/>
<stop offset="1" stop-color="#EBDEF3"/>
</linearGradient>
<radialGradient id="paint60_radial" cx="0" cy="0" r="1" gradientUnits="userSpaceOnUse" gradientTransform="translate(-4467.25 202.207) rotate(-15) scale(81.9065 24.3184)">
<stop stop-color="white"/>
<stop offset="1"/>
</radialGradient>
<linearGradient id="paint61_linear" x1="1994.31" y1="1023.01" x2="2079" y2="1000.32" gradientUnits="userSpaceOnUse">
<stop offset="0.01" stop-color="#C1A1D5"/>
<stop offset="0.05" stop-color="#C8ABDA"/>
<stop offset="0.11" stop-color="#DAC6E6"/>
<stop offset="0.2" stop-color="#F7F2F9"/>
<stop offset="0.22" stop-color="white"/>
<stop offset="0.25" stop-color="#F9F5FB"/>
<stop offset="0.3" stop-color="#E9DBF2"/>
<stop offset="0.36" stop-color="#D1B4E3"/>
<stop offset="0.43" stop-color="#B395D6"/>
<stop offset="0.49" stop-color="#9C7DCB"/>
<stop offset="0.56" stop-color="#8E6EC5"/>
<stop offset="0.61" stop-color="#8969C3"/>
<stop offset="0.76" stop-color="#9471C6"/>
<stop offset="1" stop-color="#B086CC"/>
</linearGradient>
<linearGradient id="paint62_linear" x1="3119.5" y1="-291.386" x2="3449.29" y2="-379.752" gradientUnits="userSpaceOnUse">
<stop offset="0.01" stop-color="#C1A1D5"/>
<stop offset="0.05" stop-color="#C8ABDA"/>
<stop offset="0.11" stop-color="#DAC6E6"/>
<stop offset="0.2" stop-color="#F7F2F9"/>
<stop offset="0.22" stop-color="white"/>
<stop offset="0.25" stop-color="#F9F5FB"/>
<stop offset="0.3" stop-color="#E9DBF2"/>
<stop offset="0.36" stop-color="#D1B4E3"/>
<stop offset="0.43" stop-color="#B395D6"/>
<stop offset="0.49" stop-color="#9C7DCB"/>
<stop offset="0.56" stop-color="#8E6EC5"/>
<stop offset="0.61" stop-color="#8969C3"/>
<stop offset="0.76" stop-color="#9471C6"/>
<stop offset="1" stop-color="#B086CC"/>
</linearGradient>
<linearGradient id="paint63_linear" x1="-90850.7" y1="24726.5" x2="-90916.7" y2="25000.7" gradientUnits="userSpaceOnUse">
<stop stop-color="#9F79C8"/>
<stop offset="0.14" stop-color="#A580CB"/>
<stop offset="0.33" stop-color="#B492D3"/>
<stop offset="0.55" stop-color="#CDB0E1"/>
<stop offset="0.58" stop-color="#D1B4E3"/>
<stop offset="0.76" stop-color="#DBC4E9"/>
<stop offset="1" stop-color="#EBDEF3"/>
</linearGradient>
<linearGradient id="paint64_linear" x1="1256.25" y1="-92.1904" x2="1300.42" y2="-104.026" gradientUnits="userSpaceOnUse">
<stop offset="0.01" stop-color="#C1A1D5"/>
<stop offset="0.05" stop-color="#C8ABDA"/>
<stop offset="0.11" stop-color="#DAC6E6"/>
<stop offset="0.2" stop-color="#F7F2F9"/>
<stop offset="0.22" stop-color="white"/>
<stop offset="0.25" stop-color="#F9F5FB"/>
<stop offset="0.3" stop-color="#E9DBF2"/>
<stop offset="0.36" stop-color="#D1B4E3"/>
<stop offset="0.43" stop-color="#B395D6"/>
<stop offset="0.49" stop-color="#9C7DCB"/>
<stop offset="0.56" stop-color="#8E6EC5"/>
<stop offset="0.61" stop-color="#8969C3"/>
<stop offset="0.76" stop-color="#9471C6"/>
<stop offset="1" stop-color="#B086CC"/>
</linearGradient>
<linearGradient id="paint65_linear" x1="-29223.7" y1="8058.51" x2="-29232.6" y2="8095.33" gradientUnits="userSpaceOnUse">
<stop stop-color="#9F79C8"/>
<stop offset="0.14" stop-color="#A580CB"/>
<stop offset="0.33" stop-color="#B492D3"/>
<stop offset="0.55" stop-color="#CDB0E1"/>
<stop offset="0.58" stop-color="#D1B4E3"/>
<stop offset="0.76" stop-color="#DBC4E9"/>
<stop offset="1" stop-color="#EBDEF3"/>
</linearGradient>
<radialGradient id="paint66_radial" cx="0" cy="0" r="1" gradientUnits="userSpaceOnUse" gradientTransform="translate(-5844.79 -41.251) rotate(-15) scale(128.442 38.1084)">
<stop stop-color="white"/>
<stop offset="1"/>
</radialGradient>
<linearGradient id="paint67_linear" x1="-35.7102" y1="263.878" x2="-22.611" y2="256.039" gradientUnits="userSpaceOnUse">
<stop stop-color="#9F79C8"/>
<stop offset="0.14" stop-color="#A580CB"/>
<stop offset="0.33" stop-color="#B492D3"/>
<stop offset="0.55" stop-color="#CDB0E1"/>
<stop offset="0.58" stop-color="#D1B4E3"/>
<stop offset="0.76" stop-color="#DBC4E9"/>
<stop offset="1" stop-color="#EBDEF3"/>
</linearGradient>
<linearGradient id="paint68_linear" x1="-3279.92" y1="1451.82" x2="-2877.81" y2="1187.78" gradientUnits="userSpaceOnUse">
<stop stop-color="#9F79C8"/>
<stop offset="0.14" stop-color="#A580CB"/>
<stop offset="0.33" stop-color="#B492D3"/>
<stop offset="0.55" stop-color="#CDB0E1"/>
<stop offset="0.58" stop-color="#D1B4E3"/>
<stop offset="0.76" stop-color="#DBC4E9"/>
<stop offset="1" stop-color="#EBDEF3"/>
</linearGradient>
<linearGradient id="paint69_linear" x1="-3739.2" y1="1479.88" x2="-3741.97" y2="1553.16" gradientUnits="userSpaceOnUse">
<stop stop-color="#9F79C8"/>
<stop offset="0.14" stop-color="#A580CB"/>
<stop offset="0.33" stop-color="#B492D3"/>
<stop offset="0.55" stop-color="#CDB0E1"/>
<stop offset="0.58" stop-color="#D1B4E3"/>
<stop offset="0.76" stop-color="#DBC4E9"/>
<stop offset="1" stop-color="#EBDEF3"/>
</linearGradient>
<linearGradient id="paint70_linear" x1="-13546.4" y1="3884.06" x2="-13561.7" y2="3883.83" gradientUnits="userSpaceOnUse">
<stop stop-color="#9F79C8"/>
<stop offset="0.14" stop-color="#A580CB"/>
<stop offset="0.33" stop-color="#B492D3"/>
<stop offset="0.55" stop-color="#CDB0E1"/>
<stop offset="0.58" stop-color="#D1B4E3"/>
<stop offset="0.76" stop-color="#DBC4E9"/>
<stop offset="1" stop-color="#EBDEF3"/>
</linearGradient>
<linearGradient id="paint71_linear" x1="-123701" y1="33718.7" x2="-124182" y2="33690.9" gradientUnits="userSpaceOnUse">
<stop stop-color="#9F79C8"/>
<stop offset="0.14" stop-color="#A580CB"/>
<stop offset="0.33" stop-color="#B492D3"/>
<stop offset="0.55" stop-color="#CDB0E1"/>
<stop offset="0.58" stop-color="#D1B4E3"/>
<stop offset="0.76" stop-color="#DBC4E9"/>
<stop offset="1" stop-color="#EBDEF3"/>
</linearGradient>
<linearGradient id="paint72_linear" x1="-150422" y1="40783.4" x2="-150383" y2="40845.5" gradientUnits="userSpaceOnUse">
<stop stop-color="#9F79C8"/>
<stop offset="0.14" stop-color="#A580CB"/>
<stop offset="0.33" stop-color="#B492D3"/>
<stop offset="0.55" stop-color="#CDB0E1"/>
<stop offset="0.58" stop-color="#D1B4E3"/>
<stop offset="0.76" stop-color="#DBC4E9"/>
<stop offset="1" stop-color="#EBDEF3"/>
</linearGradient>
<radialGradient id="paint73_radial" cx="0" cy="0" r="1" gradientUnits="userSpaceOnUse" gradientTransform="translate(-3565.99 -2255.34) rotate(-15) scale(36.9155 36.9684)">
<stop offset="0.01" stop-color="white"/>
<stop offset="0.1" stop-color="#EBDFF3"/>
<stop offset="0.19" stop-color="#DDC7EA"/>
<stop offset="0.27" stop-color="#D4B9E5"/>
<stop offset="0.34" stop-color="#D1B4E3"/>
<stop offset="0.44" stop-color="#BF9FD9"/>
<stop offset="0.6" stop-color="#A883CD"/>
<stop offset="0.69" stop-color="#9F79C8"/>
<stop offset="0.8" stop-color="#A27DCA"/>
<stop offset="0.89" stop-color="#A985CD"/>
<stop offset="1" stop-color="#A07AC8"/>
</radialGradient>
<radialGradient id="paint74_radial" cx="0" cy="0" r="1" gradientUnits="userSpaceOnUse" gradientTransform="translate(-3178.38 -2347.31) rotate(-15) scale(36.7836 36.8364)">
<stop offset="0.01" stop-color="white"/>
<stop offset="0.1" stop-color="#EBDFF3"/>
<stop offset="0.19" stop-color="#DDC7EA"/>
<stop offset="0.27" stop-color="#D4B9E5"/>
<stop offset="0.34" stop-color="#D1B4E3"/>
<stop offset="0.44" stop-color="#BF9FD9"/>
<stop offset="0.6" stop-color="#A883CD"/>
<stop offset="0.69" stop-color="#9F79C8"/>
<stop offset="0.8" stop-color="#A27DCA"/>
<stop offset="0.89" stop-color="#A985CD"/>
<stop offset="1" stop-color="#A07AC8"/>
</radialGradient>
<radialGradient id="paint75_radial" cx="0" cy="0" r="1" gradientUnits="userSpaceOnUse" gradientTransform="translate(-4044.04 -2908.24) rotate(-15) scale(51.0934 51.1667)">
<stop offset="0.01" stop-color="white"/>
<stop offset="0.1" stop-color="#EBDFF3"/>
<stop offset="0.19" stop-color="#DDC7EA"/>
<stop offset="0.27" stop-color="#D4B9E5"/>
<stop offset="0.34" stop-color="#D1B4E3"/>
<stop offset="0.44" stop-color="#BF9FD9"/>
<stop offset="0.6" stop-color="#A883CD"/>
<stop offset="0.69" stop-color="#9F79C8"/>
<stop offset="0.8" stop-color="#A27DCA"/>
<stop offset="0.89" stop-color="#A985CD"/>
<stop offset="1" stop-color="#A07AC8"/>
</radialGradient>
<radialGradient id="paint76_radial" cx="0" cy="0" r="1" gradientUnits="userSpaceOnUse" gradientTransform="translate(-298.522 -46419.7) rotate(-15) scale(170.552 71.1655)">
<stop offset="0.19" stop-color="#5F5C5D"/>
<stop offset="1" stop-color="white"/>
</radialGradient>
<radialGradient id="paint77_radial" cx="0" cy="0" r="1" gradientUnits="userSpaceOnUse" gradientTransform="translate(189.969 113.32) rotate(-15) scale(9.59353 9.60726)">
<stop stop-color="#FEECA8"/>
<stop offset="1" stop-color="#FFA98C"/>
</radialGradient>
<radialGradient id="paint78_radial" cx="0" cy="0" r="1" gradientUnits="userSpaceOnUse" gradientTransform="translate(208.98 122.985) rotate(-15) scale(15.1439 15.1656)">
<stop stop-color="#F49587"/>
<stop offset="0.12" stop-color="#BD7368"/>
<stop offset="0.24" stop-color="#8B554D"/>
<stop offset="0.36" stop-color="#603B35"/>
<stop offset="0.48" stop-color="#3E2622"/>
<stop offset="0.61" stop-color="#231513"/>
<stop offset="0.74" stop-color="#0F0908"/>
<stop offset="0.86" stop-color="#040202"/>
<stop offset="1"/>
</radialGradient>
</defs>
</svg>
