<svg width="60" height="61" viewBox="0 0 60 61" fill="none" xmlns="http://www.w3.org/2000/svg">
<circle cx="30" cy="30.3223" r="30" fill="#FB5734"/>
<path d="M45.7334 28.739L30.4167 44.0556C28.5403 45.932 25.9954 46.9862 23.3417 46.9862C20.6881 46.9862 18.1431 45.932 16.2667 44.0556C14.3903 42.1792 13.3362 39.6343 13.3362 36.9806C13.3362 34.327 14.3903 31.782 16.2667 29.9056L31.5834 14.589C32.8343 13.338 34.531 12.6353 36.3001 12.6353C38.0692 12.6353 39.7658 13.338 41.0167 14.589C42.2677 15.8399 42.9705 17.5365 42.9705 19.3056C42.9705 21.0747 42.2677 22.7714 41.0167 24.0223L25.6834 39.339C25.0579 39.9644 24.2096 40.3158 23.3251 40.3158C22.4405 40.3158 21.5922 39.9644 20.9667 39.339C20.3413 38.7135 19.9899 37.8652 19.9899 36.9806C19.9899 36.0961 20.3413 35.2478 20.9667 34.6223L35.1167 20.489" stroke="white" stroke-width="2" stroke-linecap="round" stroke-linejoin="round"/>
</svg>
