<svg width="30" height="31" viewBox="0 0 30 31" fill="none" xmlns="http://www.w3.org/2000/svg">
<path d="M25 11.6479H13.75C12.3693 11.6479 11.25 12.7672 11.25 14.1479V25.3979C11.25 26.7787 12.3693 27.8979 13.75 27.8979H25C26.3807 27.8979 27.5 26.7787 27.5 25.3979V14.1479C27.5 12.7672 26.3807 11.6479 25 11.6479Z" stroke="black" stroke-width="2" stroke-linecap="round" stroke-linejoin="round"/>
<path d="M6.25 19.1479H5C4.33696 19.1479 3.70107 18.8846 3.23223 18.4157C2.76339 17.9469 2.5 17.311 2.5 16.6479V5.39795C2.5 4.73491 2.76339 4.09902 3.23223 3.63018C3.70107 3.16134 4.33696 2.89795 5 2.89795H16.25C16.913 2.89795 17.5489 3.16134 18.0178 3.63018C18.4866 4.09902 18.75 4.73491 18.75 5.39795V6.64795" stroke="black" stroke-width="2" stroke-linecap="round" stroke-linejoin="round"/>
</svg>
