<svg width="24" height="25" viewBox="0 0 24 25" fill="none" xmlns="http://www.w3.org/2000/svg">
<path d="M11 4.39795H4C3.46957 4.39795 2.96086 4.60866 2.58579 4.98374C2.21071 5.35881 2 5.86752 2 6.39795V20.3979C2 20.9284 2.21071 21.4371 2.58579 21.8122C2.96086 22.1872 3.46957 22.3979 4 22.3979H18C18.5304 22.3979 19.0391 22.1872 19.4142 21.8122C19.7893 21.4371 20 20.9284 20 20.3979V13.3979" stroke="black" stroke-width="2" stroke-linecap="round" stroke-linejoin="round"/>
<path d="M18.5 2.89793C18.8978 2.50011 19.4374 2.27661 20 2.27661C20.5626 2.27661 21.1022 2.50011 21.5 2.89793C21.8978 3.29576 22.1213 3.83532 22.1213 4.39793C22.1213 4.96054 21.8978 5.50011 21.5 5.89793L12 15.3979L8 16.3979L9 12.3979L18.5 2.89793Z" stroke="black" stroke-width="2" stroke-linecap="round" stroke-linejoin="round"/>
</svg>
