<svg width="40" height="41" viewBox="0 0 40 41" fill="none" xmlns="http://www.w3.org/2000/svg">
<g clip-path="url(#clip0_289_2951)">
<path d="M40 20.3979C40 9.35107 31.0469 0.397949 20 0.397949C8.95312 0.397949 0 9.35107 0 20.3979C0 30.3823 7.3125 38.6558 16.875 40.1558V26.1792H11.7969V20.3979H16.875V15.9917C16.875 10.98 19.8594 8.21045 24.4297 8.21045C26.6172 8.21045 28.9062 8.60107 28.9062 8.60107V13.5229H26.3828C23.8984 13.5229 23.125 15.0659 23.125 16.6479V20.3979H28.6719L27.7852 26.1792H23.125V40.1558C32.6875 38.6558 40 30.3823 40 20.3979Z" fill="#1877F2"/>
<path d="M27.7852 26.1792L28.6719 20.3979H23.125V16.6479C23.125 15.0659 23.8984 13.5229 26.3828 13.5229H28.9062V8.60107C28.9062 8.60107 26.6172 8.21045 24.4297 8.21045C19.8594 8.21045 16.875 10.98 16.875 15.9917V20.3979H11.7969V26.1792H16.875V40.1558C17.8945 40.3159 18.9375 40.3979 20 40.3979C21.0625 40.3979 22.1055 40.3159 23.125 40.1558V26.1792H27.7852Z" fill="white"/>
</g>
<defs>
<clipPath id="clip0_289_2951">
<rect width="40" height="40" fill="white" transform="translate(0 0.397949)"/>
</clipPath>
</defs>
</svg>
