<svg width="34" stroke-opacity="0.6" height="35" viewBox="0 0 34 35" fill="none" xmlns="http://www.w3.org/2000/svg">
<path d="M29.5233 6.85324C28.7997 6.12933 27.9406 5.55508 26.9951 5.16328C26.0495 4.77148 25.036 4.56982 24.0125 4.56982C22.9889 4.56982 21.9754 4.77148 21.0299 5.16328C20.0843 5.55508 19.2252 6.12933 18.5016 6.85324L17 8.35491L15.4983 6.85324C14.0367 5.39168 12.0544 4.57058 9.98747 4.57058C7.9205 4.57058 5.9382 5.39168 4.47663 6.85324C3.01507 8.31481 2.19397 10.2971 2.19397 12.3641C2.19397 14.431 3.01507 16.4133 4.47663 17.8749L5.9783 19.3766L17 30.3982L28.0216 19.3766L29.5233 17.8749C30.2472 17.1513 30.8215 16.2922 31.2133 15.3467C31.6051 14.4011 31.8067 13.3876 31.8067 12.3641C31.8067 11.3406 31.6051 10.3271 31.2133 9.38149C30.8215 8.43592 30.2472 7.57681 29.5233 6.85324V6.85324Z" stroke="black" stroke-width="2.2" stroke-linecap="round" stroke-linejoin="round"/>
</svg>
