<svg width="31" height="30" viewBox="0 0 31 30" fill="none" xmlns="http://www.w3.org/2000/svg">
<path d="M24.7128 3.75H7.21277C5.83206 3.75 4.71277 4.86929 4.71277 6.25V23.75C4.71277 25.1307 5.83206 26.25 7.21277 26.25H24.7128C26.0935 26.25 27.2128 25.1307 27.2128 23.75V6.25C27.2128 4.86929 26.0935 3.75 24.7128 3.75Z" stroke="#646464" stroke-width="2" stroke-linecap="round" stroke-linejoin="round"/>
<path d="M11.5878 12.5C12.6233 12.5 13.4628 11.6605 13.4628 10.625C13.4628 9.58947 12.6233 8.75 11.5878 8.75C10.5522 8.75 9.71277 9.58947 9.71277 10.625C9.71277 11.6605 10.5522 12.5 11.5878 12.5Z" stroke="#646464" stroke-width="2" stroke-linecap="round" stroke-linejoin="round"/>
<path d="M27.2128 18.75L20.9628 12.5L7.21277 26.25" stroke="#646464" stroke-width="2" stroke-linecap="round" stroke-linejoin="round"/>
</svg>
