<svg width="40" height="41" viewBox="0 0 40 41" fill="none" xmlns="http://www.w3.org/2000/svg">
<path d="M20 40.3979C31.0457 40.3979 40 31.4436 40 20.3979C40 9.35225 31.0457 0.397949 20 0.397949C8.95431 0.397949 0 9.35225 0 20.3979C0 31.4436 8.95431 40.3979 20 40.3979Z" fill="url(#paint0_linear_289_2956)"/>
<path d="M7.44869 21.3763C9.78669 20.0885 12.3965 19.0136 14.835 17.9333C19.0302 16.1638 23.242 14.4249 27.4964 12.8061C28.3241 12.5303 29.8114 12.2606 29.9572 13.4872C29.8773 15.2235 29.5488 16.9497 29.3235 18.6759C28.7516 22.4719 28.0906 26.2549 27.446 30.0384C27.2239 31.2987 25.6452 31.951 24.635 31.1445C22.2073 29.5048 19.761 27.8809 17.3643 26.203C16.5793 25.4053 17.3073 24.2597 18.0084 23.69C20.0079 21.7195 22.1284 20.0454 24.0234 17.973C24.5346 16.7387 23.0242 17.7789 22.5261 18.0977C19.7887 19.984 17.1184 21.9855 14.2324 23.6434C12.7582 24.4549 11.0401 23.7614 9.56655 23.3086C8.2454 22.7616 6.30939 22.2105 7.44855 21.3764L7.44869 21.3763Z" fill="white"/>
<defs>
<linearGradient id="paint0_linear_289_2956" x1="26.6683" y1="7.06595" x2="16.6683" y2="30.3979" gradientUnits="userSpaceOnUse">
<stop stop-color="#37AEE2"/>
<stop offset="1" stop-color="#1E96C8"/>
</linearGradient>
</defs>
</svg>
