<svg width="31" height="30" viewBox="0 0 31 30" fill="none" xmlns="http://www.w3.org/2000/svg">
<path d="M15.0391 6.82812V9.61039M15.0391 23.1714V21.1285V20.3846" stroke="black" stroke-opacity="0.6" stroke-width="2" stroke-linecap="round" stroke-linejoin="round"/>
<path d="M18.7577 9.7998H13.1807C12.4905 9.7998 11.8285 10.0737 11.3404 10.5613C10.8523 11.049 10.5781 11.7103 10.5781 12.3999C10.5781 13.0895 10.8523 13.7508 11.3404 14.2384C11.8285 14.726 12.4905 14.9999 13.1807 14.9999H16.8987C17.589 14.9999 18.251 15.2739 18.739 15.7615C19.2271 16.2491 19.5013 16.9104 19.5013 17.6C19.5013 18.2896 19.2271 18.9509 18.739 19.4385C18.251 19.9261 17.589 20.2001 16.8987 20.2001H10.5781" stroke="#646464" stroke-width="2" stroke-linecap="round" stroke-linejoin="round"/>
<circle cx="15.0273" cy="15" r="12.5" stroke="black" stroke-opacity="0.6" stroke-width="2"/>
</svg>
