<svg width="40" height="41" viewBox="0 0 40 41" fill="none" xmlns="http://www.w3.org/2000/svg">
<path d="M20 0.397949C31.0457 0.397949 40 9.35225 40 20.3979C40 31.4436 31.0457 40.3979 20 40.3979C8.9543 40.3979 0 31.4436 0 20.3979C0 9.35225 8.9543 0.397949 20 0.397949Z" fill="#7F4DA0"/>
<path d="M25.3287 17.8633C25.2314 17.073 24.9886 16.4525 24.5572 15.9029C23.9971 15.1952 23.2813 14.7714 22.2216 14.52C21.5309 14.3524 21.2519 14.3716 21.0021 14.5998C20.7695 14.8136 20.724 15.2421 20.9018 15.5196C21.0269 15.721 21.1711 15.7932 21.5723 15.8719C22.1066 15.9702 22.4758 16.0978 22.8117 16.2898C23.5245 16.7014 23.8565 17.3456 23.892 18.3883C23.9086 18.878 23.9509 19.0285 24.122 19.2022C24.4389 19.5196 25.003 19.4578 25.2423 19.078C25.3301 18.9348 25.3435 18.8725 25.3527 18.54C25.3589 18.3342 25.35 18.0278 25.3287 17.8633Z" fill="white"/>
<path d="M28.1204 18.7543C27.9796 16.3332 27.0326 14.3852 25.3378 13.0147C24.3829 12.2446 23.2287 11.7151 21.9634 11.4576C21.5 11.3655 20.6467 11.2908 20.5003 11.3335C20.3621 11.373 20.1668 11.5226 20.0797 11.6579C19.9876 11.8046 19.9668 12.1321 20.0454 12.3215C20.1722 12.6382 20.4081 12.7501 21.0687 12.8079C22.0871 12.897 23.1375 13.2548 23.9312 13.7845C24.8373 14.3876 25.5576 15.2125 26.0236 16.1819C26.4262 17.0147 26.6738 18.215 26.6669 19.2898C26.6647 19.6785 26.7247 19.8981 26.881 20.0586C27.117 20.3054 27.4609 20.3593 27.7645 20.1954C28.1009 20.0185 28.1796 19.7079 28.1204 18.7543Z" fill="white"/>
<path d="M31.2104 28.0782C31.1631 27.9399 31.0526 27.7264 30.9736 27.6038C30.4762 26.8528 27.804 24.7615 26.4698 24.0775C25.708 23.6862 25.1435 23.5558 24.7251 23.6783C24.2751 23.8048 24.0383 24.0143 23.2844 24.9512C22.9805 25.3268 22.6686 25.6787 22.5857 25.734C22.3805 25.8763 21.9778 25.991 21.6936 25.991C21.0345 25.987 19.8384 25.56 18.9187 24.9987C18.2043 24.5639 17.2886 23.7851 16.5859 23.0142C15.757 22.1089 15.1926 21.3103 14.7465 20.409C14.1702 19.2507 14.0242 18.5431 14.2649 18.0252C14.3241 17.8947 14.4031 17.7564 14.4386 17.7129C14.4741 17.6734 14.8452 17.369 15.2557 17.0369C16.0609 16.3965 16.1912 16.2502 16.3412 15.8114C16.5306 15.254 16.4794 14.6847 16.1872 14.1115C15.9622 13.6767 15.3741 12.7279 14.9478 12.1152C14.3834 11.3087 12.9781 9.58513 12.6978 9.35182C12.1926 8.94073 11.5453 8.86953 10.8308 9.14631C10.0769 9.43885 8.66379 10.5774 8.05985 11.372C7.51513 12.0914 7.30599 12.6014 7.27438 13.2734C7.24677 13.8269 7.29412 14.0562 7.58622 14.7638C9.87168 20.3141 13.282 24.7457 17.9675 28.2641C20.4147 30.1023 22.9528 31.5017 25.5856 32.4584C27.1211 33.0158 27.7882 33.0435 28.5737 32.5849C28.9052 32.3872 29.7263 31.5452 30.1841 30.9325C30.942 29.9125 31.2223 29.4421 31.3012 29.0665C31.3565 28.8096 31.313 28.3629 31.2104 28.0782Z" fill="white"/>
<path d="M30.9622 19.3104C30.9117 17.9408 30.6811 16.8175 30.2003 15.5651C29.7256 14.3331 29.2452 13.5291 28.3379 12.4418C27.4801 11.4223 26.8138 10.8401 25.7571 10.1922C24.2828 9.28933 22.4887 8.69187 20.478 8.4406C19.7923 8.35279 19.6372 8.35906 19.4268 8.49943C19.0192 8.76533 19.0246 9.42856 19.4335 9.69048C19.5689 9.7738 19.689 9.80415 20.2375 9.87594C21.0795 9.9893 21.6209 10.0961 22.2633 10.2714C24.7825 10.9601 26.7198 12.3677 28.0149 14.4572C29.0988 16.1989 29.5487 17.9407 29.4848 20.1652C29.4626 20.9173 29.4787 21.0496 29.5937 21.2303C29.8138 21.5671 30.3944 21.6337 30.6923 21.3543C30.8776 21.184 30.9125 21.0561 30.949 20.4124C30.9665 20.0766 30.9703 19.5809 30.9622 19.3104Z" fill="white"/>
</svg>
