<svg width="196" height="196" viewBox="0 0 196 196" fill="none" xmlns="http://www.w3.org/2000/svg">
<mask id="path-1-inside-1" fill="white">
<path d="M196 98C196 152.124 152.124 196 98 196C43.8761 196 0 152.124 0 98C0 43.8761 43.8761 0 98 0C152.124 0 196 43.8761 196 98ZM2.07289 98C2.07289 150.979 45.0209 193.927 98 193.927C150.979 193.927 193.927 150.979 193.927 98C193.927 45.0209 150.979 2.07289 98 2.07289C45.0209 2.07289 2.07289 45.0209 2.07289 98Z"/>
</mask>
<path d="M196 98C196 152.124 152.124 196 98 196C43.8761 196 0 152.124 0 98C0 43.8761 43.8761 0 98 0C152.124 0 196 43.8761 196 98ZM2.07289 98C2.07289 150.979 45.0209 193.927 98 193.927C150.979 193.927 193.927 150.979 193.927 98C193.927 45.0209 150.979 2.07289 98 2.07289C45.0209 2.07289 2.07289 45.0209 2.07289 98Z" stroke="#CD2576" stroke-width="4" mask="url(#path-1-inside-1)"/>
</svg>
