<svg width="37" height="38" viewBox="0 0 37 38" fill="none" xmlns="http://www.w3.org/2000/svg">
<path d="M34.5545 26.0081L32.3523 33.3851L28.0291 32.2137L34.5545 26.0081Z" fill="#E4761B"/>
<path fill-rule="evenodd" clip-rule="evenodd" d="M34.6464 25.8591L32.3834 33.4398L27.9409 32.2361L34.6464 25.8591ZM28.1182 32.1914L32.3219 33.3305L34.4633 26.1572L28.1182 32.1914Z" fill="#E4761B"/>
<path d="M28.0291 32.2137L32.1989 26.5535L34.5545 26.0081L28.0291 32.2137Z" fill="#E4761B"/>
<path fill-rule="evenodd" clip-rule="evenodd" d="M34.7045 25.9275L28.0604 32.246L27.9927 32.1874L32.1723 26.5138L34.7045 25.9275ZM32.2255 26.5933L28.3683 31.8293L34.4046 26.0888L32.2255 26.5933Z" fill="#E4761B"/>
<path d="M31.3146 20.4463L34.5547 26.0081L32.1991 26.5536L31.3146 20.4463ZM31.3146 20.4463L33.3995 19.0156L34.5547 26.0081L31.3146 20.4463Z" fill="#F6851B"/>
<path fill-rule="evenodd" clip-rule="evenodd" d="M33.4325 18.9385L34.5979 25.9927L34.6242 26.0378L32.1614 26.6081L31.2712 20.4611L31.2547 20.4329L33.4325 18.9385ZM31.3925 20.6694L34.4852 25.9782L32.2367 26.4988L31.3925 20.6694ZM34.4702 25.7736L31.3744 20.4595L33.3664 19.0925L34.4702 25.7736Z" fill="#F6851B"/>
<path d="M28.661 16.2437L34.6539 13.8115L34.356 15.1439L28.661 16.2437ZM34.1665 16.7444L28.661 16.2437L34.356 15.1439L34.1665 16.7444Z" fill="#763D16"/>
<path fill-rule="evenodd" clip-rule="evenodd" d="M34.7169 13.7378L34.4009 15.1513L34.2065 16.793L28.6571 16.2883L28.6545 16.2366L28.6442 16.2024L34.7169 13.7378ZM29.1025 16.113L34.3186 15.1056L34.5914 13.8853L29.1025 16.113ZM28.9797 16.2278L34.3043 15.1995L34.1271 16.696L28.9797 16.2278Z" fill="#763D16"/>
<path d="M34.1665 16.7444L33.3993 19.0157L28.661 16.2437L34.1665 16.7444ZM35.3669 14.3749L34.356 15.1439L34.6539 13.8115L35.3669 14.3749ZM34.1665 16.7444L34.356 15.1439L35.1593 15.8055L34.1665 16.7444Z" fill="#763D16"/>
<path fill-rule="evenodd" clip-rule="evenodd" d="M34.6255 13.7317L35.4401 14.3753L34.4283 15.145L35.2271 15.8031L34.2058 16.7689L33.4245 19.0821L28.6381 16.282L28.6652 16.199L34.1269 16.6957L34.2988 15.2436L34.2852 15.2539L34.3115 15.1362L34.321 15.0566L34.328 15.0624L34.6255 13.7317ZM34.3912 15.2307L34.226 16.6263L35.0915 15.8077L34.3912 15.2307ZM34.427 15.0334L35.2937 14.374L34.6823 13.891L34.427 15.0334ZM34.1057 16.7836L28.857 16.3062L33.3743 18.9489L34.1057 16.7836Z" fill="#763D16"/>
<path d="M23.3811 30.4163L24.8794 30.8902L28.0292 32.2136L23.3811 30.4163Z" fill="#E2761B"/>
<path fill-rule="evenodd" clip-rule="evenodd" d="M23.3649 30.4583L23.395 30.374L24.8952 30.8486L28.047 32.1728L28.013 32.2556L23.3649 30.4583ZM24.7305 30.8903L25.144 31.0503L24.8638 30.9325L24.7305 30.8903Z" fill="#E2761B"/>
<path d="M33.3994 19.0156L34.1666 16.7444L34.8254 17.2451L33.3994 19.0156ZM33.3994 19.0156L27.1809 16.9858L28.6611 16.2437L33.3994 19.0156Z" fill="#763D16"/>
<path fill-rule="evenodd" clip-rule="evenodd" d="M28.6631 16.1929L33.3746 18.9492L34.1442 16.6709L34.8897 17.2376L33.435 19.0437L33.4007 19.0252L33.3856 19.0582L27.0638 16.9947L28.6631 16.1929ZM33.5234 18.7906L34.7618 17.253L34.1896 16.8182L33.5234 18.7906ZM33.0169 18.8437L27.2986 16.9772L28.6597 16.2948L33.0169 18.8437Z" fill="#763D16"/>
<path d="M30.1412 9.27783L28.6611 16.2435L27.1809 16.9857L30.1412 9.27783Z" fill="#763D16"/>
<path fill-rule="evenodd" clip-rule="evenodd" d="M27.2648 16.8937L28.6216 16.2133L29.9785 9.82807L27.2648 16.8937ZM30.0993 9.26196L30.1857 9.28707L28.701 16.2737L27.0975 17.0778L30.0993 9.26196Z" fill="#763D16"/>
<path d="M34.6539 13.8113L28.661 16.2435L30.1412 9.27783L34.6539 13.8113Z" fill="#763D16"/>
<path fill-rule="evenodd" clip-rule="evenodd" d="M30.1143 9.1875L34.7333 13.8278L28.5993 16.3172L30.1143 9.1875ZM30.168 9.3688L28.7227 16.1705L34.5745 13.7956L30.168 9.3688Z" fill="#763D16"/>
<path d="M30.1411 9.27785L36.3958 8.5625L34.6539 13.8113L30.1411 9.27785Z" fill="#763D16"/>
<path fill-rule="evenodd" clip-rule="evenodd" d="M36.4608 8.51025L34.6738 13.8951L30.0442 9.24413L36.4608 8.51025ZM30.2384 9.31193L34.6342 13.728L36.331 8.61511L30.2384 9.31193Z" fill="#763D16"/>
<path d="M33.3994 19.0156L31.3145 20.4463L27.1809 16.9858L33.3994 19.0156Z" fill="#F6851B"/>
<path fill-rule="evenodd" clip-rule="evenodd" d="M27.1517 17.02L27.195 16.9434L33.4995 19.0012L31.3118 20.5026L27.1517 17.02ZM27.3876 17.1004L31.3172 20.3901L33.2992 19.03L27.3876 17.1004Z" fill="#F6851B"/>
<path d="M36.125 3.54614L36.3958 8.56251L30.1411 9.27786L36.125 3.54614Z" fill="#763D16"/>
<path fill-rule="evenodd" clip-rule="evenodd" d="M36.1651 3.4458L36.4434 8.60205L30.0144 9.33735L36.1651 3.4458ZM30.2686 9.21826L36.3488 8.52286L36.0856 3.64638L30.2686 9.21826Z" fill="#763D16"/>
<path d="M36.1251 3.54614L23.6249 12.5506L23.4624 6.44329L36.1251 3.54614Z" fill="#E2761B"/>
<path fill-rule="evenodd" clip-rule="evenodd" d="M23.5085 6.47874L23.6678 12.4645L35.9193 3.63922L23.5085 6.47874ZM36.115 3.50269L36.1517 3.58241L23.5821 12.6368L23.4164 6.40806L36.115 3.50269Z" fill="#E2761B"/>
<path d="M14.1665 5.71021L23.4626 6.44343L23.6251 12.5507L14.1665 5.71021Z" fill="#F6851B"/>
<path fill-rule="evenodd" clip-rule="evenodd" d="M14.0108 5.65308L23.5065 6.40205L23.6724 12.6404L14.0108 5.65308ZM14.3218 5.76731L23.5774 12.461L23.4184 6.4848L14.3218 5.76731Z" fill="#F6851B"/>
<path d="M27.1809 16.9857L23.6249 12.5505L30.1413 9.27783L27.1809 16.9857Z" fill="#763D16"/>
<path fill-rule="evenodd" clip-rule="evenodd" d="M30.2248 9.18579L27.1948 17.0751L23.555 12.5355L30.2248 9.18579ZM23.6945 12.5657L27.1668 16.8965L30.0574 9.37009L23.6945 12.5657Z" fill="#763D16"/>
<path d="M27.1812 16.9858L31.3149 20.4463L25.5115 21.0812L27.1812 16.9858Z" fill="#E4761B"/>
<path fill-rule="evenodd" clip-rule="evenodd" d="M27.1624 16.9121L31.4239 20.4796L25.4411 21.1341L27.1624 16.9121ZM27.1994 17.0601L25.5813 21.0288L31.2052 20.4136L27.1994 17.0601Z" fill="#E4761B"/>
<path d="M25.5113 21.0813L23.6249 12.5508L27.181 16.9859L25.5113 21.0813Z" fill="#E4761B"/>
<path fill-rule="evenodd" clip-rule="evenodd" d="M23.581 12.5603L23.6604 12.5229L27.2328 16.9785L25.4985 21.2321L23.581 12.5603ZM23.7108 12.7296L25.5242 20.9304L27.1294 16.9933L23.7108 12.7296Z" fill="#E4761B"/>
<path d="M30.1413 9.27785L23.6249 12.5506L36.1251 3.54614L30.1413 9.27785Z" fill="#763D16"/>
<path fill-rule="evenodd" clip-rule="evenodd" d="M24.1082 12.258L30.1148 9.24129L35.6306 3.95794L24.1082 12.258ZM23.5984 12.5147L36.0986 3.51025L36.1565 3.57856L30.1678 9.31495L23.6454 12.5907L23.5984 12.5147Z" fill="#763D16"/>
<path d="M14.2474 32.0708L17.1987 35.12L13.1824 31.4985L14.2474 32.0708Z" fill="#C0AD9E"/>
<path fill-rule="evenodd" clip-rule="evenodd" d="M13.1521 31.5316L13.204 31.4592L14.2752 32.0348L17.2314 35.089L17.1684 35.153L13.1521 31.5316ZM13.488 31.7136L16.2477 34.2019L14.2198 32.1068L13.488 31.7136Z" fill="#C0AD9E"/>
<path d="M28.0291 32.2137L29.4281 26.9469L32.1989 26.5535L28.0291 32.2137Z" fill="#CD6116"/>
<path fill-rule="evenodd" clip-rule="evenodd" d="M32.2987 26.4944L28.0658 32.2402L27.9857 32.2025L29.3923 26.9071L32.2987 26.4944ZM29.4643 26.9872L28.1339 31.9962L32.0996 26.613L29.4643 26.9872Z" fill="#CD6116"/>
<path d="M2.27985 17.397L7.38823 12.0767L2.9387 16.7622L2.27985 17.397Z" fill="#E2761B"/>
<path d="M32.1992 26.5536L29.4284 26.947L31.3147 20.4463L32.1992 26.5536ZM23.6251 12.5507L18.6521 12.3898L14.1665 5.71021L23.6251 12.5507Z" fill="#F6851B"/>
<path fill-rule="evenodd" clip-rule="evenodd" d="M14.1286 5.73495L14.1928 5.67407L23.7697 12.6001L18.6271 12.4337L14.1286 5.73495ZM14.3438 5.89402L18.6765 12.3458L23.4799 12.5013L14.3438 5.89402ZM29.4908 26.893L32.1478 26.5157L31.2997 20.6591L29.4908 26.893ZM31.2711 20.434L31.3591 20.44L32.25 26.5915L29.3655 27.0011L31.2711 20.434Z" fill="#F6851B"/>
<path d="M31.3145 20.4463L29.4282 26.947L29.2747 23.7727L31.3145 20.4463Z" fill="#E4751F"/>
<path fill-rule="evenodd" clip-rule="evenodd" d="M29.3206 23.7842L29.4603 26.6748L31.178 20.7551L29.3206 23.7842ZM31.276 20.4231L31.3579 20.4587L29.4716 26.9594L29.3832 26.9492L29.2291 23.7611L31.276 20.4231Z" fill="#E4751F"/>
<path d="M25.5115 21.0812L31.3149 20.4463L29.2751 23.7727L25.5115 21.0812Z" fill="#CD6116"/>
<path fill-rule="evenodd" clip-rule="evenodd" d="M31.4008 20.3921L29.2881 23.8374L25.3899 21.0497L31.4008 20.3921ZM25.6328 21.1131L29.2617 23.7083L31.2285 20.5009L25.6328 21.1131Z" fill="#CD6116"/>
<path d="M18.6519 12.3896L23.6249 12.5506L25.5112 21.0811L18.6519 12.3896Z" fill="#F6851B"/>
<path fill-rule="evenodd" clip-rule="evenodd" d="M18.557 12.3418L23.6616 12.507L25.5554 21.0715L25.4758 21.1086L18.557 12.3418ZM18.747 12.4374L25.4249 20.8989L23.5885 12.5941L18.747 12.4374Z" fill="#F6851B"/>
<path d="M18.6518 12.3896L5.23107 0.0856934L14.1662 5.7101L18.6518 12.3896ZM14.1572 33.9395L2.49637 37.5162L0.167816 28.7085L14.1572 33.9395Z" fill="#E4761B"/>
<path fill-rule="evenodd" clip-rule="evenodd" d="M5.2005 0.118403L5.25535 0.0478516L14.1986 5.67735L18.6895 12.3648L18.6213 12.4224L5.2005 0.118403ZM5.62753 0.388065L18.4045 12.1018L14.134 5.74266L5.62753 0.388065ZM0.102112 28.636L14.2963 33.9436L2.46475 37.5727L0.102112 28.636ZM0.233685 28.7808L2.52816 37.4596L14.0183 33.9352L0.233685 28.7808Z" fill="#E4761B"/>
<path d="M4.01285 19.5968L8.41725 16.1721L12.1086 17.0216L4.01285 19.5968Z" fill="#763D16"/>
<path fill-rule="evenodd" clip-rule="evenodd" d="M8.40621 16.1238L12.2778 17.0147L4.02646 19.6395L3.9848 19.5617L8.40621 16.1238ZM8.42792 16.2206L4.23856 19.4781L11.9391 17.0286L8.42792 16.2206Z" fill="#763D16"/>
<path d="M12.1084 17.0215L8.41702 16.172L10.3936 8.08862L12.1084 17.0215Z" fill="#763D16"/>
<path fill-rule="evenodd" clip-rule="evenodd" d="M8.47184 16.1387L12.0514 16.9625L10.3885 8.30027L8.47184 16.1387ZM10.35 8.07812L10.4382 8.0803L12.1659 17.0806L8.36267 16.2054L10.35 8.07812Z" fill="#763D16"/>
<path d="M2.93866 16.7623L8.41709 16.1721L4.01268 19.5968L2.93866 16.7623Z" fill="#763D16"/>
<path fill-rule="evenodd" clip-rule="evenodd" d="M8.56922 16.1108L3.99224 19.6698L2.87613 16.7241L8.56922 16.1108ZM3.0015 16.8006L4.03343 19.5241L8.26525 16.2335L3.0015 16.8006Z" fill="#763D16"/>
<path d="M29.2751 23.7728L27.0007 22.6372L25.5115 21.0813L29.2751 23.7728Z" fill="#CD6116"/>
<path fill-rule="evenodd" clip-rule="evenodd" d="M25.4786 21.1119L25.5377 21.0449L29.3013 23.7364L29.2546 23.8126L26.9732 22.6735L25.4786 21.1119ZM25.8757 21.3969L27.0279 22.6006L28.7875 23.4792L25.8757 21.3969Z" fill="#CD6116"/>
<path d="M2.93881 16.7625L2.55072 14.7327L8.41724 16.1723L2.93881 16.7625Z" fill="#763D16"/>
<path fill-rule="evenodd" clip-rule="evenodd" d="M2.49313 14.6724L8.42792 16.1288L8.42195 16.2166L2.90208 16.8112L2.49313 14.6724ZM2.608 14.7927L2.97523 16.7134L8.15928 16.155L2.608 14.7927Z" fill="#763D16"/>
<path d="M26.531 25.1943L27.0003 22.637L29.2747 23.7726L26.531 25.1943Z" fill="#233447"/>
<path fill-rule="evenodd" clip-rule="evenodd" d="M26.9668 22.5703L29.3736 23.772L26.4702 25.2765L26.9668 22.5703ZM27.034 22.704L26.592 25.1125L29.176 23.7735L27.034 22.704Z" fill="#233447"/>
<path d="M29.4282 26.947L26.531 25.1944L29.2747 23.7727L29.4282 26.947Z" fill="#F6851B"/>
<path fill-rule="evenodd" clip-rule="evenodd" d="M29.3165 23.7004L29.4774 27.029L26.4395 25.1913L29.3165 23.7004ZM26.6226 25.1973L29.3791 26.8647L29.2331 23.8446L26.6226 25.1973Z" fill="#F6851B"/>
<path d="M8.4171 16.172L2.55058 14.7324L2.07224 13.0245L8.4171 16.172ZM10.3937 8.08862L8.4171 16.172L2.07224 13.0245L10.3937 8.08862ZM10.3937 8.08862L18.6519 12.3896L12.1085 17.0215L10.3937 8.08862Z" fill="#763D16"/>
<path fill-rule="evenodd" clip-rule="evenodd" d="M10.3244 8.18193L2.16598 13.0212L8.38659 16.107L10.3244 8.18193ZM8.03389 16.0321L2.14288 13.1097L2.58701 14.6954L8.03389 16.0321ZM2.01955 13.0038L1.97849 13.0282L2.03411 13.0557L2.51414 14.7697L8.40138 16.2144L8.4476 16.2373L10.3883 8.30039L12.0773 17.0987L18.7377 12.384L10.4458 8.06542L10.4629 7.99561L10.3922 8.03751L10.3318 8.00607L10.3434 8.06645L2.07029 12.9737L2.00158 12.9396L2.01955 13.0038ZM10.4555 8.17147L12.1396 16.9447L18.5661 12.3956L10.4555 8.17147Z" fill="#763D16"/>
<path d="M12.1086 17.0215L18.652 12.3896L21.5672 21.2152L12.1086 17.0215ZM21.5672 21.2152L12.5238 21.0274L12.1086 17.0215L21.5672 21.2152Z" fill="#E4761B"/>
<path fill-rule="evenodd" clip-rule="evenodd" d="M18.6758 12.3179L21.6418 21.2973L21.5571 21.2597L12.4829 21.0713L12.0663 17.0518L12.0183 17.0305L12.061 17.0002L12.0557 16.9491L12.1034 16.9702L18.6758 12.3179ZM12.1614 17.0939L21.3455 21.1659L12.5645 20.9836L12.1614 17.0939ZM21.4926 21.1332L12.1988 17.0126L18.6282 12.4614L21.4926 21.1332Z" fill="#E4761B"/>
<path d="M4.01285 19.5967L12.1086 17.0215L12.5238 21.0274L4.01285 19.5967ZM25.5114 21.0811L21.5673 21.2152L18.6521 12.3896L25.5114 21.0811Z" fill="#F6851B"/>
<path fill-rule="evenodd" clip-rule="evenodd" d="M18.6093 12.4035L18.6878 12.3621L25.6017 21.1227L21.5351 21.261L18.6093 12.4035ZM18.7751 12.6179L21.5998 21.1694L25.4214 21.0394L18.7751 12.6179ZM12.148 16.962L12.5749 21.0813L4.00545 19.6408L3.99921 19.5541L12.148 16.962ZM4.20285 19.5833L12.473 20.9735L12.0696 17.0809L4.20285 19.5833Z" fill="#F6851B"/>
<path d="M27.0007 22.6372L26.5314 25.1945L25.5115 21.0813L27.0007 22.6372Z" fill="#CD6116"/>
<path fill-rule="evenodd" clip-rule="evenodd" d="M25.4267 20.9277L27.0488 22.6225L26.5754 25.2022L26.4872 25.2049L25.4267 20.9277ZM25.5956 21.2342L26.5244 24.9802L26.9519 22.6511L25.5956 21.2342Z" fill="#CD6116"/>
<path d="M5.2312 0.0856934L18.652 12.3896L10.3937 8.08863L5.2312 0.0856934Z" fill="#763D16"/>
<path fill-rule="evenodd" clip-rule="evenodd" d="M5.19348 0.10987L5.26216 0.0529785L18.6829 12.3569L18.6313 12.4293L10.3624 8.12279L5.19348 0.10987ZM5.45875 0.355038L10.4256 8.05467L18.3709 12.1927L5.45875 0.355038Z" fill="#763D16"/>
<path d="M0.167816 28.7086L11.4857 28.2437L14.1572 33.9396L0.167816 28.7086Z" fill="#E4761B"/>
<path fill-rule="evenodd" clip-rule="evenodd" d="M11.5139 28.1978L14.2448 34.0201L0.151917 28.7505L0.165981 28.664L11.5139 28.1978ZM0.390823 28.7442L14.0697 33.8591L11.4575 28.2896L0.390823 28.7442Z" fill="#E4761B"/>
<path d="M14.1571 33.9395L11.4856 28.2436L17.0453 27.9753L14.1571 33.9395Z" fill="#CD6116"/>
<path fill-rule="evenodd" clip-rule="evenodd" d="M17.119 27.927L14.1567 34.0442L11.4167 28.2021L17.119 27.927ZM11.5551 28.285L14.1581 33.8348L16.9721 28.0236L11.5551 28.285Z" fill="#CD6116"/>
<path d="M26.531 25.1943L29.4282 26.9469L31.0257 30.6756L26.531 25.1943ZM12.5236 21.0274L0.167816 28.7084L4.01264 19.5967L12.5236 21.0274ZM11.4857 28.2434L0.167816 28.7084L12.5236 21.0274L11.4857 28.2434ZM25.5112 21.081L26.2512 23.7457L22.6772 23.9514L25.5112 21.081ZM22.6772 23.9514L21.5671 21.2152L25.5112 21.081L22.6772 23.9514Z" fill="#F6851B"/>
<path fill-rule="evenodd" clip-rule="evenodd" d="M3.98501 19.5469L12.5144 20.9807L12.5822 20.9385L12.5747 20.9908L12.648 21.0031L12.5655 21.0544L11.5252 28.2868L0.181827 28.7528L0.0714921 28.8214L0.0989987 28.7562L0 28.7603L0.131876 28.6783L3.98501 19.5469ZM4.04062 19.6469L0.264485 28.5958L12.3995 21.0521L4.04062 19.6469ZM12.4654 21.1167L0.335978 28.657L11.4465 28.2005L12.4654 21.1167ZM25.5617 21.0941L25.6224 21.0327L25.5454 21.0353L25.534 20.9943L25.4917 21.0372L21.5014 21.1729L22.6245 23.9412L22.5636 24.0029L22.6476 23.9981L22.6613 24.0318L22.6974 23.9952L26.3097 23.7873L25.5617 21.0941ZM21.6331 21.2579L22.6934 23.8713L25.4003 21.1298L21.6331 21.2579ZM25.4887 21.1681L22.7912 23.9002L26.1931 23.7045L25.4887 21.1681ZM26.4962 25.2227L26.5547 25.1563L29.4643 26.9164L31.0674 30.6584L30.9908 30.704L26.4962 25.2227ZM26.7318 25.3682L30.8596 30.4021L29.3925 26.9778L26.7318 25.3682Z" fill="#F6851B"/>
<path d="M17.1988 35.1198L14.1572 33.9395L24.735 35.701L17.1988 35.1198Z" fill="#C0AD9E"/>
<path fill-rule="evenodd" clip-rule="evenodd" d="M14.1405 33.981L14.1645 33.8953L24.7423 35.6568L24.7313 35.7455L17.1884 35.1637L14.1405 33.981ZM14.5784 34.0549L17.2088 35.0756L23.7261 35.5783L14.5784 34.0549Z" fill="#C0AD9E"/>
<path d="M4.01273 19.5968L2.27985 17.3971L2.9387 16.7622L4.01273 19.5968Z" fill="#763D16"/>
<path fill-rule="evenodd" clip-rule="evenodd" d="M2.95675 16.6826L4.05502 19.5812L3.9772 19.6244L2.21942 17.3931L2.95675 16.6826ZM2.34037 17.4013L3.86685 19.339L2.92075 16.842L2.34037 17.4013Z" fill="#763D16"/>
<path d="M25.9354 34.3955L24.735 35.701L14.1572 33.9395L25.9354 34.3955Z" fill="#D7C1B3"/>
<path fill-rule="evenodd" clip-rule="evenodd" d="M14.1498 33.9835L14.1591 33.8948L26.0341 34.3546L24.7519 35.7491L14.1498 33.9835ZM14.8621 34.0115L24.7183 35.6528L25.8368 34.4364L14.8621 34.0115Z" fill="#D7C1B3"/>
<path d="M26.504 31.1944L14.1572 33.9395L17.0453 27.9753L26.504 31.1944Z" fill="#E4761B"/>
<path fill-rule="evenodd" clip-rule="evenodd" d="M17.0223 27.9202L26.6697 31.2035L14.0765 34.0034L17.0223 27.9202ZM17.0689 28.0306L14.2384 33.8757L26.3388 31.1854L17.0689 28.0306Z" fill="#E4761B"/>
<path d="M14.1572 33.9397L26.504 31.1946L25.9354 34.3958L14.1572 33.9397Z" fill="#D7C1B3"/>
<path fill-rule="evenodd" clip-rule="evenodd" d="M26.5603 31.136L25.9732 34.4417L14.1556 33.9841L14.1475 33.8958L26.5603 31.136ZM14.5043 33.9081L25.8979 34.3493L26.448 31.2526L14.5043 33.9081Z" fill="#D7C1B3"/>
<path d="M2.07228 13.0245L1.66614 6.14819L10.3937 8.08857L2.07228 13.0245ZM2.93872 16.7621L1.73834 15.555L2.55063 14.7323L2.93872 16.7621Z" fill="#763D16"/>
<path fill-rule="evenodd" clip-rule="evenodd" d="M1.61765 6.0918L10.5139 8.06966L2.03164 13.1009L1.61765 6.0918ZM1.71474 6.20503L2.11304 12.9484L10.2737 8.10791L1.71474 6.20503ZM2.57892 14.64L3.01072 16.8984L1.67516 15.5553L2.57892 14.64ZM1.80164 15.5551L2.86683 16.6263L2.52245 14.8251L1.80164 15.5551Z" fill="#763D16"/>
<path d="M19.5456 22.9858L21.5673 21.2153L21.2785 25.5432L19.5456 22.9858Z" fill="#CD6116"/>
<path fill-rule="evenodd" clip-rule="evenodd" d="M21.6194 21.1101L21.3146 25.6772L19.4859 22.9785L21.6194 21.1101ZM19.6049 22.9936L21.242 25.4096L21.5149 21.321L19.6049 22.9936Z" fill="#CD6116"/>
<path d="M21.5671 21.2153L19.5454 22.9858L16.6031 24.497L21.5671 21.2153Z" fill="#CD6116"/>
<path fill-rule="evenodd" clip-rule="evenodd" d="M17.3093 24.0839L19.52 22.9485L21.039 21.6182L17.3093 24.0839ZM16.5783 24.4596L21.5423 21.178L21.5972 21.2487L19.5714 23.0228L16.6242 24.5365L16.5783 24.4596Z" fill="#CD6116"/>
<path d="M31.0257 30.6759L30.4751 30.2735L26.531 25.1946L31.0257 30.6759Z" fill="#F6851B"/>
<path fill-rule="evenodd" clip-rule="evenodd" d="M26.4954 25.2217L26.5662 25.1663L31.0608 30.6476L30.999 30.7118L30.4434 30.3057L26.4954 25.2217ZM28.6456 27.844L30.5072 30.2412L30.767 30.4311L28.6456 27.844Z" fill="#F6851B"/>
<path d="M16.6031 24.497L12.5237 21.0276L21.5671 21.2154L16.6031 24.497Z" fill="#CD6116"/>
<path fill-rule="evenodd" clip-rule="evenodd" d="M12.3988 20.9802L21.7116 21.1736L16.5998 24.553L12.3988 20.9802ZM12.6486 21.0748L16.6066 24.441L21.4228 21.257L12.6486 21.0748Z" fill="#CD6116"/>
<path d="M21.2784 25.5432L21.5672 21.2153L22.6773 23.9515L21.2784 25.5432Z" fill="#E4751F"/>
<path fill-rule="evenodd" clip-rule="evenodd" d="M21.5221 21.2122L21.609 21.1985L22.7294 23.9601L21.2244 25.6724L21.5221 21.2122ZM21.5991 21.4138L21.3321 25.4136L22.625 23.9426L21.5991 21.4138Z" fill="#E4751F"/>
<path d="M1.34091 13.704L2.07197 13.0244L2.55032 14.7323L1.34091 13.704Z" fill="#763D16"/>
<path fill-rule="evenodd" clip-rule="evenodd" d="M2.09597 12.9414L2.63392 14.8621L1.27383 13.7057L2.09597 12.9414ZM1.40893 13.7027L2.46766 14.6029L2.04891 13.1078L1.40893 13.7027Z" fill="#763D16"/>
<path d="M21.2783 25.5432L16.6031 24.497L19.5454 22.9858L21.2783 25.5432Z" fill="#233447"/>
<path fill-rule="evenodd" clip-rule="evenodd" d="M19.5606 22.9277L21.3791 25.6115L16.4728 24.5136L19.5606 22.9277ZM16.7337 24.4803L21.1778 25.4748L19.5306 23.0439L16.7337 24.4803Z" fill="#233447"/>
<path d="M10.3937 8.08863L1.66614 6.14825L5.23117 0.0856934L10.3937 8.08863Z" fill="#763D16"/>
<path fill-rule="evenodd" clip-rule="evenodd" d="M5.22949 0L10.4908 8.15611L1.59622 6.1786L5.22949 0ZM5.23306 0.17157L1.73626 6.11809L10.2968 8.02133L5.23306 0.17157Z" fill="#763D16"/>
<path d="M24.7351 35.7011L25.2315 37.0424L17.1989 35.1199L24.7351 35.7011Z" fill="#C0AD9E"/>
<path fill-rule="evenodd" clip-rule="evenodd" d="M17.1883 35.1635L17.2024 35.0754L24.7675 35.6589L25.3029 37.1056L17.1883 35.1635ZM17.7589 35.208L25.1601 36.9794L24.7027 35.7436L17.7589 35.208Z" fill="#C0AD9E"/>
<path d="M17.0454 27.9754L16.6031 24.4971L21.2783 25.5433L17.0454 27.9754Z" fill="#F6851B"/>
<path fill-rule="evenodd" clip-rule="evenodd" d="M16.5505 24.4392L21.4006 25.5246L17.0093 28.0477L16.5505 24.4392ZM16.6561 24.5545L17.0818 27.9027L21.1563 25.5616L16.6561 24.5545Z" fill="#F6851B"/>
<path d="M12.5237 21.0276L16.6031 24.497L17.0454 27.9754L12.5237 21.0276Z" fill="#E4751F"/>
<path fill-rule="evenodd" clip-rule="evenodd" d="M12.4859 21.0518L12.5533 20.9937L16.6459 24.4743L17.0904 27.9698L17.0077 27.9996L12.4859 21.0518ZM12.73 21.2618L16.976 27.786L16.5607 24.5197L12.73 21.2618Z" fill="#E4751F"/>
<path d="M22.6771 23.9516L26.2512 23.7459L30.4751 30.2734L22.6771 23.9516ZM12.5235 21.0276L17.0453 27.9754L11.4856 28.2436L12.5235 21.0276Z" fill="#F6851B"/>
<path fill-rule="evenodd" clip-rule="evenodd" d="M12.496 20.9026L17.1257 28.0162L11.4333 28.2909L12.496 20.9026ZM12.5513 21.1525L11.5381 28.1963L16.9651 27.9344L12.5513 21.1525ZM26.275 23.6997L30.5132 30.2492L30.4466 30.308L22.5591 23.9135L26.275 23.6997ZM22.7954 23.9895L30.2838 30.0604L26.2276 23.792L22.7954 23.9895Z" fill="#F6851B"/>
<path d="M22.6774 23.9517L27.1179 30.6491L21.2784 25.5433L22.6774 23.9517Z" fill="#E4751F"/>
<path fill-rule="evenodd" clip-rule="evenodd" d="M22.6822 23.8777L27.1554 30.6244L27.0878 30.6824L21.2148 25.5473L22.6822 23.8777ZM21.3417 25.539L26.8951 30.3947L22.6721 24.0253L21.3417 25.539Z" fill="#E4751F"/>
<path d="M21.2784 25.5432L27.1179 30.649L26.5041 31.1945L21.2784 25.5432Z" fill="#F6851B"/>
<path fill-rule="evenodd" clip-rule="evenodd" d="M21.2449 25.5735L21.308 25.5098L27.1855 30.6488L26.5008 31.2573L21.2449 25.5735ZM21.8858 26.1342L26.507 31.1317L27.0497 30.6493L21.8858 26.1342Z" fill="#F6851B"/>
<path d="M26.5043 31.1946L17.0457 27.9755L21.2786 25.5433L26.5043 31.1946ZM30.4755 30.2735L27.118 30.6491L22.6775 23.9517L30.4755 30.2735Z" fill="#F6851B"/>
<path fill-rule="evenodd" clip-rule="evenodd" d="M22.6394 23.9759L22.7057 23.9167L30.5865 30.3057L27.0951 30.6963L22.6394 23.9759ZM22.8767 24.1709L27.1401 30.6013L30.3637 30.2407L22.8767 24.1709ZM21.2869 25.4863L26.5372 31.164L26.4892 31.2365L16.9371 27.9856L21.2869 25.4863ZM17.1534 27.9647L26.3508 31.0948L21.2694 25.5997L17.1534 27.9647Z" fill="#F6851B"/>
<path d="M31.3597 33.4209L29.9157 36.2912L25.2315 37.0423L31.3597 33.4209ZM25.2315 37.0423L24.7351 35.7011L25.9355 34.3956L25.2315 37.0423Z" fill="#C0AD9E"/>
<path fill-rule="evenodd" clip-rule="evenodd" d="M31.4685 33.3044L29.9454 36.3317L25.2674 37.0819L25.2383 37.1913L24.683 35.691L25.9018 34.3655L25.9788 34.407L25.303 36.9479L31.4685 33.3044ZM25.2241 36.8934L25.8447 34.5604L24.7866 35.7112L25.2241 36.8934ZM25.4573 36.9608L29.8853 36.2508L31.2504 33.5374L25.4573 36.9608Z" fill="#C0AD9E"/>
<path d="M25.9354 34.3956L26.8199 34.0468L25.2314 37.0423L25.9354 34.3956ZM25.2314 37.0423L26.8199 34.0468L31.3596 33.4209L25.2314 37.0423Z" fill="#C0AD9E"/>
<path fill-rule="evenodd" clip-rule="evenodd" d="M26.8083 34.0031L26.7907 34.0056L26.7877 34.0112L25.8976 34.3622L25.1891 37.0259L25.117 37.1619L31.3828 33.4591L31.3534 33.3765L26.9007 33.9904L26.9166 33.9604L26.8083 34.0031ZM26.7232 34.1329L25.3763 36.6727L25.9732 34.4286L26.7232 34.1329ZM25.3459 36.9225L26.8491 34.0878L31.1451 33.4955L25.3459 36.9225Z" fill="#C0AD9E"/>
<path d="M30.4752 30.2734L31.5853 30.9441L28.2098 31.3465L30.4752 30.2734Z" fill="#161616"/>
<path fill-rule="evenodd" clip-rule="evenodd" d="M30.4778 30.2227L31.7199 30.973L28.2152 31.3908L28.1903 31.3061L30.4778 30.2227ZM28.4766 31.2696L31.4506 30.9151L30.4725 30.3242L28.4766 31.2696Z" fill="#161616"/>
<path d="M28.2099 31.3465L27.1178 30.649L30.4753 30.2734L28.2099 31.3465ZM27.8218 31.874L31.9283 31.3822L31.3597 33.4209L27.8218 31.874Z" fill="#161616"/>
<path fill-rule="evenodd" clip-rule="evenodd" d="M27.2486 30.6793L28.2131 31.2953L30.2139 30.3477L27.2486 30.6793ZM30.4701 30.229L30.4947 30.3138L28.2066 31.3976L26.9869 30.6186L30.4701 30.229ZM31.9897 31.3298L31.3893 33.4827L27.6532 31.8492L31.9897 31.3298ZM27.9903 31.8989L31.3301 33.3591L31.8669 31.4346L27.9903 31.8989Z" fill="#161616"/>
<path d="M31.3597 33.4209L26.8199 34.0468L27.8218 31.874L31.3597 33.4209ZM26.8199 34.0468L25.9355 34.3956L26.5041 31.1944L26.8199 34.0468ZM26.5041 31.1944L27.1178 30.6489L28.2099 31.3464L26.5041 31.1944ZM31.5854 30.944L31.9283 31.3822L27.8218 31.874L31.5854 30.944Z" fill="#161616"/>
<path fill-rule="evenodd" clip-rule="evenodd" d="M27.1134 30.5928L28.2345 31.3087L28.206 31.3908L26.5551 31.2437L26.8471 33.8806L27.7994 31.8151L27.826 31.8268L31.6031 30.8935L32.0129 31.417L27.9905 31.8987L31.5233 33.4434L26.8317 34.0903L25.8771 34.4666L26.4512 31.2345L26.3969 31.2296L27.1134 30.5928ZM26.4938 31.5106L25.9941 34.3243L26.7715 34.0178L26.4938 31.5106ZM26.8953 33.9912L27.8444 31.9326L31.1964 33.3982L26.8953 33.9912ZM28.5375 31.7431L31.844 31.3471L31.5679 30.9944L28.5375 31.7431ZM26.6115 31.159L28.0315 31.2855L27.1224 30.7049L26.6115 31.159Z" fill="#161616"/>
<path d="M27.8216 31.874L28.2097 31.3465L31.5852 30.9441L27.8216 31.874ZM26.5039 31.1945L27.8216 31.874L26.8198 34.0469L26.5039 31.1945Z" fill="#161616"/>
<path fill-rule="evenodd" clip-rule="evenodd" d="M28.2347 31.3885L27.9314 31.8008L30.8729 31.074L28.2347 31.3885ZM27.8081 31.8166L28.1849 31.3044L31.5799 30.8997L31.5962 30.9874L27.8537 31.9122L26.7929 34.213L26.4499 31.1161L27.8081 31.8166ZM27.7543 31.8897L26.5581 31.2727L26.8469 33.8807L27.7417 31.9398L27.712 31.9472L27.7543 31.8897Z" fill="#161616"/>
<path d="M28.2097 31.3466L27.8216 31.8742L26.5039 31.1946L28.2097 31.3466Z" fill="#161616"/>
<path fill-rule="evenodd" clip-rule="evenodd" d="M26.4831 31.2341L26.5079 31.1499L28.2931 31.309L27.8352 31.9314L26.4831 31.2341ZM26.7273 31.2592L27.808 31.8166L28.1263 31.3839L26.7273 31.2592Z" fill="#161616"/>
</svg>
