<svg width="29" height="30" viewBox="0 0 29 30" fill="none" xmlns="http://www.w3.org/2000/svg">
<path d="M27.4842 20.7425L25.733 26.6088L22.2952 25.6773L27.4842 20.7425Z" fill="#E4761B"/>
<path fill-rule="evenodd" clip-rule="evenodd" d="M27.5572 20.6241L25.7576 26.6524L22.2248 25.6952L27.5572 20.6241ZM22.3658 25.6596L25.7087 26.5654L27.4116 20.8611L22.3658 25.6596Z" fill="#E4761B"/>
<path d="M22.2952 25.6773L25.611 21.1762L27.4842 20.7425L22.2952 25.6773Z" fill="#E4761B"/>
<path fill-rule="evenodd" clip-rule="evenodd" d="M27.6036 20.6784L22.3201 25.703L22.2662 25.6564L25.5899 21.1447L27.6036 20.6784ZM25.6322 21.2079L22.5649 25.3716L27.3651 20.8067L25.6322 21.2079Z" fill="#E4761B"/>
<path d="M24.9078 16.3197L27.4844 20.7426L25.6112 21.1763L24.9078 16.3197ZM24.9078 16.3197L26.5658 15.182L27.4844 20.7426L24.9078 16.3197Z" fill="#F6851B"/>
<path fill-rule="evenodd" clip-rule="evenodd" d="M26.5919 15.1206L27.5186 20.7303L27.5395 20.7661L25.5811 21.2196L24.8732 16.3314L24.8601 16.309L26.5919 15.1206ZM24.9697 16.497L27.429 20.7187L25.641 21.1327L24.9697 16.497ZM27.4171 20.556L24.9553 16.3302L26.5394 15.2431L27.4171 20.556Z" fill="#F6851B"/>
<path d="M22.7977 12.9777L27.5633 11.0436L27.3264 12.1031L22.7977 12.9777ZM27.1757 13.3759L22.7977 12.9777L27.3264 12.1031L27.1757 13.3759Z" fill="#763D16"/>
<path fill-rule="evenodd" clip-rule="evenodd" d="M27.6132 10.9849L27.3619 12.1089L27.2074 13.4144L22.7944 13.013L22.7923 12.972L22.7841 12.9447L27.6132 10.9849ZM23.1486 12.8736L27.2966 12.0726L27.5135 11.1022L23.1486 12.8736ZM23.0509 12.965L27.2851 12.1472L27.1442 13.3373L23.0509 12.965Z" fill="#763D16"/>
<path d="M27.1757 13.3759L26.5657 15.182L22.7977 12.9777L27.1757 13.3759ZM28.1303 11.4916L27.3264 12.1031L27.5633 11.0436L28.1303 11.4916ZM27.1757 13.3759L27.3264 12.1031L27.9652 12.6293L27.1757 13.3759Z" fill="#763D16"/>
<path fill-rule="evenodd" clip-rule="evenodd" d="M27.5406 10.9802L28.1884 11.492L27.3838 12.1041L28.019 12.6273L27.2068 13.3954L26.5855 15.2349L22.7793 13.0082L22.8008 12.9422L27.144 13.3372L27.2808 12.1825L27.27 12.1907L27.2909 12.0971L27.2984 12.0337L27.304 12.0384L27.5406 10.9802ZM27.3543 12.1722L27.2229 13.282L27.9112 12.631L27.3543 12.1722ZM27.3827 12.0153L28.0719 11.4909L27.5858 11.1068L27.3827 12.0153ZM27.1272 13.4071L22.9534 13.0275L26.5456 15.1289L27.1272 13.4071Z" fill="#763D16"/>
<path d="M18.599 24.248L19.7904 24.6249L22.2952 25.6772L18.599 24.248Z" fill="#E2761B"/>
<path fill-rule="evenodd" clip-rule="evenodd" d="M18.5859 24.2813L18.6099 24.2144L19.8029 24.5917L22.3092 25.6448L22.2822 25.7106L18.5859 24.2813ZM19.6719 24.6249L20.0008 24.7521L19.7779 24.6585L19.6719 24.6249Z" fill="#E2761B"/>
<path d="M26.5657 15.1819L27.1757 13.3758L27.6996 13.774L26.5657 15.1819ZM26.5657 15.1819L21.6206 13.5678L22.7977 12.9776L26.5657 15.1819Z" fill="#763D16"/>
<path fill-rule="evenodd" clip-rule="evenodd" d="M22.7991 12.9373L26.5458 15.1291L27.1577 13.3174L27.7506 13.768L26.5938 15.2043L26.5666 15.1896L26.5545 15.2158L21.5273 13.5749L22.7991 12.9373ZM26.6641 15.003L27.6489 13.7803L27.1939 13.4345L26.6641 15.003ZM26.2613 15.0453L21.7141 13.561L22.7964 13.0183L26.2613 15.0453Z" fill="#763D16"/>
<path d="M23.9747 7.43835L22.7977 12.9776L21.6206 13.5678L23.9747 7.43835Z" fill="#763D16"/>
<path fill-rule="evenodd" clip-rule="evenodd" d="M21.6871 13.4946L22.7661 12.9536L23.8451 7.87589L21.6871 13.4946ZM23.9412 7.42572L24.0098 7.44569L22.8292 13.0016L21.5541 13.641L23.9412 7.42572Z" fill="#763D16"/>
<path d="M27.5633 11.0435L22.7977 12.9776L23.9747 7.43835L27.5633 11.0435Z" fill="#763D16"/>
<path fill-rule="evenodd" clip-rule="evenodd" d="M23.9533 7.36646L27.6264 11.0565L22.7485 13.0361L23.9533 7.36646ZM23.996 7.51063L22.8467 12.9194L27.5001 11.0309L23.996 7.51063Z" fill="#763D16"/>
<path d="M23.9746 7.43836L28.9484 6.86951L27.5632 11.0435L23.9746 7.43836Z" fill="#763D16"/>
<path fill-rule="evenodd" clip-rule="evenodd" d="M29 6.82794L27.5789 11.11L23.8974 7.41153L29 6.82794ZM24.0519 7.46544L27.5475 10.9772L28.8968 6.91133L24.0519 7.46544Z" fill="#763D16"/>
<path d="M26.5656 15.182L24.9077 16.3197L21.6206 13.5679L26.5656 15.182Z" fill="#F6851B"/>
<path fill-rule="evenodd" clip-rule="evenodd" d="M21.5973 13.5949L21.6317 13.534L26.6452 15.1705L24.9054 16.3643L21.5973 13.5949ZM21.7849 13.6589L24.9097 16.2749L26.4858 15.1933L21.7849 13.6589Z" fill="#F6851B"/>
<path d="M28.7331 2.88049L28.9484 6.86959L23.9746 7.43844L28.7331 2.88049Z" fill="#763D16"/>
<path fill-rule="evenodd" clip-rule="evenodd" d="M28.7649 2.80066L28.9862 6.90099L23.8737 7.48571L28.7649 2.80066ZM24.0758 7.39101L28.9109 6.83802L28.7016 2.96016L24.0758 7.39101Z" fill="#763D16"/>
<path d="M28.7332 2.88049L18.7928 10.041L18.6636 5.18435L28.7332 2.88049Z" fill="#E2761B"/>
<path fill-rule="evenodd" clip-rule="evenodd" d="M18.7002 5.21243L18.8269 9.97242L28.5695 2.9544L18.7002 5.21243ZM28.7251 2.84583L28.7543 2.90922L18.7587 10.1094L18.627 5.15622L28.7251 2.84583Z" fill="#E2761B"/>
<path d="M11.2712 4.6012L18.6636 5.18427L18.7928 10.0409L11.2712 4.6012Z" fill="#F6851B"/>
<path fill-rule="evenodd" clip-rule="evenodd" d="M11.1475 4.55585L18.6986 5.15144L18.8306 10.1123L11.1475 4.55585ZM11.3948 4.64669L18.755 9.96958L18.6286 5.21725L11.3948 4.64669Z" fill="#F6851B"/>
<path d="M21.6206 13.5678L18.7928 10.0409L23.9747 7.43835L21.6206 13.5678Z" fill="#763D16"/>
<path fill-rule="evenodd" clip-rule="evenodd" d="M24.0413 7.36517L21.6317 13.6389L18.7374 10.029L24.0413 7.36517ZM18.8483 10.053L21.6095 13.4968L23.9082 7.51173L18.8483 10.053Z" fill="#763D16"/>
<path d="M21.6207 13.5679L24.9079 16.3197L20.293 16.8246L21.6207 13.5679Z" fill="#E4761B"/>
<path fill-rule="evenodd" clip-rule="evenodd" d="M21.6059 13.5092L24.9947 16.3461L20.2371 16.8666L21.6059 13.5092ZM21.6353 13.6269L20.3486 16.7828L24.8208 16.2936L21.6353 13.6269Z" fill="#E4761B"/>
<path d="M20.2929 16.8246L18.7928 10.041L21.6206 13.5679L20.2929 16.8246Z" fill="#E4761B"/>
<path fill-rule="evenodd" clip-rule="evenodd" d="M18.7578 10.0485L18.8209 10.0188L21.6617 13.5619L20.2826 16.9445L18.7578 10.0485ZM18.861 10.1831L20.303 16.7045L21.5795 13.5737L18.861 10.1831Z" fill="#E4761B"/>
<path d="M23.9747 7.43844L18.7928 10.041L28.7332 2.88049L23.9747 7.43844Z" fill="#763D16"/>
<path fill-rule="evenodd" clip-rule="evenodd" d="M19.1771 9.80809L23.9536 7.40916L28.3398 3.20775L19.1771 9.80809ZM18.7717 10.0122L28.712 2.85175L28.758 2.90606L23.9957 7.46774L18.809 10.0727L18.7717 10.0122Z" fill="#763D16"/>
<path d="M11.3357 25.5635L13.6826 27.9883L10.4888 25.1085L11.3357 25.5635Z" fill="#C0AD9E"/>
<path fill-rule="evenodd" clip-rule="evenodd" d="M10.4647 25.1348L10.5059 25.0772L11.3577 25.5349L13.7085 27.9637L13.6585 28.0146L10.4647 25.1348ZM10.7318 25.2795L12.9263 27.2582L11.3137 25.5922L10.7318 25.2795Z" fill="#C0AD9E"/>
<path d="M22.2952 25.6773L23.4076 21.4891L25.611 21.1762L22.2952 25.6773Z" fill="#CD6116"/>
<path fill-rule="evenodd" clip-rule="evenodd" d="M25.6903 21.1292L22.3243 25.6984L22.2606 25.6684L23.3791 21.4574L25.6903 21.1292ZM23.4364 21.5211L22.3784 25.5044L25.532 21.2235L23.4364 21.5211Z" fill="#CD6116"/>
<path d="M1.81879 13.8949L5.88105 9.664L2.34272 13.39L1.81879 13.8949Z" fill="#E2761B"/>
<path d="M25.6111 21.1762L23.4077 21.4891L24.9078 16.3196L25.6111 21.1762ZM18.7928 10.0409L14.8382 9.91288L11.2712 4.6012L18.7928 10.0409Z" fill="#F6851B"/>
<path fill-rule="evenodd" clip-rule="evenodd" d="M11.2413 4.62092L11.2924 4.57251L18.9081 10.0802L14.8186 9.94784L11.2413 4.62092ZM11.4125 4.74741L14.8579 9.87797L18.6776 10.0016L11.4125 4.74741ZM23.4576 21.4461L25.5705 21.1461L24.896 16.4888L23.4576 21.4461ZM24.8733 16.3098L24.9433 16.3146L25.6518 21.2064L23.3579 21.5321L24.8733 16.3098Z" fill="#F6851B"/>
<path d="M24.9077 16.3197L23.4077 21.4892L23.2856 18.9649L24.9077 16.3197Z" fill="#E4751F"/>
<path fill-rule="evenodd" clip-rule="evenodd" d="M23.3221 18.974L23.4332 21.2727L24.7991 16.5652L23.3221 18.974ZM24.8771 16.3012L24.9422 16.3295L23.4422 21.499L23.3719 21.4908L23.2493 18.9557L24.8771 16.3012Z" fill="#E4751F"/>
<path d="M20.293 16.8246L24.9079 16.3197L23.2858 18.9649L20.293 16.8246Z" fill="#CD6116"/>
<path fill-rule="evenodd" clip-rule="evenodd" d="M24.9762 16.2764L23.2961 19.0162L20.1962 16.7993L24.9762 16.2764ZM20.3893 16.8498L23.2751 18.9135L24.8392 16.363L20.3893 16.8498Z" fill="#CD6116"/>
<path d="M14.8382 9.9129L18.7928 10.0409L20.2928 16.8245L14.8382 9.9129Z" fill="#F6851B"/>
<path fill-rule="evenodd" clip-rule="evenodd" d="M14.7626 9.87482L18.8219 10.0062L20.3279 16.8168L20.2646 16.8463L14.7626 9.87482ZM14.9137 9.95085L20.2241 16.6796L18.7637 10.0755L14.9137 9.95085Z" fill="#F6851B"/>
<path d="M14.8382 9.91284L4.16578 0.12854L11.2712 4.60116L14.8382 9.91284ZM11.264 27.0496L1.99111 29.8939L0.139404 22.8898L11.264 27.0496Z" fill="#E4761B"/>
<path fill-rule="evenodd" clip-rule="evenodd" d="M4.14136 0.154676L4.18498 0.0985718L11.2968 4.57524L14.868 9.8932L14.8138 9.93899L4.14136 0.154676ZM4.48093 0.369115L14.6414 9.68405L11.2454 4.62717L4.48093 0.369115ZM0.0870361 22.8323L11.3744 27.053L1.96584 29.9389L0.0870361 22.8323ZM0.191665 22.9475L2.01627 29.849L11.1534 27.0463L0.191665 22.9475Z" fill="#E4761B"/>
<path d="M3.1969 15.6442L6.69935 12.9208L9.6348 13.5964L3.1969 15.6442Z" fill="#763D16"/>
<path fill-rule="evenodd" clip-rule="evenodd" d="M6.69066 12.8823L9.76943 13.5908L3.20781 15.678L3.17468 15.6162L6.69066 12.8823ZM6.70792 12.9592L3.37647 15.5497L9.50005 13.6018L6.70792 12.9592Z" fill="#763D16"/>
<path d="M9.63473 13.5962L6.69928 12.9207L8.27107 6.49261L9.63473 13.5962Z" fill="#763D16"/>
<path fill-rule="evenodd" clip-rule="evenodd" d="M6.7427 12.8942L9.5892 13.5493L8.26686 6.66097L6.7427 12.8942ZM8.23621 6.48431L8.30634 6.48604L9.68029 13.6432L6.65588 12.9473L8.23621 6.48431Z" fill="#763D16"/>
<path d="M2.34271 13.3901L6.69924 12.9208L3.19679 15.6442L2.34271 13.3901Z" fill="#763D16"/>
<path fill-rule="evenodd" clip-rule="evenodd" d="M6.82021 12.8719L3.18052 15.7021L2.29297 13.3596L6.82021 12.8719ZM2.39266 13.4204L3.21328 15.5862L6.57848 12.9695L2.39266 13.4204Z" fill="#763D16"/>
<path d="M23.2858 18.9649L21.4772 18.0618L20.293 16.8246L23.2858 18.9649Z" fill="#CD6116"/>
<path fill-rule="evenodd" clip-rule="evenodd" d="M20.2668 16.8489L20.3139 16.7957L23.3068 18.936L23.2696 18.9965L21.4554 18.0907L20.2668 16.8489ZM20.5826 17.0756L21.4989 18.0328L22.8981 18.7314L20.5826 17.0756Z" fill="#CD6116"/>
<path d="M2.3428 13.3901L2.03418 11.776L6.69933 12.9208L2.3428 13.3901Z" fill="#763D16"/>
<path fill-rule="evenodd" clip-rule="evenodd" d="M1.98846 11.728L6.7079 12.8862L6.70316 12.956L2.31366 13.4289L1.98846 11.728ZM2.0798 11.8237L2.37184 13.3511L6.49427 12.907L2.0798 11.8237Z" fill="#763D16"/>
<path d="M21.1038 20.0954L21.477 18.0617L23.2857 18.9648L21.1038 20.0954Z" fill="#233447"/>
<path fill-rule="evenodd" clip-rule="evenodd" d="M21.4503 18.0087L23.3642 18.9643L21.0554 20.1607L21.4503 18.0087ZM21.5037 18.115L21.1522 20.0303L23.2071 18.9655L21.5037 18.115Z" fill="#233447"/>
<path d="M23.4077 21.4891L21.1038 20.0954L23.2857 18.9648L23.4077 21.4891Z" fill="#F6851B"/>
<path fill-rule="evenodd" clip-rule="evenodd" d="M23.3188 18.9074L23.4467 21.5543L21.0309 20.0929L23.3188 18.9074ZM21.1766 20.0977L23.3685 21.4237L23.2525 19.022L21.1766 20.0977Z" fill="#F6851B"/>
<path d="M6.69922 12.9207L2.03408 11.7759L1.65369 10.4177L6.69922 12.9207ZM8.27102 6.49261L6.69922 12.9207L1.65369 10.4177L8.27102 6.49261ZM8.27102 6.49261L14.8381 9.91286L9.63468 13.5962L8.27102 6.49261Z" fill="#763D16"/>
<path fill-rule="evenodd" clip-rule="evenodd" d="M8.21607 6.56681L1.72832 10.415L6.67505 12.869L8.21607 6.56681ZM6.39458 12.8094L1.70996 10.4855L2.06313 11.7464L6.39458 12.8094ZM1.61188 10.4012L1.57922 10.4206L1.62345 10.4425L2.00519 11.8055L6.68681 12.9543L6.72357 12.9726L8.26688 6.66101L9.60999 13.6575L14.9065 9.90835L8.31257 6.47415L8.32614 6.41864L8.26996 6.45196L8.22195 6.42696L8.23117 6.47498L1.65223 10.3773L1.59759 10.3502L1.61188 10.4012ZM8.32026 6.55849L9.65954 13.5351L14.7699 9.91758L8.32026 6.55849Z" fill="#763D16"/>
<path d="M9.63477 13.5962L14.8382 9.9129L17.1564 16.9311L9.63477 13.5962ZM17.1564 16.9311L9.96492 16.7818L9.63477 13.5962L17.1564 16.9311Z" fill="#E4761B"/>
<path fill-rule="evenodd" clip-rule="evenodd" d="M14.8571 9.85577L17.2157 16.9963L17.1484 16.9665L9.93247 16.8167L9.6012 13.6202L9.56299 13.6033L9.59695 13.5793L9.59273 13.5386L9.63066 13.5554L14.8571 9.85577ZM9.67682 13.6538L16.9801 16.8919L9.99739 16.7469L9.67682 13.6538ZM17.0971 16.8658L9.70657 13.5891L14.8193 9.96993L17.0971 16.8658Z" fill="#E4761B"/>
<path d="M3.1969 15.6441L9.6348 13.5962L9.96495 16.7818L3.1969 15.6441ZM20.2929 16.8245L17.1564 16.9311L14.8382 9.9129L20.2929 16.8245Z" fill="#F6851B"/>
<path fill-rule="evenodd" clip-rule="evenodd" d="M14.8041 9.92389L14.8665 9.89093L20.3646 16.8576L17.1307 16.9675L14.8041 9.92389ZM14.9359 10.0944L17.1822 16.8946L20.2211 16.7913L14.9359 10.0944ZM9.66596 13.5489L10.0055 16.8246L3.19088 15.6791L3.18591 15.6102L9.66596 13.5489ZM3.34786 15.6334L9.92441 16.7389L9.60361 13.6434L3.34786 15.6334Z" fill="#F6851B"/>
<path d="M21.4772 18.0618L21.104 20.0955L20.293 16.8246L21.4772 18.0618Z" fill="#CD6116"/>
<path fill-rule="evenodd" clip-rule="evenodd" d="M20.2256 16.7026L21.5155 18.0503L21.1391 20.1017L21.0689 20.1038L20.2256 16.7026ZM20.3599 16.9463L21.0985 19.9252L21.4384 18.0731L20.3599 16.9463Z" fill="#CD6116"/>
<path d="M4.16577 0.12854L14.8382 9.91284L8.2711 6.4926L4.16577 0.12854Z" fill="#763D16"/>
<path fill-rule="evenodd" clip-rule="evenodd" d="M4.13562 0.14778L4.19023 0.102539L14.8626 9.88684L14.8216 9.94441L8.24607 6.51978L4.13562 0.14778ZM4.34656 0.342741L8.2963 6.46561L14.6145 9.75623L4.34656 0.342741Z" fill="#763D16"/>
<path d="M0.139404 22.8899L9.13955 22.5201L11.264 27.0496L0.139404 22.8899Z" fill="#E4761B"/>
<path fill-rule="evenodd" clip-rule="evenodd" d="M9.16197 22.4838L11.3336 27.1138L0.126709 22.9233L0.137894 22.8545L9.16197 22.4838ZM0.316691 22.9183L11.1944 26.9857L9.11708 22.5568L0.316691 22.9183Z" fill="#E4761B"/>
<path d="M11.264 27.0497L9.13953 22.5202L13.5606 22.3069L11.264 27.0497Z" fill="#CD6116"/>
<path fill-rule="evenodd" clip-rule="evenodd" d="M13.6191 22.2684L11.2635 27.1329L9.08453 22.4872L13.6191 22.2684ZM9.19458 22.553L11.2645 26.9663L13.5023 22.3452L9.19458 22.553Z" fill="#CD6116"/>
<path d="M21.1039 20.0953L23.4077 21.489L24.6781 24.4542L21.1039 20.0953ZM9.96492 16.7818L0.139404 22.8898L3.19687 15.644L9.96492 16.7818ZM9.13955 22.5201L0.139404 22.8898L9.96492 16.7818L9.13955 22.5201ZM20.2928 16.8244L20.8814 18.9434L18.0392 19.1069L20.2928 16.8244ZM18.0392 19.1069L17.1564 16.9311L20.2928 16.8244L18.0392 19.1069Z" fill="#F6851B"/>
<path fill-rule="evenodd" clip-rule="evenodd" d="M3.1748 15.6044L9.95748 16.7446L10.0114 16.7111L10.0054 16.7527L10.0638 16.7625L9.99815 16.8033L9.17091 22.5545L0.150451 22.9251L0.062711 22.9797L0.0845848 22.9278L0.00585938 22.9311L0.110729 22.8659L3.1748 15.6044ZM3.21902 15.684L0.216182 22.8003L9.86616 16.8014L3.21902 15.684ZM9.91853 16.8528L0.273034 22.8489L9.10828 22.4859L9.91853 16.8528ZM20.333 16.8348L20.3812 16.786L20.32 16.7881L20.3109 16.7555L20.2773 16.7895L17.1041 16.8975L17.9972 19.0988L17.9488 19.1479L18.0156 19.1441L18.0265 19.1709L18.0552 19.1418L20.9278 18.9765L20.333 16.8348ZM17.2089 16.965L18.0521 19.0433L20.2046 16.8632L17.2089 16.965ZM20.2749 16.8937L18.1298 19.0663L20.835 18.9106L20.2749 16.8937ZM21.0761 20.1179L21.1226 20.0652L23.4363 21.4648L24.7112 24.4405L24.6503 24.4768L21.0761 20.1179ZM21.2634 20.2337L24.5459 24.2367L23.3792 21.5136L21.2634 20.2337Z" fill="#F6851B"/>
<path d="M13.6827 27.9882L11.264 27.0496L19.6756 28.4504L13.6827 27.9882Z" fill="#C0AD9E"/>
<path fill-rule="evenodd" clip-rule="evenodd" d="M11.2508 27.0828L11.2698 27.0146L19.6815 28.4154L19.6727 28.4859L13.6745 28.0233L11.2508 27.0828ZM11.599 27.1415L13.6907 27.9532L18.8734 28.3529L11.599 27.1415Z" fill="#C0AD9E"/>
<path d="M3.1968 15.6441L1.81879 13.8949L2.34272 13.39L3.1968 15.6441Z" fill="#763D16"/>
<path fill-rule="evenodd" clip-rule="evenodd" d="M2.35708 13.3268L3.23045 15.6318L3.16856 15.6661L1.77075 13.8918L2.35708 13.3268ZM1.86693 13.8983L3.08082 15.4392L2.32846 13.4536L1.86693 13.8983Z" fill="#763D16"/>
<path d="M20.6302 27.4122L19.6756 28.4504L11.264 27.0496L20.6302 27.4122Z" fill="#D7C1B3"/>
<path fill-rule="evenodd" clip-rule="evenodd" d="M11.2581 27.0847L11.2654 27.0141L20.7087 27.3797L19.689 28.4887L11.2581 27.0847ZM11.8245 27.1069L19.6623 28.4121L20.5517 27.4448L11.8245 27.1069Z" fill="#D7C1B3"/>
<path d="M21.0823 24.8667L11.264 27.0497L13.5607 22.3069L21.0823 24.8667Z" fill="#E4761B"/>
<path fill-rule="evenodd" clip-rule="evenodd" d="M13.5422 22.263L21.2139 24.8739L11.1996 27.1005L13.5422 22.263ZM13.5793 22.3508L11.3284 26.999L20.9508 24.8596L13.5793 22.3508Z" fill="#E4761B"/>
<path d="M11.264 27.0497L21.0823 24.8668L20.6302 27.4124L11.264 27.0497Z" fill="#D7C1B3"/>
<path fill-rule="evenodd" clip-rule="evenodd" d="M21.127 24.8203L20.66 27.449L11.2626 27.0852L11.2561 27.015L21.127 24.8203ZM11.5398 27.0248L20.6002 27.3756L21.0376 24.9131L11.5398 27.0248Z" fill="#D7C1B3"/>
<path d="M1.65372 10.4177L1.33075 4.94958L8.27105 6.4926L1.65372 10.4177ZM2.34273 13.39L1.38817 12.43L2.03411 11.7758L2.34273 13.39Z" fill="#763D16"/>
<path fill-rule="evenodd" clip-rule="evenodd" d="M1.29218 4.90466L8.36658 6.4775L1.62139 10.4784L1.29218 4.90466ZM1.36939 4.9947L1.68612 10.3572L8.17559 6.50791L1.36939 4.9947ZM2.0566 11.7024L2.39997 13.4983L1.33791 12.4302L2.0566 11.7024ZM1.43849 12.43L2.28555 13.2819L2.01169 11.8495L1.43849 12.43Z" fill="#763D16"/>
<path d="M15.5487 18.3392L17.1564 16.9313L16.9267 20.3728L15.5487 18.3392Z" fill="#CD6116"/>
<path fill-rule="evenodd" clip-rule="evenodd" d="M17.198 16.8474L16.9556 20.4792L15.5014 18.3332L17.198 16.8474ZM15.596 18.3452L16.8979 20.2664L17.1148 17.0151L15.596 18.3452Z" fill="#CD6116"/>
<path d="M17.1564 16.9313L15.5487 18.3392L13.209 19.5409L17.1564 16.9313Z" fill="#CD6116"/>
<path fill-rule="evenodd" clip-rule="evenodd" d="M13.7703 19.2124L15.5283 18.3095L16.7362 17.2517L13.7703 19.2124ZM13.1891 19.5112L17.1365 16.9016L17.1802 16.9578L15.5692 18.3686L13.2255 19.5723L13.1891 19.5112Z" fill="#CD6116"/>
<path d="M24.678 24.4544L24.2402 24.1344L21.1038 20.0955L24.678 24.4544Z" fill="#F6851B"/>
<path fill-rule="evenodd" clip-rule="evenodd" d="M21.0754 20.1171L21.1317 20.073L24.706 24.4319L24.6568 24.4829L24.2149 24.1599L21.0754 20.1171ZM22.7853 22.2024L24.2657 24.1086L24.4723 24.2597L22.7853 22.2024Z" fill="#F6851B"/>
<path d="M13.2089 19.5407L9.96484 16.7818L17.1564 16.9311L13.2089 19.5407Z" fill="#CD6116"/>
<path fill-rule="evenodd" clip-rule="evenodd" d="M9.86554 16.7443L17.2712 16.898L13.2062 19.5854L9.86554 16.7443ZM10.0642 16.8195L13.2117 19.4963L17.0415 16.9644L10.0642 16.8195Z" fill="#CD6116"/>
<path d="M16.9267 20.3728L17.1564 16.9313L18.0392 19.1071L16.9267 20.3728Z" fill="#E4751F"/>
<path fill-rule="evenodd" clip-rule="evenodd" d="M17.1205 16.9288L17.1896 16.9178L18.0806 19.1139L16.8839 20.4755L17.1205 16.9288ZM17.1818 17.0891L16.9695 20.2698L17.9976 19.1L17.1818 17.0891Z" fill="#E4751F"/>
<path d="M1.07239 10.9581L1.65374 10.4177L2.03413 11.7759L1.07239 10.9581Z" fill="#763D16"/>
<path fill-rule="evenodd" clip-rule="evenodd" d="M1.67252 10.3516L2.1003 11.8789L1.01874 10.9593L1.67252 10.3516ZM1.12617 10.9569L1.96808 11.6728L1.63509 10.4839L1.12617 10.9569Z" fill="#763D16"/>
<path d="M16.9267 20.3728L13.209 19.5409L15.5487 18.3392L16.9267 20.3728Z" fill="#233447"/>
<path fill-rule="evenodd" clip-rule="evenodd" d="M15.5607 18.2928L17.0068 20.4271L13.1053 19.554L15.5607 18.2928ZM13.3128 19.5275L16.8467 20.3183L15.5368 18.3852L13.3128 19.5275Z" fill="#233447"/>
<path d="M8.27105 6.4926L1.33075 4.94958L4.16572 0.12854L8.27105 6.4926Z" fill="#763D16"/>
<path fill-rule="evenodd" clip-rule="evenodd" d="M4.16426 0.0604248L8.34817 6.5463L1.27502 4.97374L4.16426 0.0604248ZM4.16709 0.19686L1.38638 4.92563L8.19385 6.43911L4.16709 0.19686Z" fill="#763D16"/>
<path d="M19.6756 28.4505L20.0704 29.5171L13.6827 27.9883L19.6756 28.4505Z" fill="#C0AD9E"/>
<path fill-rule="evenodd" clip-rule="evenodd" d="M13.6743 28.0229L13.6855 27.9529L19.7014 28.4169L20.1271 29.5674L13.6743 28.0229ZM14.128 28.0584L20.0136 29.467L19.6498 28.4843L14.128 28.0584Z" fill="#C0AD9E"/>
<path d="M13.5607 22.3069L13.209 19.5408L16.9267 20.3728L13.5607 22.3069Z" fill="#F6851B"/>
<path fill-rule="evenodd" clip-rule="evenodd" d="M13.1669 19.4949L17.0238 20.358L13.5318 22.3645L13.1669 19.4949ZM13.2509 19.5866L13.5894 22.2492L16.8296 20.3874L13.2509 19.5866Z" fill="#F6851B"/>
<path d="M9.96484 16.7818L13.2089 19.5407L13.5606 22.3068L9.96484 16.7818Z" fill="#E4751F"/>
<path fill-rule="evenodd" clip-rule="evenodd" d="M9.93475 16.8012L9.98829 16.7549L13.2429 19.5228L13.5963 22.3025L13.5305 22.3262L9.93475 16.8012ZM10.1288 16.9682L13.5053 22.1563L13.1751 19.5589L10.1288 16.9682Z" fill="#E4751F"/>
<path d="M18.0392 19.107L20.8813 18.9434L24.2402 24.1342L18.0392 19.107ZM9.9649 16.7818L13.5606 22.3068L9.13953 22.5201L9.9649 16.7818Z" fill="#F6851B"/>
<path fill-rule="evenodd" clip-rule="evenodd" d="M9.94291 16.6825L13.6245 22.3394L9.09784 22.5578L9.94291 16.6825ZM9.98683 16.8812L9.18115 22.4826L13.4968 22.2743L9.98683 16.8812ZM20.9002 18.9068L24.2704 24.1151L24.2175 24.1618L17.9452 19.0768L20.9002 18.9068ZM18.1331 19.1372L24.088 23.965L20.8624 18.9802L18.1331 19.1372Z" fill="#F6851B"/>
<path d="M18.0392 19.1071L21.5703 24.433L16.9267 20.3728L18.0392 19.1071Z" fill="#E4751F"/>
<path fill-rule="evenodd" clip-rule="evenodd" d="M18.0432 19.0484L21.6004 24.4135L21.5466 24.4597L16.8763 20.3761L18.0432 19.0484ZM16.9772 20.3695L21.3934 24.2309L18.0352 19.1658L16.9772 20.3695Z" fill="#E4751F"/>
<path d="M16.9267 20.3729L21.5703 24.4331L21.0823 24.8668L16.9267 20.3729Z" fill="#F6851B"/>
<path fill-rule="evenodd" clip-rule="evenodd" d="M16.9002 20.3968L16.9504 20.3461L21.6243 24.4328L21.0798 24.9167L16.9002 20.3968ZM17.4098 20.8427L21.0847 24.8168L21.5163 24.4332L17.4098 20.8427Z" fill="#F6851B"/>
<path d="M21.0823 24.8668L13.5607 22.3069L16.9268 20.3728L21.0823 24.8668ZM24.2403 24.1344L21.5704 24.433L18.0392 19.1071L24.2403 24.1344Z" fill="#F6851B"/>
<path fill-rule="evenodd" clip-rule="evenodd" d="M18.0092 19.1265L18.062 19.0795L24.3289 24.1601L21.5525 24.4707L18.0092 19.1265ZM18.1979 19.2816L21.5883 24.3951L24.1517 24.1084L18.1979 19.2816ZM16.9337 20.3276L21.1088 24.8426L21.0707 24.9003L13.4747 22.3151L16.9337 20.3276ZM13.6467 22.2985L20.9606 24.7876L16.9198 20.4178L13.6467 22.2985Z" fill="#F6851B"/>
<path d="M24.9436 26.6373L23.7953 28.9198L20.0703 29.5171L24.9436 26.6373ZM20.0703 29.5171L19.6756 28.4505L20.6302 27.4123L20.0703 29.5171Z" fill="#C0AD9E"/>
<path fill-rule="evenodd" clip-rule="evenodd" d="M25.0303 26.5447L23.8192 28.952L20.0991 29.5485L20.0759 29.6356L19.6344 28.4425L20.6036 27.3884L20.6648 27.4214L20.1274 29.442L25.0303 26.5447ZM20.0647 29.3987L20.5582 27.5434L19.7168 28.4585L20.0647 29.3987ZM20.2501 29.4523L23.7714 28.8877L24.8569 26.7299L20.2501 29.4523Z" fill="#C0AD9E"/>
<path d="M20.6301 27.4123L21.3334 27.135L20.0703 29.5171L20.6301 27.4123ZM20.0703 29.5171L21.3334 27.135L24.9435 26.6373L20.0703 29.5171Z" fill="#C0AD9E"/>
<path fill-rule="evenodd" clip-rule="evenodd" d="M21.3243 27.1003L21.3104 27.1023L21.308 27.1068L20.6001 27.3859L20.0367 29.5041L19.9794 29.6122L24.962 26.6677L24.9387 26.602L21.3978 27.0902L21.4105 27.0664L21.3243 27.1003ZM21.2566 27.2035L20.1856 29.2232L20.6603 27.4387L21.2566 27.2035ZM20.1614 29.4218L21.3568 27.1676L24.773 26.6966L20.1614 29.4218Z" fill="#C0AD9E"/>
<path d="M24.2403 24.1344L25.1231 24.6677L22.4388 24.9877L24.2403 24.1344Z" fill="#161616"/>
<path fill-rule="evenodd" clip-rule="evenodd" d="M24.2423 24.094L25.2301 24.6907L22.443 25.0229L22.4233 24.9556L24.2423 24.094ZM22.651 24.9265L25.0159 24.6446L24.2382 24.1748L22.651 24.9265Z" fill="#161616"/>
<path d="M22.4388 24.9877L21.5704 24.433L24.2403 24.1344L22.4388 24.9877ZM22.1302 25.4072L25.3958 25.0161L24.9436 26.6373L22.1302 25.4072Z" fill="#161616"/>
<path fill-rule="evenodd" clip-rule="evenodd" d="M21.6744 24.4571L22.4414 24.9469L24.0324 24.1933L21.6744 24.4571ZM24.2362 24.0989L24.2557 24.1663L22.4362 25.0282L21.4663 24.4088L24.2362 24.0989ZM25.4446 24.9743L24.9671 26.6864L21.9961 25.3873L25.4446 24.9743ZM22.2642 25.4268L24.9201 26.5881L25.3469 25.0577L22.2642 25.4268Z" fill="#161616"/>
<path d="M24.9437 26.6372L21.3335 27.135L22.1302 25.4071L24.9437 26.6372ZM21.3335 27.135L20.6302 27.4123L21.0823 24.8667L21.3335 27.135ZM21.0823 24.8667L21.5704 24.4329L22.4388 24.9876L21.0823 24.8667ZM25.1231 24.6676L25.3958 25.016L22.1302 25.4071L25.1231 24.6676Z" fill="#161616"/>
<path fill-rule="evenodd" clip-rule="evenodd" d="M21.5668 24.3883L22.4583 24.9576L22.4356 25.0229L21.1228 24.9059L21.355 27.0028L22.1123 25.3604L22.1334 25.3696L25.1371 24.6274L25.4629 25.0437L22.2643 25.4268L25.0736 26.6552L21.3428 27.1696L20.5837 27.4689L21.0402 24.8986L20.997 24.8947L21.5668 24.3883ZM21.0741 25.1182L20.6767 27.3557L21.2949 27.1119L21.0741 25.1182ZM21.3933 27.0908L22.1481 25.4538L24.8136 26.6192L21.3933 27.0908ZM22.6992 25.3031L25.3286 24.9882L25.109 24.7076L22.6992 25.3031ZM21.1677 24.8386L22.2969 24.9392L21.574 24.4775L21.1677 24.8386Z" fill="#161616"/>
<path d="M22.1301 25.4072L22.4387 24.9876L25.123 24.6677L22.1301 25.4072ZM21.0822 24.8668L22.1301 25.4072L21.3334 27.1351L21.0822 24.8668Z" fill="#161616"/>
<path fill-rule="evenodd" clip-rule="evenodd" d="M22.4585 25.0211L22.2173 25.3489L24.5564 24.771L22.4585 25.0211ZM22.1192 25.3615L22.4189 24.9542L25.1186 24.6323L25.1316 24.7021L22.1555 25.4375L21.3119 27.2672L21.0392 24.8045L22.1192 25.3615ZM22.0765 25.4196L21.1252 24.929L21.3548 27.0029L22.0665 25.4595L22.0428 25.4653L22.0765 25.4196Z" fill="#161616"/>
<path d="M22.4387 24.9876L22.1301 25.4072L21.0822 24.8668L22.4387 24.9876Z" fill="#161616"/>
<path fill-rule="evenodd" clip-rule="evenodd" d="M21.0657 24.8983L21.0855 24.8314L22.5051 24.9579L22.141 25.4528L21.0657 24.8983ZM21.2599 24.9183L22.1194 25.3615L22.3725 25.0174L21.2599 24.9183Z" fill="#161616"/>
</svg>
