<svg width="23" height="27" viewBox="0 0 23 27" fill="none" xmlns="http://www.w3.org/2000/svg">
<path d="M11.5323 26L11.1915 26.6681C11.4066 26.7778 11.6612 26.7773 11.8758 26.6667L11.5323 26ZM21.864 4.52941L22.6128 4.48556C22.5999 4.26528 22.4906 4.06185 22.3141 3.92944C22.1375 3.79703 21.9117 3.74908 21.6966 3.79835L21.864 4.52941ZM12.2823 1C12.2823 0.585786 11.9465 0.25 11.5323 0.25C11.1181 0.25 10.7823 0.585786 10.7823 1H12.2823ZM1.13596 4.52941L1.30343 3.79835C1.08833 3.74908 0.862453 3.79703 0.685927 3.92944C0.509401 4.06185 0.400143 4.26528 0.387242 4.48556L1.13596 4.52941ZM11.5323 26C11.8758 26.6667 11.8759 26.6667 11.8759 26.6667C11.876 26.6666 11.8761 26.6666 11.8762 26.6665C11.8764 26.6664 11.8767 26.6663 11.8771 26.6661C11.8779 26.6656 11.8791 26.665 11.8807 26.6642C11.8838 26.6626 11.8885 26.6602 11.8947 26.657C11.9071 26.6506 11.9254 26.6411 11.9493 26.6288C11.9971 26.6041 12.0672 26.5679 12.1566 26.5216C12.3353 26.429 12.5912 26.2962 12.9003 26.135C13.5183 25.8126 14.3496 25.3764 15.2019 24.9214C16.0533 24.467 16.9295 23.9918 17.6358 23.592C17.9884 23.3924 18.3037 23.2088 18.5544 23.0544C18.7849 22.9124 19.0162 22.762 19.1566 22.6353L18.1518 21.5216C18.1539 21.5197 18.1469 21.526 18.126 21.5418C18.1061 21.5566 18.0792 21.5759 18.0443 21.5997C17.974 21.6476 17.8817 21.707 17.7676 21.7773C17.5396 21.9177 17.2425 22.091 16.8969 22.2866C16.2067 22.6773 15.3432 23.1457 14.4956 23.5982C13.6489 24.0501 12.822 24.484 12.2066 24.805C11.8989 24.9655 11.6443 25.0976 11.4667 25.1897C11.3778 25.2357 11.3083 25.2716 11.261 25.2961C11.2373 25.3083 11.2192 25.3176 11.2071 25.3239C11.201 25.327 11.1964 25.3294 11.1934 25.331C11.1918 25.3317 11.1907 25.3323 11.1899 25.3327C11.1895 25.3329 11.1893 25.3331 11.1891 25.3332C11.189 25.3332 11.1889 25.3332 11.1889 25.3333C11.1888 25.3333 11.1888 25.3333 11.5323 26ZM19.1566 22.6353C19.2991 22.5068 19.7001 22.1915 20.1525 21.5831C20.6035 20.9767 21.0991 20.0932 21.5352 18.7791C22.4039 16.1611 23.0421 11.816 22.6128 4.48556L21.1153 4.57326C21.5386 11.8017 20.8979 15.937 20.1115 18.3067C19.72 19.4864 19.2941 20.2237 18.9488 20.6881C18.6051 21.1504 18.3353 21.356 18.1518 21.5216L19.1566 22.6353ZM21.6966 3.79835C21.0192 3.95352 20.0736 3.95342 18.9948 3.80944C17.928 3.66706 16.7842 3.3913 15.7351 3.03597C14.6807 2.67883 13.7555 2.25261 13.1101 1.82415C12.7863 1.60921 12.5606 1.41178 12.4233 1.24521C12.2822 1.07393 12.2823 0.995198 12.2823 1H10.7823C10.7823 1.47539 11.0051 1.88287 11.2659 2.1993C11.5306 2.52044 11.8864 2.81221 12.2804 3.07382C13.0707 3.59849 14.1266 4.07485 15.2539 4.45668C16.3865 4.84032 17.625 5.13993 18.7963 5.29626C19.9557 5.45099 21.104 5.47295 22.0315 5.26048L21.6966 3.79835ZM11.5323 26C11.8731 25.3319 11.8731 25.3319 11.8731 25.3319C11.873 25.3319 11.873 25.3318 11.8729 25.3318C11.8727 25.3317 11.8724 25.3315 11.872 25.3313C11.8713 25.3309 11.8701 25.3304 11.8686 25.3296C11.8655 25.328 11.8608 25.3256 11.8547 25.3225C11.8424 25.3162 11.8242 25.3069 11.8003 25.2947C11.7525 25.2702 11.6822 25.2343 11.5925 25.1883C11.4131 25.0963 11.156 24.9641 10.8453 24.8036C10.2238 24.4826 9.38888 24.0487 8.53414 23.5968C7.67848 23.1444 6.80697 22.6759 6.1108 22.2853C5.76222 22.0897 5.46268 21.9164 5.23312 21.776C5.11819 21.7057 5.02532 21.6464 4.95482 21.5986C4.91972 21.5748 4.89282 21.5557 4.87311 21.5409C4.85219 21.5253 4.84562 21.5192 4.84821 21.5216L3.84341 22.6353C3.98498 22.763 4.21868 22.9139 4.45049 23.0556C4.70308 23.2101 5.02101 23.3938 5.37674 23.5934C6.08916 23.9932 6.97353 24.4684 7.833 24.9228C8.69339 25.3778 9.53285 25.814 10.1569 26.1363C10.4691 26.2976 10.7275 26.4304 10.908 26.523C10.9983 26.5693 11.069 26.6055 11.1173 26.6302C11.1414 26.6425 11.1599 26.652 11.1724 26.6583C11.1787 26.6615 11.1834 26.664 11.1866 26.6656C11.1882 26.6664 11.1894 26.667 11.1903 26.6674C11.1907 26.6677 11.191 26.6678 11.1912 26.6679C11.1913 26.668 11.1914 26.668 11.1914 26.668C11.1915 26.6681 11.1915 26.6681 11.5323 26ZM4.84821 21.5216C4.66468 21.356 4.39495 21.1504 4.05116 20.6881C3.7059 20.2237 3.27996 19.4864 2.88849 18.3067C2.10214 15.937 1.46135 11.8017 1.88468 4.57326L0.387242 4.48556C-0.042052 11.816 0.596085 16.1611 1.46482 18.7791C1.90089 20.0932 2.39653 20.9767 2.84746 21.5831C3.29986 22.1915 3.70095 22.5068 3.84341 22.6353L4.84821 21.5216ZM0.968492 5.26048C1.89613 5.47297 3.04849 5.45094 4.21324 5.29633C5.39024 5.14008 6.63646 4.84064 7.77686 4.45722C8.91191 4.07559 9.97553 3.59956 10.7717 3.07542C11.1686 2.81411 11.5271 2.52266 11.7939 2.20178C12.0566 1.88588 12.2823 1.47757 12.2823 1H10.7823C10.7823 0.993019 10.7835 1.07092 10.6406 1.24272C10.5019 1.40956 10.2738 1.60731 9.94688 1.82255C9.29525 2.25154 8.36162 2.67809 7.29882 3.03543C6.24135 3.39097 5.0891 3.6669 4.01585 3.80937C2.93036 3.95347 1.98072 3.9535 1.30343 3.79835L0.968492 5.26048Z" fill="white"/>
</svg>
